<svg id="Layer_3" enable-background="new 0 0 64 64" height="512" viewBox="0 0 64 64" width="512" xmlns="http://www.w3.org/2000/svg"><path d="m26 36v-34h36v36h-16l-8 8v-8h-12" fill="#c7e2fc"/><path d="m26 30.695c3.157 2.084 6.934 3.305 11 3.305 11.046 0 20-8.954 20-20 0-4.509-1.51-8.655-4.027-12h-26.973z" fill="#ebf7fe"/><path d="m26 2h36v8h-36z" fill="#f5b953"/><path d="m5 44h24v18h-24z" fill="#4d5d7a"/><path d="m5 44v14.099c1.723.573 3.568.901 5.5.901 8.933 0 16.19-6.673 16.473-15z" fill="#8892a0"/><path d="m14 62v-8h6v8" fill="#c18e59"/><path d="m2 36h30v4h-30z" fill="#8892a0"/><g fill="#3d98f7"><path d="m5 48c-1.657 0-3-1.343-3-3v-5h6v5c0 1.657-1.343 3-3 3z"/><path d="m20 40v5c0 1.657-1.343 3-3 3-1.657 0-3-1.343-3-3v-5"/><path d="m32 40v5c0 1.657-1.343 3-3 3-1.657 0-3-1.343-3-3v-5"/></g><path d="m26 40v5c0 1.657-1.343 3-3 3-1.657 0-3-1.343-3-3v-5" fill="#78b75b"/><path d="m14 40v5c0 1.657-1.343 3-3 3-1.657 0-3-1.343-3-3v-5" fill="#78b75b"/><circle cx="56" cy="32" fill="#8892a0" r="2"/><circle cx="56" cy="24" fill="#8892a0" r="2"/><path d="m42.256 27.686-1.256.314.314-1.256c.449-1.796 1.377-3.435 2.686-4.744 1.309-1.309 2.948-2.237 4.744-2.686l1.256-.314-.314 1.256c-.449 1.796-1.377 3.435-2.686 4.744-1.309 1.309-2.948 2.237-4.744 2.686z" fill="#669e4f"/><path d="m37.744 27.686 1.256.314-.314-1.256c-.449-1.796-1.377-3.435-2.686-4.744-1.309-1.309-2.948-2.237-4.744-2.686l-1.256-.314.314 1.256c.449 1.796 1.377 3.435 2.686 4.744 1.309 1.309 2.948 2.237 4.744 2.686z" fill="#669e4f"/><path d="m40.658 26.683-.658 1.317-.658-1.317c-.883-1.764-1.342-3.71-1.342-5.683 0-1.973.459-3.919 1.342-5.683l.658-1.317.658 1.317c.883 1.764 1.342 3.71 1.342 5.683 0 1.973-.459 3.919-1.342 5.683z" fill="#78b75b"/><path d="m43.106 30.553-3.106-1.553 3.106-1.553c.588-.294 1.236-.447 1.894-.447.658 0 1.306.153 1.894.447l3.106 1.553-3.106 1.553c-.588.294-1.236.447-1.894.447-.658 0-1.306-.153-1.894-.447z" fill="#78b75b"/><path d="m33.106 30.553-3.106-1.553 3.106-1.553c.588-.294 1.236-.447 1.894-.447.658 0 1.306.153 1.894.447l3.106 1.553-3.106 1.553c-.588.294-1.236.447-1.894.447-.658 0-1.306-.153-1.894-.447z" fill="#78b75b"/><path d="m29 5h2v2h-2z" fill="#fff"/><path d="m33 5h2v2h-2z" fill="#fff"/><path d="m37 5h2v2h-2z" fill="#fff"/><path d="m39 29h2v8h-2z" fill="#c18e59"/></svg>