<svg id="Layer_35" enable-background="new 0 0 64 64" height="512" viewBox="0 0 64 64" width="512" xmlns="http://www.w3.org/2000/svg"><path d="m28.87 52.15 2.13 2.85-2 7-2.54-7.43z" fill="#838f9b"/><path d="m35.13 52.15 2.41 2.42-2.54 7.43-2-7z" fill="#838f9b"/><path d="m16 62h-10c0-6.05 3.66-11.5 9.26-13.79l6.06-2.48-1.32 5.27 4 3-2 3 5 5z" fill="#fcd770"/><path d="m48 62h-11l5-5-2-3 4-3-1.32-5.27 6.06 2.48c2.8 1.15 5.12 3.08 6.73 5.49 1.61 2.4 2.53 5.28 2.53 8.3z" fill="#fcd770"/><path d="m26.46 54.57 2.54 7.43h-2l-5-5 2-3-4-3 1.32-5.27 1.87-.76z" fill="#ffeaa7"/><path d="m42.68 45.73 1.32 5.27-4 3 2 3-5 5h-2l2.54-7.43 3.27-9.6z" fill="#ffeaa7"/><path d="m35.13 52.15-3.13-3.15 5.54-5.54c.29.23.61.42.95.56l2.32.95-3.27 9.6z" fill="#aab2bd"/><path d="m28.87 52.15-2.41 2.42-3.27-9.6 2.32-.95c.34-.14.66-.33.95-.56l5.54 5.54z" fill="#aab2bd"/><path d="m32 49 3.13 3.15-2.13 2.85h-2l-2.13-2.85z" fill="#ff826e"/><path d="m33 55 2 7h-6l2-7z" fill="#ff826e"/><path d="m48 17.07v8.93c0-1.1-.45-2.1-1.17-2.83-.73-.72-1.73-1.17-2.83-1.17v-1.81c0-1.21-.98-2.19-2.19-2.19-5.05 0-9.93-1.77-13.81-5l-1.5 1.88c-1.22 1.52-2.92 2.55-4.8 2.94-1 .21-1.7 1.11-1.7 2.13v2.05c-2.21 0-4 1.79-4 4v-11.88c0-1.21.41-2.34 1.12-3.25.7-.9 1.7-1.57 2.88-1.87l1.49-1.74c1.43-1.67 3.19-2.98 5.14-3.88s4.1-1.38 6.3-1.38c8.32 0 15.07 6.75 15.07 15.07z" fill="#b27946"/><g fill="#f0d0b4"><path d="m37.54 43.46-5.54 5.54-5.54-5.54c.96-.74 1.54-1.89 1.54-3.15v-1.24c1.23.8 2.57 1.45 4 1.93 1.43-.48 2.77-1.13 4-1.93v1.24c0 1.26.58 2.41 1.54 3.15z"/><path d="m46.83 23.17c.72.73 1.17 1.73 1.17 2.83 0 2.21-1.79 4-4 4h-.94c.61-1.79.94-3.69.94-5.65v-2.35c1.1 0 2.1.45 2.83 1.17z"/><path d="m44 22v2.35c0 1.96-.33 3.86-.94 5.65-1.26 3.72-3.74 6.92-7.06 9.07-1.23.8-2.57 1.45-4 1.93-1.43-.48-2.77-1.13-4-1.93-3.32-2.15-5.8-5.35-7.06-9.07-.61-1.79-.94-3.69-.94-5.65v-2.35-2.05c0-1.02.7-1.92 1.7-2.13 1.88-.39 3.58-1.42 4.8-2.94l1.5-1.88c3.88 3.23 8.76 5 13.81 5 1.21 0 2.19.98 2.19 2.19z"/><path d="m20.94 30h-.94c-1.1 0-2.1-.45-2.83-1.17-.72-.73-1.17-1.73-1.17-2.83 0-2.21 1.79-4 4-4v2.35c0 1.96.33 3.86.94 5.65z"/></g><circle cx="38" cy="23" r="1"/><circle cx="26" cy="23" r="1"/><path d="m36 32h-2c0 1.103-.897 2-2 2s-2-.897-2-2h-2c0 2.206 1.794 4 4 4s4-1.794 4-4z"/><path d="m49.123 47.289-10.259-4.198c-1.133-.463-1.864-1.553-1.864-2.777v-.718c3.077-2.126 5.427-5.126 6.759-8.596h.241c2.757 0 5-2.243 5-5v-8.931c0-8.861-7.209-16.069-16.069-16.069-4.696 0-9.144 2.045-12.201 5.611l-1.291 1.507c-2.63.805-4.439 3.229-4.439 6.005v11.877c0 2.757 2.243 5 5 5h.241c1.332 3.471 3.682 6.47 6.759 8.596v.718c0 1.224-.731 2.313-1.864 2.777l-10.259 4.197c-6 2.455-9.877 8.229-9.877 14.712v1h54v-1c0-6.483-3.877-12.257-9.877-14.711zm-6.254 3.309-3.927 2.945 2.473-7.247.421.172zm-20.706-4.13.421-.172 2.473 7.247-3.927-2.945zm3.046 7.52 2.393 7.012h-.188l-4.127-4.127zm6.791-3.569 1.816 1.827-1.316 1.754h-1l-1.316-1.755zm3.24 3.261 1.149 1.156-1.304 3.82-.987-3.453zm-6.481-.001 1.143 1.524-.987 3.453-1.304-3.822zm2.996 2.321h.49l1.429 5h-3.348zm4.643 5 2.393-7.012 1.922 2.884-4.127 4.128zm3.164-15.463-2.453 7.186-3.697-3.721 4.271-4.272c.139.073.276.151.423.211zm4.852-16.579c.379-1.482.586-3.025.586-4.607v-1.167c1.161.414 2 1.514 2 2.816 0 1.512-1.129 2.754-2.586 2.958zm-24.172-18.988.31-.078 1.696-1.979c2.677-3.122 6.57-4.913 10.683-4.913 7.757 0 14.069 6.312 14.069 14.069v4.956c-.584-.442-1.257-.773-2-.924v-.911c0-1.759-1.431-3.19-3.189-3.19-4.803 0-9.48-1.693-13.17-4.768l-.784-.653-2.139 2.673c-1.06 1.325-2.559 2.246-4.22 2.593-1.447.302-2.498 1.609-2.498 3.107v1.149c-.743.152-1.416.482-2 .924v-7.903c0-1.967 1.333-3.674 3.242-4.152zm-3.242 16.03c0-1.302.839-2.402 2-2.816v1.167c0 1.582.207 3.125.586 4.607-1.457-.204-2.586-1.446-2.586-2.958zm4-1.649v-4.399c0-.556.381-1.04.906-1.149 2.115-.442 4.023-1.615 5.374-3.302l.878-1.098c3.914 2.972 8.724 4.597 13.653 4.597.656 0 1.189.534 1.189 1.19v4.161c0 7.023-4.406 13.247-11 15.591-6.594-2.344-11-8.568-11-15.591zm10.684 17.598.316.105.316-.105c.947-.316 1.855-.702 2.719-1.153.095.995.479 1.914 1.089 2.664l-4.124 4.126-4.125-4.125c.61-.751.994-1.669 1.089-2.664.864.449 1.773.836 2.72 1.152zm-5.79 2.993c.148-.061.284-.138.423-.211l4.271 4.271-3.698 3.72-2.452-7.184zm-10.259 4.197 4.233-1.732-.999 3.994 3.774 2.831-1.931 2.895 3.874 3.873h-7.586v-6h-2v6h-7.965c.373-5.255 3.665-9.842 8.6-11.861zm33.365 11.861v-6h-2v6h-7.586l3.873-3.873-1.931-2.895 3.774-2.831-.999-3.994 4.233 1.732c4.935 2.018 8.227 6.605 8.6 11.86h-7.964z"/><path d="m42.653 15.25 1.938-.499c-.192-.744-.451-1.474-.77-2.167l-1.818.834c.269.586.488 1.202.65 1.832z"/><path d="m40.937 11.584 1.623-1.168c-2.44-3.391-6.388-5.416-10.56-5.416v2c3.53 0 6.871 1.714 8.937 4.584z"/></svg>