<svg id="Layer_35" enable-background="new 0 0 64 64" height="512" viewBox="0 0 64 64" width="512" xmlns="http://www.w3.org/2000/svg"><path d="m15.26 48.21 5.85-2.39c-.08.38-.11.78-.11 1.18v3c-3.31 0-6 2.69-6 6s2.69 6 6 6h-15c0-3.02.92-5.9 2.53-8.3 1.61-2.41 3.93-4.34 6.73-5.49z" fill="#e6e9ed"/><path d="m28.04 53.96 2.96 8.04h-10c3.31 0 6-2.69 6-6s-2.69-6-6-6v-3c0-.4.03-.8.11-1.18l3.41-1.4z" fill="#e6e9ed"/><path d="m42.89 45.82 5.85 2.39c5.6 2.29 9.26 7.74 9.26 13.79h-25l2.96-8.04 3.52-9.54z" fill="#e6e9ed"/><path d="m21 50c3.31 0 6 2.69 6 6s-2.69 6-6 6-6-2.69-6-6 2.69-6 6-6z" fill="#48cfad"/><circle cx="21" cy="56" fill="#37bc9b" r="2"/><path d="m32 49 3.96 4.96-2.96 8.04h-2l-2.96-8.04z" fill="#75b1f2"/><path d="m39.48 44.42-3.52 9.54-3.96-4.96 5.09-5.94.01-.01c.38.42.85.75 1.39.97z" fill="#5d9cec"/><path d="m26.91 43.06 5.09 5.94-3.96 4.96-3.52-9.54.99-.4c.54-.22 1.01-.55 1.39-.97z" fill="#5d9cec"/><g fill="#f0d0b4"><path d="m28 39.07 4 1.93c1.43-.48 2.77-1.13 4-1.93v.93.31c0 1.05.4 2.03 1.1 2.74l-.01.01-5.09 5.94-5.09-5.94-.01-.01c.7-.71 1.1-1.69 1.1-2.74v-.31z"/><path d="m46.83 23.17c.72.73 1.17 1.73 1.17 2.83 0 2.21-1.79 4-4 4h-.94c.61-1.79.94-3.69.94-5.65v-2.35c1.1 0 2.1.45 2.83 1.17z"/><path d="m44 22v2.35c0 1.96-.33 3.86-.94 5.65-1.26 3.72-3.74 6.92-7.06 9.07-1.23.8-2.57 1.45-4 1.93l-4-1.93c-1.84-1.19-3.42-2.71-4.69-4.46-1.01-1.4-1.81-2.96-2.37-4.61-.61-1.79-.94-3.69-.94-5.65v-2.35-4h8.54c.69 1.2 1.98 2 3.46 2s2.77-.8 3.46-2h8.54z"/><path d="m20.94 30h-.94c-1.1 0-2.1-.45-2.83-1.17-.72-.73-1.17-1.73-1.17-2.83 0-2.21 1.79-4 4-4v2.35c0 1.96.33 3.86.94 5.65z"/></g><path d="m20 22c-2.21 0-4 1.79-4 4v-8h4z" fill="#b27946"/><path d="m48 18v8c0-1.1-.45-2.1-1.17-2.83-.73-.72-1.73-1.17-2.83-1.17v-4z" fill="#b27946"/><path d="m48 13.1v.9h-12.54c-.69-1.2-1.98-2-3.46-2s-2.77.8-3.46 2h-12.16c1.56-6.87 7.7-12 15.04-12 1.8 0 3.58.32 5.25.92s3.23 1.5 4.62 2.65l1.71 1.43c1.46.29 2.7 1.07 3.59 2.15.89 1.09 1.41 2.47 1.41 3.95z" fill="#b27946"/><path d="m16.38 14h12.16c-.34.59-.54 1.27-.54 2s.2 1.41.54 2h-8.54-4c-1.1 0-2-.9-2-2s.9-2 2-2z" fill="#ccd1d9"/><path d="m36 16c0-.73-.2-1.41-.54-2h12.54c1.1 0 2 .9 2 2s-.9 2-2 2h-4-8.54c.34-.59.54-1.27.54-2z" fill="#ccd1d9"/><path d="m35.46 14c.34.59.54 1.27.54 2s-.2 1.41-.54 2c-.69 1.2-1.98 2-3.46 2s-2.77-.8-3.46-2c-.34-.59-.54-1.27-.54-2s.2-1.41.54-2c.69-1.2 1.98-2 3.46-2s2.77.8 3.46 2z" fill="#fcd770"/><circle cx="38" cy="23" r="1"/><circle cx="26" cy="23" r="1"/><path d="m36 32h-2c0 1.103-.897 2-2 2s-2-.897-2-2h-2c0 2.206 1.794 4 4 4s4-1.794 4-4z"/><path d="m49.123 47.288-5.362-2.194c-.732-2.978-3.127-5.309-6.147-5.93 2.779-2.092 4.902-4.926 6.145-8.164h.241c2.757 0 5-2.243 5-5v-7.184c1.161-.414 2-1.514 2-2.816s-.839-2.402-2-2.816v-.086c0-3.342-2.317-6.254-5.547-7.023l-1.524-1.271c-2.946-2.452-6.678-3.804-10.511-3.804-7.467 0-13.854 4.917-15.813 12.04-1.466.196-2.605 1.441-2.605 2.96 0 1.302.839 2.402 2 2.816v7.184c0 2.757 2.243 5 5 5h.241c1.242 3.238 3.366 6.072 6.145 8.164-3.02.621-5.415 2.952-6.147 5.93l-5.362 2.194c-6 2.454-9.877 8.23-9.877 14.712v1h54v-1c0-6.482-3.877-12.258-9.877-14.712zm-7.901-3.233-2.358-.965c-.88-.359-1.512-1.099-1.753-1.983 1.763.332 3.255 1.436 4.111 2.948zm.778 2.945v3.08c-1.822.263-3.417 1.225-4.504 2.61l2.56-6.949 1.919.785c.013.157.025.314.025.474zm-21 14c-2.757 0-5-2.243-5-5s2.243-5 5-5 5 2.243 5 5-2.243 5-5 5zm1-11.92v-2.08c0-.16.012-.317.024-.474l1.92-.786 1.934 5.25c-1.036-1.009-2.381-1.694-3.878-1.91zm15.214-4.627c.279.187.572.358.892.489l.098.04-2.566 6.964-2.34-2.925zm-2.178-3.657c.078.809.34 1.571.766 2.231l-3.802 4.437-3.803-4.436c.427-.66.689-1.423.767-2.232.864.45 1.772.837 2.719 1.152l.317.106.316-.105c.947-.316 1.856-.703 2.72-1.153zm-8.25 3.657 3.916 4.569-2.34 2.924-2.566-6.964.097-.04c.321-.131.614-.302.893-.489zm5.214 6.148 2.831 3.539-2.528 6.86h-.605l-2.528-6.861zm15-31.601v3.026c-.584-.442-1.257-.773-2-.924v-2.102zm-2.586 9.958c.379-1.482.586-3.025.586-4.607v-1.166c1.161.414 2 1.514 2 2.816 0 1.512-1.129 2.753-2.586 2.957zm3.586-11.958h-11.101c.066-.323.101-.658.101-1s-.035-.677-.101-1h11.101c.552 0 1 .448 1 1s-.448 1-1 1zm-16.582-14c3.366 0 6.644 1.187 9.229 3.342l1.907 1.589.249.05c2.399.48 4.141 2.582 4.188 5.02h-11.017c-.914-1.207-2.348-2-3.974-2s-3.061.793-3.974 2h-10.338c1.894-5.948 7.372-10.001 13.73-10.001zm3.582 13c0 1.654-1.346 3-3 3s-3-1.346-3-3 1.346-3 3-3 3 1.346 3 3zm-19-1h11.101c-.066.323-.101.658-.101 1s.035.677.101 1h-11.101c-.552 0-1-.448-1-1s.448-1 1-1zm3 6.101c-.743.152-1.416.482-2 .924v-3.025h2zm-2 4.899c0-1.302.839-2.402 2-2.816v1.166c0 1.582.207 3.126.586 4.608-1.457-.204-2.586-1.445-2.586-2.958zm4-1.649v-5.351h7.026c.914 1.207 2.348 2 3.974 2s3.061-.793 3.974-2h7.026v5.351c0 7.023-4.406 13.247-11 15.592-6.594-2.345-11-8.569-11-15.592zm5.889 16.756c-.241.885-.873 1.624-1.753 1.984l-2.358.965c.856-1.513 2.348-2.617 4.111-2.949zm-19.854 19.893c.373-5.255 3.665-9.842 8.6-11.86l4.365-1.786v1.726c-3.386.488-6 3.401-6 6.92 0 1.958.81 3.728 2.111 5zm20.932-4.341 1.599 4.341h-3.676c1.152-1.127 1.917-2.646 2.077-4.341zm6.467 4.341 1.58-4.289c-.003.096-.014.191-.014.289v2h2v-2c0-2.757 2.243-5 5-5s5 2.243 5 5v2h2v-2c0-3.519-2.614-6.432-6-6.92v-2.726l4.365 1.786c4.935 2.019 8.227 6.605 8.6 11.86z"/><path d="m21 53c-1.654 0-3 1.346-3 3s1.346 3 3 3 3-1.346 3-3-1.346-3-3-3zm0 4c-.552 0-1-.448-1-1s.448-1 1-1 1 .448 1 1-.448 1-1 1z"/><circle cx="32" cy="16" r="1"/></svg>