<svg id="Layer_35" enable-background="new 0 0 64 64" height="512" viewBox="0 0 64 64" width="512" xmlns="http://www.w3.org/2000/svg"><path d="m20 46.27v6.61c0 2.42-1.65 4.53-4 5.12v4h-10c0-6.05 3.66-11.5 9.26-13.79z" fill="#f0d0b4"/><path d="m58 62h-10v-4c-1.18-.3-2.18-.97-2.88-1.87-.71-.91-1.12-2.04-1.12-3.25v-6.61l4.74 1.94c2.8 1.15 5.12 3.08 6.73 5.49 1.61 2.4 2.53 5.28 2.53 8.3z" fill="#f0d0b4"/><path d="m48 58v4h-32v-4c2.35-.59 4-2.7 4-5.12v-6.61l4.74-1.93c1.26 2.75 4.03 4.66 7.26 4.66s6-1.91 7.26-4.66l4.74 1.93v6.61c0 1.21.41 2.34 1.12 3.25.7.9 1.7 1.57 2.88 1.87z" fill="#5d9cec"/><circle cx="26" cy="56" fill="#fcd770" r="2"/><path d="m48 18v8c0-1.1-.45-2.1-1.17-2.83-.73-.72-1.73-1.17-2.83-1.17v-2l-3-3h-18l-3 3v2c-2.21 0-4 1.79-4 4v-8c0-8.84 7.16-16 16-16 4.42 0 8.42 1.79 11.32 4.68 2.89 2.9 4.68 6.9 4.68 11.32z" fill="#b27946"/><g fill="#f0d0b4"><path d="m46.83 23.17c.72.73 1.17 1.73 1.17 2.83 0 2.21-1.79 4-4 4h-.94c.61-1.79.94-3.69.94-5.65v-2.35c1.1 0 2.1.45 2.83 1.17z"/><path d="m38.49 44.02.77.32c-1.26 2.75-4.03 4.66-7.26 4.66s-6-1.91-7.26-4.66l.77-.32c1.51-.62 2.49-2.08 2.49-3.71v-1.24c1.23.8 2.57 1.45 4 1.93 1.43-.48 2.77-1.13 4-1.93v1.24c0 1.63.98 3.09 2.49 3.71z"/><path d="m44 22v2.35c0 1.96-.33 3.86-.94 5.65-.56 1.65-1.36 3.21-2.37 4.61-1.27 1.75-2.85 3.27-4.69 4.46-1.23.8-2.57 1.45-4 1.93-1.43-.48-2.77-1.13-4-1.93-3.32-2.15-5.8-5.35-7.06-9.07-.61-1.79-.94-3.69-.94-5.65v-2.35-2l3-3h18l3 3z"/><path d="m20.94 30h-.94c-1.1 0-2.1-.45-2.83-1.17-.72-.73-1.17-1.73-1.17-2.83 0-2.21 1.79-4 4-4v2.35c0 1.96.33 3.86.94 5.65z"/></g><circle cx="38" cy="23" r="1"/><circle cx="26" cy="23" r="1"/><path d="m36 32h-2c0 1.103-.897 2-2 2s-2-.897-2-2h-2c0 2.206 1.794 4 4 4s4-1.794 4-4z"/><path d="m42.653 15.25 1.938-.5c-.191-.742-.45-1.471-.77-2.167l-1.818.834c.27.588.489 1.205.65 1.833z"/><path d="m40.937 11.584 1.623-1.168c-2.44-3.392-6.388-5.416-10.56-5.416v2c3.53 0 6.871 1.714 8.937 4.584z"/><path d="m49.123 47.288-10.259-4.197c-1.133-.463-1.864-1.553-1.864-2.777v-.718c3.077-2.126 5.427-5.126 6.759-8.596h.241c2.757 0 5-2.243 5-5v-8c0-9.374-7.626-17-17-17s-17 7.626-17 17v8c0 2.757 2.243 5 5 5h.241c1.332 3.471 3.682 6.47 6.759 8.596v.718c0 1.224-.731 2.313-1.864 2.776l-10.259 4.197c-6 2.455-9.877 8.231-9.877 14.713v1h10 34 10v-1c0-6.482-3.877-12.258-9.877-14.712zm-4.709-18.33c.379-1.482.586-3.025.586-4.607v-1.166c1.161.414 2 1.514 2 2.816 0 1.512-1.129 2.753-2.586 2.957zm-12.414-25.958c8.271 0 15 6.729 15 15v4.026c-.584-.442-1.257-.773-2-.924v-1.515l-3.586-3.587h-18.828l-3.586 3.586v1.515c-.743.152-1.416.482-2 .924v-4.025c0-8.271 6.729-15 15-15zm-15 23c0-1.302.839-2.402 2-2.816v1.166c0 1.582.207 3.126.586 4.608-1.457-.204-2.586-1.445-2.586-2.958zm4-1.649v-3.937l2.414-2.414h17.172l2.414 2.414v3.937c0 7.023-4.406 13.247-11 15.592-6.594-2.345-11-8.569-11-15.592zm7.964 16.445c.864.45 1.772.837 2.719 1.152l.317.106.316-.105c.947-.316 1.855-.702 2.719-1.152.167 1.746 1.227 3.265 2.822 4.022-1.28 1.959-3.483 3.181-5.857 3.181s-4.577-1.222-5.857-3.182c1.594-.758 2.654-2.276 2.821-4.022zm-21.929 20.204c.373-5.255 3.665-9.842 8.6-11.86l3.365-1.377v5.114c0 1.968-1.333 3.676-3.242 4.153l-.758.19v3.78zm9.965 0v-2.271c2.39-.929 4-3.233 4-5.853v-5.932l3.292-1.347c1.613 2.696 4.533 4.403 7.708 4.403s6.095-1.707 7.708-4.403l3.292 1.348v5.932c0 2.619 1.61 4.924 4 5.853v2.27zm32 0v-3.78l-.758-.189c-1.909-.478-3.242-2.186-3.242-4.154v-5.114l3.365 1.377c4.935 2.019 8.227 6.605 8.6 11.86z"/><path d="m37 54h4v2h-4z"/><path d="m26 53c-1.654 0-3 1.346-3 3s1.346 3 3 3 3-1.346 3-3-1.346-3-3-3zm0 4c-.552 0-1-.448-1-1s.448-1 1-1 1 .448 1 1-.448 1-1 1z"/></svg>