<svg id="Layer_35" enable-background="new 0 0 64 64" height="512" viewBox="0 0 64 64" width="512" xmlns="http://www.w3.org/2000/svg"><path d="m23.31 34.61 4.69 4.46v1.24c0 .48-.09.96-.25 1.4h-.01c-2.37-.32-4.5-.86-6.28-1.43-3.27-1.05-5.46-4.15-5.46-7.59v-14.69c0-8.84 7.16-16 16-16s16 7.16 16 16v14.69c0 3.44-2.19 6.54-5.46 7.59-1.78.57-3.91 1.11-6.28 1.43h-.01c-.16-.44-.25-.92-.25-1.4v-1.24c1.84-1.19 3.43-2.71 4.69-4.46 2.1-2.92 3.31-6.49 3.31-10.26 0-3.76-2.49-7.06-6.11-8.09l-.89-.26-1.69.75c-2.41 1.07-4.92 1.88-7.49 2.43-2.56.54-5.18.82-7.82.82v4.35c0 3.77 1.21 7.34 3.31 10.26z" fill="#656d78"/><path d="m16 62h-10c0-6.05 3.66-11.5 9.26-13.79l5.69-2.33.05.12-1 7 5 1-3 3 5 5z" fill="#5cd6b3"/><path d="m48 62h-11l5-5-3-3 5-1-1-7 .05-.12 5.69 2.33c2.8 1.15 5.12 3.08 6.73 5.49 1.61 2.4 2.53 5.28 2.53 8.3z" fill="#5cd6b3"/><path d="m27 62-5-5 3-3-5-1 1-7-.05-.12 4.56-1.86c.07-.03.13-.06.2-.1l1.02 8.07 1.27 10.01z" fill="#37bc9b"/><path d="m39 54 3 3-5 5h-1l1.27-10.01 1.02-8.07c.07.04.13.07.2.1l4.56 1.86-.05.12 1 7z" fill="#37bc9b"/><path d="m38.29 43.92-1.02 8.07c-.09.01-.18.01-.27.01-2.76 0-5-2.24-5-5 2.45 0 4.56-1.47 5.49-3.57.25.2.51.36.8.49z" fill="#fc6e51"/><path d="m37.27 51.99-1.27 10.01h-8l-1.27-10.01c.09.01.18.01.27.01 2.76 0 5-2.24 5-5 0 2.76 2.24 5 5 5 .09 0 .18 0 .27-.01z" fill="#ff826e"/><path d="m26.51 43.43c.93 2.1 3.04 3.57 5.49 3.57 0 2.76-2.24 5-5 5-.09 0-.18 0-.27-.01l-1.02-8.07c.29-.13.55-.29.8-.49z" fill="#fc6e51"/><path d="m36.25 41.71c.25.67.68 1.27 1.24 1.72-.93 2.1-3.04 3.57-5.49 3.57s-4.56-1.47-5.49-3.57c.56-.45.99-1.05 1.24-1.72.16-.44.25-.92.25-1.4v-1.24c1.23.8 2.57 1.45 4 1.93 1.43-.48 2.77-1.13 4-1.93v1.24c0 .48.09.96.25 1.4z" fill="#f0d0b4"/><path d="m37.89 16.26c3.62 1.03 6.11 4.33 6.11 8.09 0 3.77-1.21 7.34-3.31 10.26-1.26 1.75-2.85 3.27-4.69 4.46-1.23.8-2.57 1.45-4 1.93-1.43-.48-2.77-1.13-4-1.93l-4.69-4.46c-2.1-2.92-3.31-6.49-3.31-10.26v-4.35c2.64 0 5.26-.28 7.82-.82 2.57-.55 5.08-1.36 7.49-2.43l1.69-.75z" fill="#f0d0b4"/><circle cx="26" cy="24" r="1"/><circle cx="38" cy="24" r="1"/><path d="m32 34c-1.103 0-2-.897-2-2h-2c0 2.206 1.794 4 4 4s4-1.794 4-4h-2c0 1.103-.897 2-2 2z"/><path d="m21.349 15.25-1.938-.499c-.183.711-.307 1.44-.367 2.167l1.994.165c.051-.615.155-1.231.311-1.833z"/><path d="m32 7v-2c-5.059 0-9.697 2.976-11.816 7.582l1.816.835c1.795-3.898 5.72-6.417 10-6.417z"/><path d="m49.123 47.289-9.751-3.99.001-.007-.025-.003-.484-.198c-.365-.149-.682-.368-.952-.631 1.65-.294 3.302-.703 4.93-1.227 3.683-1.185 6.158-4.617 6.158-8.54v-14.693c0-9.374-7.626-17-17-17s-17 7.626-17 17v14.693c0 3.923 2.475 7.355 6.158 8.541 1.628.523 3.28.933 4.93 1.227-.271.263-.588.482-.953.631l-.481.197-.028.004.001.008-9.751 3.989c-5.999 2.453-9.876 8.227-9.876 14.71v1h54v-1c0-6.483-3.877-12.257-9.877-14.711zm-7.053-.725.806 5.641-4.75.95.986-7.801zm-10.07-6.622c-6.594-2.345-11-8.568-11-15.591v-3.364c5.096-.129 10.042-1.245 14.717-3.323l1.357-.603.545.155c3.168.906 5.381 3.84 5.381 7.135 0 7.023-4.406 13.247-11 15.591zm-3.036.854c.864.45 1.772.837 2.719 1.153l.317.105.316-.105c.947-.316 1.855-.702 2.719-1.153.102 1.066.53 2.051 1.218 2.828-.902 1.461-2.505 2.376-4.253 2.376s-3.351-.915-4.254-2.376c.688-.777 1.116-1.762 1.218-2.828zm-1.999 5.043c1.045 1.086 2.414 1.823 3.922 2.066-.367 1.574-1.662 2.783-3.278 3.033zm10.07 0-.645 5.1c-1.616-.25-2.911-1.459-3.278-3.033 1.51-.244 2.878-.982 3.923-2.067zm-10.249 14.533-3.372-3.372 2.615-2.615zm1.076-7.441c1.724-.25 3.214-1.229 4.138-2.621.924 1.392 2.414 2.372 4.138 2.621l-1.02 8.069h-6.237zm10.109 1.454 2.615 2.615-3.372 3.372zm-20.971-21.692v-14.693c0-8.271 6.729-15 15-15s15 6.729 15 15v14.693c0 3.051-1.917 5.718-4.771 6.636-1.72.554-3.468.966-5.209 1.247-.008-.087-.02-.173-.02-.262v-.718c4.921-3.401 8-9.039 8-15.245 0-4.184-2.81-7.908-6.832-9.057l-1.242-.355-2.021.898c-4.723 2.099-9.738 3.163-14.905 3.163h-1v5.351c0 6.206 3.079 11.845 8 15.245v.718c0 .089-.012.175-.02.262-1.741-.281-3.489-.694-5.209-1.247-2.854-.918-4.771-3.585-4.771-6.636zm8.874 20.462-4.75-.95.806-5.641 2.958-1.21zm-10.239-4.016 4.149-1.697-.908 6.353 4.096.819-2.386 2.386 4 4h-7.586v-7h-2v7h-7.965c.373-5.255 3.665-9.842 8.6-11.861zm33.365 11.861v-7h-2v7h-7.586l4-4-2.386-2.386 4.096-.819-.908-6.353 4.149 1.698c4.935 2.018 8.227 6.605 8.6 11.86z"/></svg>