<svg id="Layer_35" enable-background="new 0 0 64 64" height="512" viewBox="0 0 64 64" width="512" xmlns="http://www.w3.org/2000/svg"><path d="m22 62h-8v-11.27l6-2.46v1.41c0 4.18.68 8.35 2 12.32z" fill="#5cd6b3"/><path d="m44 48.27 6 2.46v11.27h-8c1.32-3.97 2-8.14 2-12.32z" fill="#5cd6b3"/><g fill="#e6e9ed"><path d="m58 62h-8v-11.27l.6.24c2.24.91 4.08 2.46 5.38 4.39 1.29 1.92 2.02 4.22 2.02 6.64z"/><path d="m14 50.73v11.27h-8c0-4.84 2.93-9.2 7.4-11.03z"/><path d="m30.68 50.5c-.18.16-.33.34-.44.55l-.24-.05-3.66-1.83c-.22-.11-.47-.17-.72-.17-.9 0-1.62.72-1.62 1.62v2.76c0 .9.72 1.62 1.62 1.62.25 0 .5-.06.72-.17l2.46-1.23.2.4v8h-7c-1.32-3.97-2-8.14-2-12.32v-1.41l5.51-2.25c.3-.12.59-.28.84-.47z"/><path d="m44 48.27v1.41c0 4.18-.68 8.35-2 12.32h-7v-8l.2-.4 2.46 1.23c.22.11.47.17.72.17.9 0 1.62-.72 1.62-1.62v-2.76c0-.9-.72-1.62-1.62-1.62-.25 0-.5.06-.72.17l-3.66 1.83-.24.05c-.14-.25-.33-.47-.56-.64l3.96-5.28.01-.01c.37.39.82.69 1.32.9z"/></g><path d="m35.2 53.6-.2.4v8h-6v-8l-.2-.4 1.2-.6.24-.05c.34.62 1 1.05 1.76 1.05s1.42-.43 1.76-1.05l.24.05z" fill="#ff826e"/><path d="m48 22v2c0 1.46-.78 2.73-1.95 3.43-.52-.62-1.24-1.08-2.05-1.29v-6.14l-1.52-1.52c-.95-.95-2.23-1.48-3.58-1.48-1.22 0-2.41.45-3.33 1.25-2.12 1.85-4.54 3.29-7.13 4.27-2.59.97-5.36 1.48-8.17 1.48h-.27v2.14c-.81.21-1.53.67-2.05 1.29-1.17-.69-1.95-1.97-1.95-3.43v-2c0-5.68 2.95-10.66 7.41-13.5 2.48-1.58 5.43-2.5 8.59-2.5s6.11.92 8.59 2.5c.99.62 1.9 1.36 2.73 2.18 2.89 2.9 4.68 6.9 4.68 11.32z" fill="#b27946"/><path d="m43 6c0 .95-.9 1.82-2.41 2.5-2.48-1.58-5.43-2.5-8.59-2.5s-6.11.92-8.59 2.5c-1.51-.68-2.41-1.55-2.41-2.5 0-2.21 4.92-4 11-4s11 1.79 11 4z" fill="#b27946"/><path d="m37.17 45.12-.01.01-3.96 5.28c-.34-.26-.75-.41-1.2-.41-.51 0-.97.19-1.32.5l-4.33-4.95c1.03-.75 1.65-1.94 1.65-3.24v-1.24c1.23.8 2.57 1.45 4 1.93 1.43-.48 2.77-1.13 4-1.93v1.24c0 1.08.43 2.09 1.17 2.81z" fill="#f0d0b4"/><path d="m46.05 27.43c.59.69.95 1.59.95 2.57 0 2.21-1.79 4-4 4h-.76c1.14-2.34 1.76-4.94 1.76-7.65v-.21c.81.21 1.53.67 2.05 1.29z" fill="#f0d0b4"/><path d="m21.76 34h-.76c-2.21 0-4-1.79-4-4 0-.98.36-1.88.95-2.57.52-.62 1.24-1.08 2.05-1.29v.21c0 2.71.62 5.31 1.76 7.65z" fill="#f0d0b4"/><path d="m21.76 34c-1.14-2.34-1.76-4.94-1.76-7.65v-.21-2.14h.27c2.81 0 5.58-.51 8.17-1.48 2.59-.98 5.01-2.42 7.13-4.27.92-.8 2.11-1.25 3.33-1.25 1.35 0 2.63.53 3.58 1.48l1.52 1.52v6.14.21c0 2.71-.62 5.31-1.76 7.65-.44.91-.96 1.79-1.55 2.61-1.27 1.75-2.85 3.27-4.69 4.46-1.23.8-2.57 1.45-4 1.93-1.43-.48-2.77-1.13-4-1.93-2.71-1.75-4.86-4.21-6.24-7.07z" fill="#f0d0b4"/><path d="m30 51 .24.05c-.15.28-.24.61-.24.95s.09.67.24.95l-.24.05-1.2.6-2.46 1.23c-.22.11-.47.17-.72.17-.9 0-1.62-.72-1.62-1.62v-2.76c0-.9.72-1.62 1.62-1.62.25 0 .5.06.72.17z" fill="#e9573f"/><path d="m40 50.62v2.76c0 .9-.72 1.62-1.62 1.62-.25 0-.5-.06-.72-.17l-2.46-1.23-1.2-.6-.24-.05c.15-.28.24-.61.24-.95s-.09-.67-.24-.95l.24-.05 3.66-1.83c.22-.11.47-.17.72-.17.9 0 1.62.72 1.62 1.62z" fill="#e9573f"/><path d="m33.76 51.05c.15.28.24.61.24.95s-.09.67-.24.95c-.34.62-1 1.05-1.76 1.05s-1.42-.43-1.76-1.05c-.15-.28-.24-.61-.24-.95s.09-.67.24-.95c.11-.21.26-.39.44-.55.35-.31.81-.5 1.32-.5.45 0 .86.15 1.2.41.23.17.42.39.56.64z" fill="#fc6e51"/><circle cx="26" cy="26" r="1"/><circle cx="38" cy="26" r="1"/><path d="m36 34h-2c0 1.103-.897 2-2 2s-2-.897-2-2h-2c0 2.206 1.794 4 4 4s4-1.794 4-4z"/><path d="m21.349 19.25-1.938-.499c-.183.711-.307 1.44-.367 2.167l1.994.165c.051-.615.155-1.231.311-1.833z"/><path d="m32 11v-2c-5.059 0-9.697 2.976-11.816 7.582l1.816.835c1.795-3.898 5.72-6.417 10-6.417z"/><path d="m50.975 50.045-12.11-4.954c-1.134-.463-1.865-1.553-1.865-2.777v-.718c2.469-1.706 4.474-3.972 5.857-6.596h.143c2.757 0 5-2.243 5-5 0-.844-.214-1.647-.595-2.354.997-.936 1.595-2.255 1.595-3.646v-2c0-5.446-2.584-10.289-6.58-13.403 1.264-.917 1.58-1.879 1.58-2.597 0-3.283-6.037-5-12-5s-12 1.717-12 5c0 .718.316 1.68 1.579 2.597-3.995 3.114-6.579 7.957-6.579 13.403v2c0 1.391.597 2.71 1.595 3.647-.381.706-.595 1.51-.595 2.353 0 2.757 2.243 5 5 5h.143c1.383 2.624 3.388 4.89 5.857 6.596v.718c0 1.224-.731 2.313-1.864 2.776l-12.11 4.955c-4.876 1.995-8.026 6.687-8.026 11.955v1h54v-1c0-5.268-3.15-9.96-8.025-11.955zm-1.975 1.353v9.602h-5.642c1.08-3.652 1.632-7.425 1.641-11.239zm-6-2.454v.731c0 3.849-.588 7.654-1.735 11.325h-5.265v-5.882l1.211.605c.361.181.767.277 1.171.277 1.443 0 2.618-1.174 2.618-2.618v-2.764c0-1.444-1.175-2.618-2.618-2.618-.404 0-.81.096-1.171.276l-1.869.934 2.001-2.667c.241.151.493.288.764.399zm-8.037 3.419c.015-.12.037-.239.037-.363s-.022-.243-.037-.363l3.142-1.571c.388-.195.896.116.895.553v2.764c0 .436-.509.747-.895.553zm-1.963-.363c0 .551-.448 1-1 1s-1-.449-1-1 .448-1 1-1 1 .449 1 1zm-3.963.363-3.142 1.571c-.386.197-.894-.116-.895-.553v-2.764c0-.437.507-.75.895-.553l3.142 1.571c-.015.122-.037.241-.037.365s.022.243.037.363zm2.963 2.637c.771 0 1.468-.301 2-.78v6.78h-4v-6.78c.532.479 1.229.78 2 .78zm11.805-22.123c.611-1.628 1.008-3.351 1.14-5.137.65.553 1.055 1.367 1.055 2.26 0 1.374-.933 2.522-2.195 2.877zm-21.805-26.877c0-1.194 3.988-3 10-3s10 1.806 10 3c0 .309-.373.833-1.383 1.371-2.531-1.496-5.47-2.371-8.617-2.371s-6.086.875-8.617 2.371c-1.01-.538-1.383-1.062-1.383-1.371zm-5 16c0-8.271 6.729-15 15-15s15 6.729 15 15v2c0 .815-.325 1.567-.885 2.122-.339-.271-.707-.509-1.115-.687v-5.85l-1.81-1.811c-1.146-1.144-2.669-1.774-4.288-1.774-1.469 0-2.887.533-3.992 1.5-4.054 3.546-9.252 5.5-14.638 5.5h-1.272v2.436c-.408.178-.775.416-1.115.687-.56-.556-.885-1.307-.885-2.123zm1 8c0-.893.405-1.707 1.055-2.261.133 1.787.529 3.51 1.14 5.137-1.262-.354-2.195-1.502-2.195-2.876zm3-3.649v-1.362c5.609-.168 10.992-2.278 15.227-5.984.741-.648 1.691-1.005 2.675-1.005 1.085 0 2.105.423 2.874 1.19l1.224 1.224v5.937c0 7.023-4.406 13.247-11 15.591-6.594-2.344-11-8.568-11-15.591zm10.684 17.598.316.105.316-.105c.947-.316 1.855-.702 2.719-1.153.083.861.374 1.669.849 2.358l-2.997 3.996c-.281-.089-.576-.15-.887-.15-.391 0-.763.08-1.106.217l-3.146-3.595c.687-.777 1.114-1.76 1.216-2.826.864.45 1.773.837 2.72 1.153zm-5.79 2.993c.086-.035.162-.083.245-.122l1.759 2.01-1.108-.554c-.362-.18-.768-.276-1.172-.276-1.443 0-2.618 1.174-2.618 2.618v2.764c0 1.444 1.175 2.618 2.618 2.618.404 0 .81-.096 1.171-.276l1.211-.606v5.882h-5.265c-1.147-3.671-1.735-7.476-1.735-11.325v-.731zm-10.894 4.457 4.002-1.637c.008 3.813.561 7.587 1.641 11.238h-5.643zm-2 .883v8.718h-5.955c.34-3.749 2.588-7.019 5.955-8.718zm38 8.718v-8.719c3.367 1.7 5.615 4.969 5.955 8.719z"/></svg>