<svg id="Layer_35" enable-background="new 0 0 64 64" height="512" viewBox="0 0 64 64" width="512" xmlns="http://www.w3.org/2000/svg"><path d="m16 62h-10c0-6.05 3.66-11.5 9.26-13.79l7.17-2.93-1.43 5.72 4 3-2 3 5 5z" fill="#aab2bd"/><path d="m48 62h-12l5-5-2-3 4-3-1.43-5.72 7.17 2.93c2.8 1.15 5.12 3.08 6.73 5.49 1.61 2.4 2.53 5.28 2.53 8.3z" fill="#aab2bd"/><path d="m26.86 52.81 3.14 9.19h-2l-5-5 2-3-4-3 1.43-5.72 1.63-.67 1.94 5.67v1.1c0 .62.34 1.16.86 1.42z" fill="#ccd1d9"/><path d="m34 62 3.14-9.19v-.01c.75-.76.86-1.07.86-1.42v-1.1l1.94-5.67 1.63.67 1.43 5.72-4 3 2 3-5 5z" fill="#ccd1d9"/><path d="m48 18v8c0-1.1-.45-2.1-1.17-2.83-.73-.72-1.73-1.17-2.83-1.17v-2c-1.87 0-3.62-.94-4.66-2.5l-.34-.5h-14l-.34.5c-.52.78-1.22 1.4-2.02 1.84-.8.42-1.7.66-2.64.66v2c-2.21 0-4 1.79-4 4v-8c0-8.84 7.16-16 16-16 4.42 0 8.42 1.79 11.32 4.68 2.89 2.9 4.68 6.9 4.68 11.32z" fill="#b27946"/><path d="m28.34 47.17 2.09 1.04-4.08-4.66c-.25.19-.54.35-.84.47l-1.45.59 1.94 5.67v-1.66c0-.9.72-1.62 1.62-1.62.25 0 .5.06.72.17z" fill="#fcd770"/><path d="m35.66 52.83-2.47-1.23c-.33.26-.75.4-1.19.4s-.86-.14-1.19-.4c-.85.42-1.93.96-2.47 1.23-.23.11-.47.17-.72.17-.28 0-.54-.07-.76-.2v.01l3.14 9.19h4l3.14-9.19v-.01c-.22.13-.48.2-.76.2-.25 0-.5-.06-.72-.17z" fill="#fcd770"/><path d="m39.94 44.61-1.45-.59c-.3-.12-.59-.28-.84-.47l-4.09 4.67c.77-.39 1.64-.82 2.1-1.05.23-.11.47-.17.72-.17.9 0 1.62.72 1.62 1.62v1.66z" fill="#fcd770"/><path d="m33.19 51.6c.49-.36.81-.94.81-1.6s-.32-1.24-.81-1.6c.12-.06.24-.12.37-.18.77-.39 1.64-.82 2.1-1.05.23-.11.47-.17.72-.17.9 0 1.62.72 1.62 1.62v1.66 1.1c0 .35-.11.66-.86 1.42-.22.13-.48.2-.76.2-.25 0-.5-.06-.72-.17z" fill="#ff826e"/><path d="m30.81 48.4c-.49.36-.81.94-.81 1.6s.32 1.24.81 1.6c-.85.42-1.93.96-2.47 1.23-.23.11-.47.17-.72.17-.28 0-.54-.07-.76-.2-.52-.26-.86-.8-.86-1.42v-1.1-1.66c0-.9.72-1.62 1.62-1.62.25 0 .5.06.72.17l2.09 1.04.01.01z" fill="#ff826e"/><path d="m34 50c0 .66-.32 1.24-.81 1.6-.33.26-.75.4-1.19.4s-.86-.14-1.19-.4c-.49-.36-.81-.94-.81-1.6s.32-1.24.81-1.6c.33-.25.75-.4 1.19-.4s.86.15 1.19.4c.49.36.81.94.81 1.6z" fill="#fc6e51"/><g fill="#f0d0b4"><path d="m33.56 48.22c-.13.06-.25.12-.37.18-.33-.25-.75-.4-1.19-.4s-.86.15-1.19.4l-.37-.18-.01-.01-4.08-4.66c1.03-.75 1.65-1.94 1.65-3.24v-1.24c1.23.8 2.57 1.45 4 1.93 1.43-.48 2.77-1.13 4-1.93v1.24c0 1.3.62 2.49 1.65 3.24z"/><path d="m46.83 23.17c.72.73 1.17 1.73 1.17 2.83 0 2.21-1.79 4-4 4h-.94c.61-1.79.94-3.69.94-5.65v-2.35c1.1 0 2.1.45 2.83 1.17z"/><path d="m44 22v2.35c0 1.96-.33 3.86-.94 5.65-1.26 3.72-3.74 6.92-7.06 9.07-1.23.8-2.57 1.45-4 1.93-1.43-.48-2.77-1.13-4-1.93-1.84-1.19-3.42-2.71-4.69-4.46-1.01-1.4-1.81-2.96-2.37-4.61-.61-1.79-.94-3.69-.94-5.65v-2.35-2c.94 0 1.84-.24 2.64-.66.8-.44 1.5-1.06 2.02-1.84l.34-.5h14l.34.5c1.04 1.56 2.79 2.5 4.66 2.5z"/><path d="m20.94 30h-.94c-1.1 0-2.1-.45-2.83-1.17-.72-.73-1.17-1.73-1.17-2.83 0-2.21 1.79-4 4-4v2.35c0 1.96.33 3.86.94 5.65z"/></g><path d="m49.123 47.288-10.259-4.197c-1.132-.463-1.864-1.553-1.864-2.777v-.718c3.077-2.126 5.427-5.126 6.759-8.596h.241c2.757 0 5-2.243 5-5v-8c0-9.374-7.626-17-17-17s-17 7.626-17 17v8c0 2.757 2.243 5 5 5h.241c1.332 3.471 3.682 6.47 6.759 8.596v.718c0 1.224-.732 2.313-1.864 2.776l-10.259 4.197c-6 2.456-9.877 8.231-9.877 14.713v1h54v-1c0-6.482-3.877-12.257-9.877-14.712zm-7.254 3.311-3.926 2.944.034-.1c.618-.479 1.023-1.22 1.023-2.061v-.937l1.539-4.508.184.075zm-13.455 10.401-4.127-4.127 1.923-2.884 2.392 7.011zm-5.136-14.987.184-.075 1.538 4.507v.937c0 .841.405 1.582 1.023 2.061l.034.1-3.926-2.944zm2.861-1.193 1.069 1.221c-.525.084-.997.32-1.37.668l-.522-1.531.578-.236c.085-.035.162-.083.245-.122zm11.968.122.577.236-.523 1.531c-.372-.348-.844-.584-1.37-.668l1.069-1.222c.084.04.161.088.247.123zm-3.385 3.815 1.387-.694c.379-.188.891.116.891.555v2.764c0 .436-.502.75-.895.553l-1.383-.692c.175-.38.278-.798.278-1.243s-.103-.863-.278-1.243zm-1.722 1.243c0 .552-.449 1-1 1s-1-.448-1-1 .449-1 1-1 1 .448 1 1zm-6 1.382v-2.764c0-.437.504-.748.895-.553l1.383.692c-.175.38-.278.798-.278 1.243s.104.863.278 1.243l-1.387.694c-.379.187-.891-.116-.891-.555zm1.294 2.522c.168-.045.333-.099.492-.178l1.988-.994c.375.169.788.268 1.226.268s.851-.099 1.226-.269l1.984.992c.157.079.326.134.496.179l-2.421 7.098h-2.569zm7.104 7.096 2.393-7.011 1.923 2.884-4.128 4.127zm9.016-32.042c.379-1.482.586-3.025.586-4.607v-1.166c1.161.414 2 1.514 2 2.816 0 1.511-1.129 2.753-2.586 2.957zm-12.414-25.958c8.271 0 15 6.729 15 15v4.026c-.584-.442-1.257-.773-2-.924v-2.102h-1c-1.543 0-2.976-.767-3.832-2.051l-.633-.949h-15.07l-.633.949c-.856 1.284-2.289 2.051-3.832 2.051h-1v2.101c-.743.152-1.416.482-2 .924v-4.025c0-8.271 6.729-15 15-15zm-15 23c0-1.302.839-2.402 2-2.816v1.166c0 1.582.207 3.126.586 4.608-1.457-.204-2.586-1.446-2.586-2.958zm4-1.649v-3.426c1.822-.277 3.456-1.306 4.496-2.866l.039-.059h12.93l.039.059c1.041 1.561 2.674 2.589 4.496 2.866v3.426c0 7.023-4.406 13.247-11 15.592-6.594-2.345-11-8.569-11-15.592zm10.684 17.597.316.106.316-.105c.947-.316 1.855-.702 2.719-1.152.102 1.066.529 2.049 1.216 2.826l-3.145 3.595c-.342-.138-.714-.218-1.106-.218-.391 0-.763.08-1.106.217l-3.146-3.595c.687-.777 1.114-1.761 1.216-2.827.864.451 1.773.838 2.72 1.153zm-16.05 7.192 5.347-2.188-1.112 4.449 3.774 2.831-1.93 2.895 3.873 3.873h-8.586v-6h-2v6h-7.965c.373-5.255 3.665-9.842 8.599-11.86zm33.366 11.86v-6h-2v6h-8.586l3.873-3.873-1.93-2.895 3.774-2.831-1.113-4.449 5.347 2.188c4.934 2.019 8.226 6.605 8.599 11.86z"/><circle cx="38" cy="23" r="1"/><circle cx="26" cy="23" r="1"/><path d="m36 32h-2c0 1.103-.897 2-2 2s-2-.897-2-2h-2c0 2.206 1.794 4 4 4s4-1.794 4-4z"/><path d="m42.848 16.165 1.973-.33c-.123-.734-.312-1.464-.561-2.168l-1.886.666c.21.596.37 1.212.474 1.832z"/><path d="m41.529 12.501 1.731-1.002c-2.319-4.009-6.634-6.499-11.26-6.499v2c3.915 0 7.566 2.107 9.529 5.501z"/></svg>