<svg id="Layer_35" enable-background="new 0 0 64 64" height="512" viewBox="0 0 64 64" width="512" xmlns="http://www.w3.org/2000/svg"><path d="m48 11.67v14.33c0-2.21-1.79-4-4-4v-1.61c0-1.74-.89-3.32-2.32-4.22v-.01c2.48-.89 4.67-2.45 6.32-4.49z" fill="#b27946"/><path d="m50.67 6.33c0 .11-.02.23-.05.35-.54 1.85-1.44 3.54-2.62 4.99-1.65 2.04-3.84 3.6-6.32 4.49-1.53.55-3.16.84-4.85.84h-1.48c-2.84 0-5.61-.84-7.97-2.41l-2.38-1.59-3.12 2.5c-1.19.95-1.88 2.38-1.88 3.9v2.6c-1.1 0-2.1.45-2.83 1.17-.72.73-1.17 1.73-1.17 2.83v-11.27c0-7.03 5.7-12.73 12.73-12.73h.88c3.48 0 6.85 1.22 9.53 3.45 1.2 1 2.72 1.55 4.28 1.55 1.04 0 2.06-.24 2.99-.71l2.31-1.15c.18-.09.39-.14.6-.14.76 0 1.35.62 1.35 1.33z" fill="#b27946"/><path d="m34.95 57.58c3.01-.87 5.53-3.04 6.81-6.01l2.26-5.29 4.72 1.93c2.8 1.15 5.12 3.08 6.73 5.49 1.61 2.4 2.53 5.28 2.53 8.3h-10-32-10c0-6.05 3.66-11.5 9.26-13.79l4.72-1.93 2.26 5.29c.84 1.95 2.22 3.56 3.92 4.68.89.58 1.86 1.04 2.89 1.33.94.28 1.94.42 2.95.42s2.01-.14 2.95-.42z" fill="#fcd770"/><path d="m30 50-.95 7.58c-1.03-.29-2-.75-2.89-1.33-1.7-1.12-3.08-2.73-3.92-4.68l-2.26-5.29 4.67-1.91 2.35 8.63z" fill="#37bc9b"/><path d="m44.02 46.28-2.26 5.29c-1.28 2.97-3.8 5.14-6.81 6.01l-.95-7.58 3 3 2.35-8.63z" fill="#37bc9b"/><path d="m34 50 .95 7.58c-.94.28-1.94.42-2.95.42s-2.01-.14-2.95-.42l.95-7.58 2-2z" fill="#ff826e"/><path d="m39.35 44.37-2.35 8.63-3-3-2-2 5.36-4.69c.33.3.71.54 1.13.71z" fill="#48cfad"/><path d="m32 48-2 2-3 3-2.35-8.63.86-.35c.42-.17.8-.41 1.13-.71z" fill="#48cfad"/><g fill="#f0d0b4"><path d="m37.36 43.31-5.36 4.69-5.36-4.69c.85-.74 1.36-1.83 1.36-3v-1.24c1.23.8 2.57 1.45 4 1.93 1.43-.48 2.77-1.13 4-1.93v1.24c0 1.17.51 2.26 1.36 3z"/><path d="m44 20.39v1.61 1h-2c0-2.21-1.79-4-4-4-1.48 0-2.77.8-3.46 2h-5.08c-.69-1.2-1.98-2-3.46-2-2.21 0-4 1.79-4 4h-2v-1-2.6c0-1.52.69-2.95 1.88-3.9l3.12-2.5 2.38 1.59c2.36 1.57 5.13 2.41 7.97 2.41h1.48c1.69 0 3.32-.29 4.85-.84v.01c1.43.9 2.32 2.48 2.32 4.22z"/><path d="m46.83 28.83c-.73.72-1.73 1.17-2.83 1.17h-.93-.01c.61-1.78.94-3.69.94-5.65v-1.35-1c2.21 0 4 1.79 4 4 0 1.1-.45 2.1-1.17 2.83z"/><path d="m20 24.35c0 1.96.33 3.87.94 5.65h-.01-.93c-2.21 0-4-1.79-4-4 0-1.1.45-2.1 1.17-2.83.73-.72 1.73-1.17 2.83-1.17v1z"/><path d="m44 24.35c0 1.96-.33 3.87-.94 5.65-.56 1.65-1.36 3.21-2.37 4.61-1.27 1.75-2.85 3.27-4.69 4.46-1.23.8-2.57 1.45-4 1.93-1.43-.48-2.77-1.13-4-1.93-3.32-2.15-5.8-5.35-7.06-9.07-.61-1.78-.94-3.69-.94-5.65v-1.35h2c0 2.21 1.79 4 4 4s4-1.79 4-4c0-.73-.2-1.41-.54-2h5.08c-.34.59-.54 1.27-.54 2 0 2.21 1.79 4 4 4s4-1.79 4-4h2z"/></g><path d="m38 19c2.21 0 4 1.79 4 4s-1.79 4-4 4-4-1.79-4-4c0-.73.2-1.41.54-2 .69-1.2 1.98-2 3.46-2z" fill="#69d6f4"/><path d="m29.46 21c.34.59.54 1.27.54 2 0 2.21-1.79 4-4 4s-4-1.79-4-4 1.79-4 4-4c1.48 0 2.77.8 3.46 2z" fill="#69d6f4"/><circle cx="38" cy="23" r="1"/><circle cx="26" cy="23" r="1"/><path d="m36 32h-2c0 1.103-.897 2-2 2s-2-.897-2-2h-2c0 2.206 1.794 4 4 4s4-1.794 4-4z"/><path d="m26 28c2.757 0 5-2.243 5-5 0-.342-.035-.677-.101-1h2.202c-.066.323-.101.658-.101 1 0 2.757 2.243 5 5 5s5-2.243 5-5-2.243-5-5-5c-1.627 0-3.061.793-3.974 2h-4.051c-.914-1.207-2.348-2-3.974-2-2.757 0-5 2.243-5 5s2.242 5 4.999 5zm12-8c1.654 0 3 1.346 3 3s-1.346 3-3 3-3-1.346-3-3 1.346-3 3-3zm-12 0c1.654 0 3 1.346 3 3s-1.346 3-3 3-3-1.346-3-3 1.346-3 3-3z"/><path d="m49.123 47.289-10.259-4.198c-1.133-.463-1.864-1.553-1.864-2.777v-.718c3.077-2.126 5.427-5.126 6.759-8.597h.241c2.757 0 5-2.243 5-5v-14.031c1.138-1.474 2.034-3.154 2.576-5.007.203-.695.068-1.43-.371-2.016-.663-.883-1.958-1.19-2.935-.698l-2.305 1.152c-1.973.988-4.49.694-6.185-.718-2.849-2.373-6.461-3.681-10.169-3.681h-.883c-7.57 0-13.728 6.158-13.728 13.728v11.272c0 2.757 2.243 5 5 5h.241c1.332 3.471 3.682 6.47 6.759 8.597v.718c0 1.224-.731 2.313-1.864 2.776l-10.259 4.197c-6 2.455-9.877 8.23-9.877 14.712v1h54v-1c0-6.482-3.877-12.257-9.877-14.711zm-25.961 3.883-1.864-4.35 2.682-1.097 2.509 9.201 2.158-2.158-.43 3.439c-2.226-.954-4.062-2.718-5.055-5.035zm7.788-.707 1.05-1.05 1.05 1.05.792 6.336c-.601.117-1.213.199-1.842.199s-1.241-.082-1.842-.199zm4.834 5.742-.43-3.439 2.158 2.158 2.509-9.201 2.682 1.097-1.864 4.349c-.994 2.318-2.83 4.082-5.055 5.036zm2.371-11.245-1.667 6.112-3.026-3.025 3.95-3.456c.22.132.451.25.694.35zm5.376-28.515c1.261-.615 2.421-1.413 3.469-2.339v7.918c-.584-.442-1.257-.773-2-.924v-.716c0-1.476-.531-2.863-1.469-3.939zm.883 12.511c.379-1.482.586-3.025.586-4.607v-1.167c1.161.414 2 1.514 2 2.816 0 1.512-1.129 2.754-2.586 2.958zm-15.686-25.958h.883c3.242 0 6.398 1.143 8.889 3.218 2.29 1.909 5.691 2.304 8.36.971l2.306-1.153c.187-.096.396.052.439.109.041.055.083.145.051.255-1.653 5.653-6.926 9.6-12.822 9.6h-1.486c-2.646 0-5.209-.776-7.411-2.244l-2.991-1.994-3.695 2.956c-1.43 1.145-2.251 2.853-2.251 4.685v1.698c-.743.152-1.416.482-2 .924v-7.298c0-6.466 5.261-11.727 11.728-11.727zm-11.728 23c0-1.302.839-2.402 2-2.816v1.167c0 1.582.207 3.125.586 4.607-1.457-.204-2.586-1.446-2.586-2.958zm4-1.649v-1.351-3.597c0-1.222.547-2.36 1.501-3.124l2.553-2.042 1.774 1.183c2.532 1.688 5.478 2.58 8.521 2.58h1.486c1.612 0 3.184-.257 4.668-.736.945.755 1.497 1.893 1.497 3.121v2.615 1.351c0 7.023-4.406 13.247-11 15.591-6.594-2.344-11-8.567-11-15.591zm10.684 17.598.316.105.316-.105c.947-.316 1.855-.702 2.719-1.152.086.892.399 1.724.904 2.427l-3.939 3.447-3.94-3.447c.505-.704.818-1.536.904-2.427.864.449 1.773.836 2.72 1.152zm-5.097 2.643 3.95 3.456-3.026 3.025-1.667-6.112.048-.02c.244-.098.475-.216.695-.349zm22.413 16.408v-6h-2v6h-30v-6h-2v6h-7.965c.373-5.255 3.665-9.842 8.599-11.861l3.813-1.56 1.877 4.38c1.832 4.278 6.023 7.041 10.676 7.041s8.844-2.763 10.676-7.04l1.877-4.38 3.813 1.56c4.934 2.018 8.226 6.605 8.599 11.86z"/></svg>