<svg id="Layer_35" enable-background="new 0 0 64 64" height="512" viewBox="0 0 64 64" width="512" xmlns="http://www.w3.org/2000/svg"><g fill="#ff826e"><path d="m27 43.29v6.71h-3c-1.1 0-2 .9-2 2v8c0 1.1.9 2 2 2h-8-10c0-5.98 3.57-11.37 9.06-13.7.06-.03.13-.06.2-.09l10.25-4.19c.52-.21.98-.53 1.36-.93.04.07.08.14.13.2z"/><path d="m48 62h-8c1.1 0 2-.9 2-2v-8c0-1.1-.9-2-2-2h-3v-6.71c.05-.06.09-.13.13-.2.38.4.84.72 1.36.93l10.25 4.19c.07.03.14.06.2.09 2.71 1.15 4.96 3.05 6.53 5.4 1.61 2.4 2.53 5.28 2.53 8.3z"/><path d="m37 43.29v6.71h-5-5v-6.71c1.07 1.63 2.91 2.71 5 2.71s3.93-1.08 5-2.71z"/></g><path d="m35.31 16.75c-2.41 1.07-4.92 1.88-7.49 2.43-2.56.54-5.18.82-7.82.82v4.35c0 3.77 1.21 7.34 3.31 10.26 1.27 1.75 2.85 3.27 4.69 4.46v1.24c0 1-.37 1.94-1 2.65-.05.05-.09.1-.13.13-.38.4-.84.72-1.36.93l-10.25 4.19c-.07.03-.14.06-.2.09-2.8-1.78-4.06-4.3-4.06-4.3l1.26-.42c2.07-.69 3.65-2.29 4.35-4.27-2.19-.89-3.61-2.31-3.61-2.31l.97-.97c1.3-1.3 2.03-3.06 2.03-4.9v-9.13-4c0-.69.04-1.37.13-2.04 3.65-1.19 9.4-1.96 15.87-1.96 1.77 0 3.49.06 5.12.17l-.12 1.83z" fill="#656d78"/><path d="m47.39 39.3c.7 1.99 2.28 3.59 4.35 4.28l1.26.42s-1.26 2.52-4.06 4.3c-.06-.03-.13-.06-.2-.09l-10.25-4.19c-.52-.21-.98-.53-1.36-.93-.04-.03-.08-.08-.13-.13-.63-.71-1-1.65-1-2.65v-1.24c1.84-1.19 3.42-2.71 4.69-4.46 2.1-2.92 3.31-6.49 3.31-10.26 0-3.76-2.49-7.06-6.11-8.09l-.89-.26.12-1.83c4.34.28 8.1.92 10.75 1.79.09.67.13 1.35.13 2.04v4 9.13c0 1.84.73 3.6 2.03 4.9l.97.97s-1.42 1.42-3.61 2.3z" fill="#656d78"/><path d="m46.98 12.36c-3.66-1.45-9.01-2.36-14.98-2.36s-11.32.91-14.98 2.36c1.14-3.02 3.17-5.62 5.78-7.45 2.6-1.83 5.78-2.91 9.2-2.91 6.85 0 12.7 4.31 14.98 10.36z" fill="#fcd770"/><path d="m52 17v2c0-1.14-1.54-2.2-4.13-3.04-2.65-.87-6.41-1.51-10.75-1.79-1.63-.11-3.35-.17-5.12-.17-6.47 0-12.22.77-15.87 1.96-2.59.84-4.13 1.9-4.13 3.04v-2c0-1.79 1.9-3.4 5.02-4.64 3.66-1.45 9.01-2.36 14.98-2.36s11.32.91 14.98 2.36c3.12 1.24 5.02 2.85 5.02 4.64z" fill="#fcd770"/><path d="m32 50c-3.31 0-6 2.69-6 6s2.69 6 6 6h-8c-1.1 0-2-.9-2-2v-8c0-1.1.9-2 2-2h3z" fill="#ccd1d9"/><path d="m38 56c0-3.31-2.69-6-6-6h5 3c1.1 0 2 .9 2 2v8c0 1.1-.9 2-2 2h-8c3.31 0 6-2.69 6-6z" fill="#ccd1d9"/><path d="m32 50c3.31 0 6 2.69 6 6s-2.69 6-6 6-6-2.69-6-6 2.69-6 6-6z" fill="#69d6f4"/><circle cx="32" cy="56" fill="#4fc1e9" r="2"/><path d="m37 42.96v.33c-1.07 1.63-2.91 2.71-5 2.71s-3.93-1.08-5-2.71v-.33c.63-.71 1-1.65 1-2.65v-1.24c1.23.8 2.57 1.45 4 1.93 1.43-.48 2.77-1.13 4-1.93v1.24c0 1 .37 1.94 1 2.65z" fill="#f0d0b4"/><path d="m37.89 16.26c3.62 1.03 6.11 4.33 6.11 8.09 0 3.77-1.21 7.34-3.31 10.26-1.27 1.75-2.85 3.27-4.69 4.46-1.23.8-2.57 1.45-4 1.93-1.43-.48-2.77-1.13-4-1.93-1.84-1.19-3.42-2.71-4.69-4.46-2.1-2.92-3.31-6.49-3.31-10.26v-4.35c2.64 0 5.26-.28 7.82-.82 2.57-.55 5.08-1.36 7.49-2.43l1.69-.75z" fill="#f0d0b4"/><circle cx="26" cy="24" r="1"/><circle cx="38" cy="24" r="1"/><path d="m32 34c-1.103 0-2-.897-2-2h-2c0 2.206 1.794 4 4 4s4-1.794 4-4h-2c0 1.103-.897 2-2 2z"/><path d="m32 59c1.654 0 3-1.346 3-3s-1.346-3-3-3-3 1.346-3 3 1.346 3 3 3zm0-4c.551 0 1 .448 1 1s-.449 1-1 1-1-.448-1-1 .449-1 1-1z"/><path d="m50.851 48.13c2.041-1.72 2.996-3.589 3.043-3.683l.516-1.031-2.351-.784c-1.461-.486-2.64-1.499-3.35-2.831 1.79-.909 2.919-2.015 2.997-2.094l.709-.707-1.675-1.675c-1.122-1.122-1.74-2.613-1.74-4.198v-8.429c2.644-.995 4-2.235 4-3.698v-2c0-2.276-2.076-4.093-5.265-5.417-2.593-6.346-8.851-10.583-15.735-10.583s-13.142 4.237-15.735 10.583c-3.189 1.324-5.265 3.141-5.265 5.417v2c0 1.463 1.356 2.703 4 3.698v8.429c0 1.585-.618 3.076-1.739 4.198l-1.676 1.675.708.707c.078.079 1.208 1.184 2.997 2.094-.71 1.332-1.889 2.345-3.35 2.832l-2.35.783.516 1.031c.047.094 1.002 1.963 3.043 3.683-5.002 2.784-8.149 8.036-8.149 13.87v1h19 16 19v-1c0-5.834-3.147-11.086-8.149-13.87zm-1.526-11.391.201.201c-1.054.801-3.096 2.06-5.526 2.06v2c1.021 0 1.975-.177 2.844-.443.936 1.875 2.561 3.3 4.583 3.972l.045.016c-.532.733-1.425 1.743-2.661 2.616l-9.947-4.07c-1.132-.463-1.864-1.553-1.864-2.777v-.718c4.921-3.401 8-9.039 8-15.246 0-4.183-2.809-7.907-6.832-9.058l-.234-.067c3.816.299 6.834.863 9.006 1.498.035.425.06.851.06 1.277v13.127c0 2.119.826 4.112 2.325 5.612zm-21.325 12.261v-3.265c1.152.809 2.533 1.265 4 1.265s2.848-.456 4-1.265v3.265zm9 7c0 2.757-2.243 5-5 5s-5-2.243-5-5 2.243-5 5-5 5 2.243 5 5zm.619-38.783c3.168.905 5.381 3.839 5.381 7.134 0 7.023-4.406 13.247-11 15.592-6.594-2.345-11-8.568-11-15.592v-3.363c5.097-.129 10.043-1.245 14.717-3.322l1.358-.604zm-5.935 24.731.316.106.316-.105c.947-.316 1.855-.702 2.719-1.152.082.857.371 1.662.842 2.348-.944 1.171-2.348 1.855-3.877 1.855s-2.933-.684-3.878-1.856c.471-.686.76-1.491.842-2.348.864.45 1.773.837 2.72 1.152zm17.316-21.405v-2.543c0-.188-.012-.376-.018-.564 1.329.567 2.018 1.131 2.018 1.564 0 .263-.466.866-2 1.543zm-17-17.543c5.45 0 10.461 3.006 13.086 7.668-3.796-1.098-8.504-1.668-13.086-1.668s-9.29.57-13.086 1.668c2.625-4.662 7.636-7.668 13.086-7.668zm0 8c9.98 0 17.248 2.512 18.713 5.068-3.724-2.091-11.419-3.068-18.713-3.068s-14.989.977-18.713 3.068c1.465-2.556 8.733-5.068 18.713-5.068zm-19 8c0-.433.689-.997 2.018-1.564-.006.188-.018.376-.018.564v2.543c-1.534-.677-2-1.28-2-1.543zm-.428 25.53c2.022-.674 3.648-2.098 4.583-3.973.87.266 1.824.443 2.845.443v-2c-2.415 0-4.465-1.262-5.523-2.062l.199-.198c1.499-1.5 2.324-3.493 2.324-5.612v-13.128c0-.426.025-.852.06-1.276 3.199-.936 8.23-1.724 14.94-1.724 1.597 0 3.095.046 4.501.127l-1.597.71c-4.721 2.099-9.735 3.163-14.904 3.163h-1v5.351c0 6.206 3.079 11.845 8 15.246v.718c0 1.224-.732 2.313-1.864 2.776l-9.948 4.07c-1.237-.873-2.129-1.883-2.661-2.616zm3.062 4.61 10.26-4.197c.037-.015.07-.037.106-.053v4.11h-2c-1.654 0-3 1.346-3 3v8c0 .352.072.686.184 1h-4.184v-6h-2v6h-7.965c.373-5.255 3.665-9.842 8.599-11.86zm8.366 11.86c-.551 0-1-.448-1-1v-8c0-.552.449-1 1-1h3.111c-1.301 1.272-2.111 3.042-2.111 5s.81 3.728 2.111 5zm12.889 0c1.301-1.272 2.111-3.042 2.111-5s-.81-3.728-2.111-5h3.111c.551 0 1 .448 1 1v8c0 .552-.449 1-1 1zm12.111 0v-6h-2v6h-4.184c.112-.314.184-.648.184-1v-8c0-1.654-1.346-3-3-3h-2v-4.111c.037.016.07.038.107.053l10.259 4.197c4.934 2.019 8.226 6.605 8.599 11.86h-7.965z"/></svg>