<svg id="Layer_35" enable-background="new 0 0 64 64" height="512" viewBox="0 0 64 64" width="512" xmlns="http://www.w3.org/2000/svg"><path d="m16 62h-10c0-6.05 3.66-11.5 9.26-13.79l10.25-4.19c.07-.03.15-.06.22-.11l.01.01 6.04 4.23-5.78 3.85v10z" fill="#ccd1d9"/><path d="m38.18 43.88.01-.01c.1.06.2.11.3.15l10.25 4.19c2.8 1.15 5.12 3.08 6.73 5.49 1.61 2.4 2.53 5.28 2.53 8.3h-10-22v-10l5.78-3.85z" fill="#e6e9ed"/><path d="m44 55v2c0 .55-.45 1-1 1h-4c-.55 0-1-.45-1-1v-2c0-.55.45-1 1-1h4c.55 0 1 .45 1 1z" fill="#ff826e"/><path d="m52 10c0 2.3-1.62 3.99-4 5 0 0-9-1-16-1s-16 1-16 1c-2.38-1.01-4-2.7-4-5 0-3.31 3.36-6 7.5-6 1.58 0 3.04.39 4.24 1.05 1.8-1.84 4.83-3.05 8.26-3.05s6.46 1.21 8.26 3.05c1.2-.66 2.66-1.05 4.24-1.05 4.14 0 7.5 2.69 7.5 6z" fill="#e6e9ed"/><path d="m48 15v4s-1.61-.18-4-.39c-3.25-.28-7.96-.61-12-.61s-8.75.33-12 .61c-2.39.21-4 .39-4 .39v-4s9-1 16-1 16 1 16 1z" fill="#aab2bd"/><path d="m20 22c-2.21 0-4 1.79-4 4v-7s1.61-.18 4-.39z" fill="#fcd770"/><path d="m48 19v7c0-1.1-.45-2.1-1.17-2.83-.73-.72-1.73-1.17-2.83-1.17v-3.39c2.39.21 4 .39 4 .39z" fill="#fcd770"/><g fill="#f0d0b4"><path d="m36 40.31c0 1.52.85 2.89 2.19 3.56l-.01.01-6.4 4.27-6.04-4.23-.01-.01c1.38-.66 2.27-2.05 2.27-3.6v-1.24c1.23.8 2.57 1.45 4 1.93 1.43-.48 2.77-1.13 4-1.93z"/><path d="m46.83 23.17c.72.73 1.17 1.73 1.17 2.83 0 2.21-1.79 4-4 4h-.94c.61-1.79.94-3.69.94-5.65v-2.35c1.1 0 2.1.45 2.83 1.17z"/><path d="m44 22v2.35c0 1.96-.33 3.86-.94 5.65-.56 1.65-1.36 3.21-2.37 4.61-1.27 1.75-2.85 3.27-4.69 4.46-1.23.8-2.57 1.45-4 1.93-1.43-.48-2.77-1.13-4-1.93-3.32-2.15-5.8-5.35-7.06-9.07-.61-1.79-.94-3.69-.94-5.65v-2.35-3.39c3.25-.28 7.96-.61 12-.61s8.75.33 12 .61z"/><path d="m20.94 30h-.94c-1.1 0-2.1-.45-2.83-1.17-.72-.73-1.17-1.73-1.17-2.83 0-2.21 1.79-4 4-4v2.35c0 1.96.33 3.86.94 5.65z"/></g><path d="m49.123 47.288-10.259-4.197c-1.132-.463-1.864-1.553-1.864-2.777v-.718c3.077-2.126 5.427-5.126 6.759-8.596h.241c2.757 0 5-2.243 5-5v-10.358c2.586-1.277 4-3.262 4-5.642 0-3.859-3.813-7-8.5-7-1.43 0-2.821.292-4.064.85-2.075-1.795-5.166-2.85-8.436-2.85s-6.361 1.055-8.436 2.85c-1.243-.558-2.634-.85-4.064-.85-4.687 0-8.5 3.141-8.5 7 0 2.38 1.414 4.364 4 5.642v10.358c0 2.757 2.243 5 5 5h.241c1.332 3.471 3.682 6.47 6.759 8.596v.718c0 1.224-.732 2.313-1.864 2.776l-10.259 4.197c-6 2.456-9.877 8.231-9.877 14.713v1h54v-1c0-6.482-3.877-12.257-9.877-14.712zm-30.123-26.187c-.743.152-1.416.482-2 .924v-2.125c.493-.05 1.183-.117 2-.192zm-2-3.21v-1.99c2.433-.247 9.403-.901 15-.901 5.595 0 12.566.654 15 .901v1.99c-2.626-.264-9.459-.891-15-.891s-12.374.627-15 .891zm30 2.01v2.125c-.584-.442-1.257-.773-2-.924v-1.392c.817.074 1.507.141 2 .191zm-2.586 9.057c.379-1.482.586-3.025.586-4.607v-1.166c1.161.414 2 1.514 2 2.816 0 1.511-1.129 2.753-2.586 2.957zm-31.414-18.958c0-2.757 2.916-5 6.5-5 1.353 0 2.653.321 3.761.93l.666.366.531-.543c1.684-1.724 4.504-2.753 7.542-2.753s5.858 1.029 7.542 2.753l.531.543.666-.366c1.108-.609 2.408-.93 3.761-.93 3.584 0 6.5 2.243 6.5 5 0 2.084-1.672 3.299-3.168 3.976-1.521-.161-9.515-.976-15.832-.976s-14.311.815-15.832.976c-1.496-.677-3.168-1.892-3.168-3.976zm4 16c0-1.302.839-2.402 2-2.816v1.166c0 1.582.207 3.126.586 4.608-1.457-.204-2.586-1.446-2.586-2.958zm4-1.649v-4.815c3.174-.261 7.371-.536 11-.536 3.628 0 7.826.275 11 .536v4.815c0 7.023-4.406 13.247-11 15.592-6.594-2.345-11-8.569-11-15.592zm10.684 17.597.316.106.316-.105c.947-.316 1.855-.702 2.719-1.152.112 1.165.618 2.226 1.419 3.033l-4.661 3.107-4.329-3.03c.846-.815 1.384-1.907 1.499-3.109.865.448 1.774.835 2.721 1.15zm-16.05 7.192 9.986-4.085 4.388 3.072-5.008 3.338v9.535h-8v-6h-2v6h-7.965c.373-5.255 3.665-9.842 8.599-11.86zm33.366 11.86v-6h-2v6h-20v-8.465l11.282-7.521 10.084 4.126c4.934 2.019 8.226 6.605 8.599 11.86z"/><circle cx="38" cy="23" r="1"/><circle cx="26" cy="23" r="1"/><path d="m36 32h-2c0 1.103-.897 2-2 2s-2-.897-2-2h-2c0 2.206 1.794 4 4 4s4-1.794 4-4z"/><path d="m29 57h2v2h-2z"/><path d="m29 53h2v2h-2z"/><path d="m33 53h2v2h-2z"/><path d="m33 57h2v2h-2z"/><path d="m43 53h-4c-1.103 0-2 .897-2 2v2c0 1.103.897 2 2 2h4c1.103 0 2-.897 2-2v-2c0-1.103-.897-2-2-2zm0 4h-4l-.001-2h.001 4z"/></svg>