<svg id="Layer_35" enable-background="new 0 0 64 64" height="512" viewBox="0 0 64 64" width="512" xmlns="http://www.w3.org/2000/svg"><path d="m36 40.31c0 .95.34 1.85.93 2.55l-.01.01c-.4 2.31-2.38 4.06-4.78 4.12-.05.01-.09.01-.14.01s-.09 0-.14-.01c-2.4-.06-4.38-1.81-4.78-4.12l-.01-.01c.59-.7.93-1.6.93-2.55v-1.24c1.23.8 2.57 1.45 4 1.93 1.43-.48 2.77-1.13 4-1.93z" fill="#f0d0b4"/><path d="m44 19v5.35c0 6.04-3.09 11.54-8 14.72-1.23.8-2.57 1.45-4 1.93-1.43-.48-2.77-1.13-4-1.93-1.84-1.19-3.42-2.71-4.69-4.46-2.1-2.92-3.31-6.49-3.31-10.26v-2.06c0-2.05 1.05-3.96 2.78-5.06l3.33-2.12.02-.02c2.1 1.58 4.61 2.59 7.31 2.85z" fill="#f0d0b4"/><path d="m48 33.3c0-4.56 0-10.76 0-16.45 0-8.2-6.65-14.85-14.88-14.85h-.26c-3.75 0-7.35 1.49-10.01 4.15l-1.85 1.85c-3.02 1.21-5 4.13-5 7.39v17.9c0 2.05-.58 4.02-1.62 5.71-1.04 1.68-2.54 3.08-4.38 4 0 0 1.82 3.18 5.15 5.26.04-.02.07-.03.11-.05l7.89-3.22v-.01l2.36-.96c.62-.26 1.16-.66 1.56-1.16.59-.7.93-1.6.93-2.55v-1.24c-1.84-1.19-3.42-2.71-4.69-4.46-2.1-2.92-3.31-6.49-3.31-10.26v-2.06c0-2.05 1.05-3.96 2.78-5.06l3.33-2.12.02-.02c2.1 1.58 4.61 2.59 7.31 2.85l10.56 1.06v5.35c0 6.04-3.09 11.54-8 14.72v1.24c0 .95.34 1.85.93 2.55.4.5.94.9 1.56 1.16l2.36.96v.01l7.89 3.22c.03.01.07.03.1.05 1.67-1.03 2.95-2.34 3.82-3.39.88-1.07 1.34-1.87 1.34-1.87-3.68-1.84-6-5.59-6-9.7z" fill="#b27946"/><path d="m16 62h-10c0-6.01 3.61-11.43 9.15-13.74.04-.02.07-.03.11-.05l7.89-3.22c-.1.33-.15.66-.15 1.01 0 2.21 2.01 4 4.5 4 .97 0 1.88-.27 2.61-.75v.01l-2.11 12.74z" fill="#4fc1e9"/><path d="m48.84 48.26c2.76 1.15 5.04 3.06 6.63 5.44 1.61 2.4 2.53 5.28 2.53 8.3h-10-12l-2.11-12.74v-.01c.73.48 1.64.75 2.61.75 2.49 0 4.5-1.79 4.5-4 0-.35-.05-.68-.15-1.01l7.89 3.22c.03.01.07.03.1.05z" fill="#4fc1e9"/><path d="m33.89 49.26 2.11 12.74h-8l2.11-12.74v-.01c.85-.53 1.48-1.33 1.75-2.25v-.01c.05.01.09.01.14.01s.09 0 .14-.01v.01c.27.92.9 1.72 1.75 2.25z" fill="#ff826e"/><path d="m40.85 44.99c.1.33.15.66.15 1.01 0 2.21-2.01 4-4.5 4-.97 0-1.88-.27-2.61-.75-.85-.53-1.48-1.33-1.75-2.25v-.01c2.4-.06 4.38-1.81 4.78-4.12l.01-.01c.4.5.94.9 1.56 1.16l2.36.96z" fill="#ccd1d9"/><path d="m27.08 42.87c.4 2.31 2.38 4.06 4.78 4.12v.01c-.27.92-.9 1.72-1.75 2.25-.73.48-1.64.75-2.61.75-2.49 0-4.5-1.79-4.5-4 0-.35.05-.68.15-1.01v-.01l2.36-.96c.62-.26 1.16-.66 1.56-1.16z" fill="#ccd1d9"/><circle cx="26" cy="24" r="1"/><circle cx="38" cy="24" r="1"/><path d="m32 34c-1.103 0-2-.897-2-2h-2c0 2.206 1.794 4 4 4s4-1.794 4-4h-2c0 1.103-.897 2-2 2z"/><path d="m50.795 48.1c2.597-2.063 4.005-4.484 4.073-4.604l.524-.918-.945-.473c-3.36-1.679-5.447-5.054-5.447-8.806l.001-16.448c0-4.235-1.65-8.216-4.648-11.209-2.999-2.994-6.988-4.642-11.234-4.642h-.26c-4.046 0-7.851 1.577-10.712 4.439l-1.713 1.713c-3.308 1.412-5.434 4.621-5.434 8.233v17.907c0 3.757-2.087 7.134-5.447 8.813l-.945.473.524.918c.068.119 1.475 2.54 4.073 4.604-5.035 2.775-8.205 8.044-8.205 13.9v1h54v-1c0-5.856-3.17-11.126-8.205-13.9zm-17.937-45.1h.26c3.712 0 7.2 1.441 9.821 4.057 2.619 2.615 4.062 6.093 4.062 9.793l-.001 16.449c0 4.137 2.108 7.893 5.571 10.047-.689.955-2.003 2.538-3.837 3.784l-9.871-4.039c-1.132-.463-1.863-1.553-1.863-2.777v-.718c4.921-3.401 8-9.039 8-15.246v-6.256l-11.46-1.146c-5.141-.513-9.54-3.903-11.378-8.696l1.399-1.399c2.483-2.485 5.785-3.853 9.297-3.853zm7.142 43c0 1.654-1.57 3-3.5 3-1.157 0-2.196-.487-2.838-1.256 1.643-.473 2.998-1.621 3.734-3.164.225.137.462.26.711.362l1.85.757c.012.101.043.199.043.301zm-15.957-.301 1.85-.757c.25-.102.486-.225.711-.362.736 1.543 2.091 2.691 3.734 3.164-.642.769-1.681 1.256-2.838 1.256-1.93 0-3.5-1.346-3.5-3 0-.102.031-.2.043-.301zm7.957-5.757c-6.594-2.345-11-8.568-11-15.591v-2.057c0-1.719.866-3.296 2.316-4.218l2.783-1.771c2.117 1.44 4.594 2.37 7.241 2.634l9.66.966v4.446c0 7.024-4.406 13.247-11 15.591zm-.316 2.007.316.105.316-.105c.947-.316 1.855-.702 2.719-1.152.08.832.352 1.616.799 2.289-.479 1.706-2.024 2.914-3.834 2.914-1.811 0-3.356-1.208-3.835-2.914.448-.673.72-1.457.799-2.289.864.449 1.773.836 2.72 1.152zm.316 6.916c.276.357.604.674.968.952l1.853 11.183h-5.642l1.853-11.183c.364-.278.692-.594.968-.952zm-20.571-5.519c3.463-2.155 5.571-5.913 5.571-10.054v-17.907c0-2.514 1.327-4.775 3.452-6.007.906 2.175 2.275 4.085 3.979 5.617l-2.188 1.392c-2.031 1.293-3.243 3.501-3.243 5.907v2.057c0 6.206 3.079 11.845 8 15.246v.718c0 1.224-.731 2.313-1.864 2.776l-9.871 4.038c-1.833-1.246-3.147-2.828-3.836-3.783zm4.205 5.793 6.397-2.617c.288 2.513 2.63 4.478 5.469 4.478.461 0 .905-.068 1.337-.167l-1.685 10.167h-10.152v-6h-2v6h-7.965c.373-5.255 3.665-9.842 8.599-11.861zm33.366 11.861v-6h-2v6h-10.152l-1.685-10.167c.432.099.876.167 1.337.167 2.839 0 5.181-1.965 5.469-4.477l6.397 2.617c4.934 2.018 8.226 6.605 8.599 11.86z"/><path d="m42.848 16.165 1.973-.33c-.123-.735-.312-1.465-.561-2.168l-1.886.667c.21.594.37 1.21.474 1.831z"/><path d="m41.529 12.5 1.731-1c-2.319-4.01-6.633-6.5-11.26-6.5v2c3.915 0 7.566 2.108 9.529 5.5z"/></svg>