<svg id="Layer_35" enable-background="new 0 0 64 64" height="512" viewBox="0 0 64 64" width="512" xmlns="http://www.w3.org/2000/svg"><g fill="#656d78"><path d="m58 62h-11s2-1 2-3c0-1.75-1-2.25-1-4 0-1.52 1.5-2.85 1.9-4.31l.7.28c4.47 1.83 7.4 6.19 7.4 11.03z"/><path d="m17 62h-11c0-4.84 2.93-9.2 7.4-11.03l.7-.28c.4 1.46 1.9 2.79 1.9 4.31 0 1.75-1 2.25-1 4 0 2 2 3 2 3z"/><path d="m32 50 7.89 4.93c-.42 1.76-2 3.07-3.89 3.07h-8c-1.89 0-3.47-1.31-3.89-3.07z"/></g><path d="m39.89 54.93c.07-.3.11-.61.11-.93v-7.36l4 1.63v13.73h-24v-13.73l4-1.63v7.36c0 .32.04.63.11.93.42 1.76 2 3.07 3.89 3.07h8c1.89 0 3.47-1.31 3.89-3.07z" fill="#e6e9ed"/><path d="m40 46.64v7.36c0 .32-.04.63-.11.93l-7.89-4.93 5.36-4.69c.33.3.71.54 1.13.71z" fill="#aab2bd"/><path d="m32 50-7.89 4.93c-.07-.3-.11-.61-.11-.93v-7.36l1.51-.62c.42-.17.8-.41 1.13-.71z" fill="#aab2bd"/><path d="m14.38 48.02c.28-.68.62-1.02.62-1.02l5 1v.27 13.73h-3s-2-1-2-3c0-1.75 1-2.25 1-4 0-1.52-1.5-2.85-1.9-4.31-.06-.23-.1-.46-.1-.69 0-.84.17-1.5.38-1.98z" fill="#e6e9ed"/><path d="m50 50c0 .23-.04.46-.1.69-.4 1.46-1.9 2.79-1.9 4.31 0 1.75 1 2.25 1 4 0 2-2 3-2 3h-3v-13.73-.27l5-1s.34.34.61 1.01c.21.48.39 1.15.39 1.99z" fill="#e6e9ed"/><path d="m49.06 41.47c-.69-1.37-1.06-2.89-1.06-4.47v-13c0-4.9-2.2-9.28-5.66-12.21-2.79-2.37-6.4-3.79-10.34-3.79s-7.55 1.42-10.34 3.79c-.34.28-.67.58-.98.89-2.89 2.9-4.68 6.9-4.68 11.32v13c0 3.15-1.48 6.11-4 8 0 0 .22.38.64.96.4.56.98 1.29 1.74 2.06.28-.68.62-1.02.62-1.02l5 1v.27l4-1.63 1.51-.62c.42-.17.8-.41 1.13-.71.85-.74 1.36-1.83 1.36-3v-1.24c-1.84-1.19-3.42-2.71-4.69-4.46-2.1-2.92-3.31-6.49-3.31-10.26 0-.99.34-1.91.91-2.64.57-.74 1.39-1.29 2.34-1.52l6.81-1.7c1.14-.29 1.94-1.31 1.94-2.49 0 1.18.8 2.2 1.94 2.49l6.81 1.7c1.91.47 3.25 2.19 3.25 4.16 0 6.04-3.09 11.54-8 14.72v1.24c0 1.17.51 2.26 1.36 3 .33.3.71.54 1.13.71l1.51.62 4 1.63v-.27l5-1s.34.34.61 1.01l.03-.01c1.54-1.57 2.36-3 2.36-3-1.26-.94-2.26-2.16-2.94-3.53z" fill="#b27946"/><path d="m47 9-4.66 2.79c-2.79-2.37-6.4-3.79-10.34-3.79s-7.55 1.42-10.34 3.79l-4.66-2.79c0-2.21 1.79-4 4-4 .5 0 .97.1 1.41.27.65-1.34 2-2.27 3.59-2.27.99 0 1.88.37 2.58.96.69-1.17 1.96-1.96 3.42-1.96s2.73.79 3.42 1.96c.7-.59 1.59-.96 2.58-.96 1.59 0 2.94.93 3.59 2.27.44-.17.91-.27 1.41-.27 2.21 0 4 1.79 4 4z" fill="#e6e9ed"/><path d="m37.36 45.31-5.36 4.69-5.36-4.69c.85-.74 1.36-1.83 1.36-3v-1.24c1.23.8 2.57 1.45 4 1.93 1.43-.48 2.77-1.13 4-1.93v1.24c0 1.17.51 2.26 1.36 3z" fill="#f0d0b4"/><path d="m40.75 22.19c1.91.47 3.25 2.19 3.25 4.16 0 6.04-3.09 11.54-8 14.72-1.23.8-2.57 1.45-4 1.93-1.43-.48-2.77-1.13-4-1.93-1.84-1.19-3.42-2.71-4.69-4.46-2.1-2.92-3.31-6.49-3.31-10.26 0-.99.34-1.91.91-2.64.57-.74 1.39-1.29 2.34-1.52l6.81-1.7c1.14-.29 1.94-1.31 1.94-2.49 0 1.18.8 2.2 1.94 2.49z" fill="#f0d0b4"/><circle cx="26" cy="26" r="1"/><circle cx="38" cy="26" r="1"/><path d="m32 36c-1.103 0-2-.897-2-2h-2c0 2.206 1.794 4 4 4s4-1.794 4-4h-2c0 1.103-.897 2-2 2z"/><path d="m50.996 50.055c.001-.018.004-.036.004-.055 0-.674-.1-1.244-.24-1.734 1.348-1.462 2.075-2.712 2.108-2.77l.438-.767-.705-.529c-2.255-1.691-3.601-4.383-3.601-7.2v-13c0-4.696-1.914-8.952-5.003-12.032l4.003-2.402v-.566c0-2.757-2.243-5-5-5-.312 0-.628.032-.943.096-.929-1.311-2.419-2.096-4.057-2.096-.817 0-1.624.21-2.348.602-.935-1.017-2.241-1.602-3.652-1.602s-2.717.585-3.652 1.602c-.724-.392-1.531-.602-2.348-.602-1.638 0-3.128.785-4.057 2.096-.315-.064-.631-.096-.943-.096-2.757 0-5 2.243-5 5v.566l4.003 2.402c-3.088 3.08-5.003 7.336-5.003 12.032v13c0 2.817-1.346 5.509-3.601 7.2l-.705.529.438.767c.034.059.757 1.31 2.107 2.773-.139.489-.239 1.059-.239 1.731 0 .019.003.036.003.055-4.862 1.999-8.003 6.685-8.003 11.945v1h54v-1c0-5.259-3.141-9.945-8.004-11.945zm-3.41 7.351c.231.521.414.932.414 1.594 0 1.063-.893 1.752-1.276 2h-1.724v-12.181l3.561-.712c.202.373.439 1.001.439 1.893 0 .593-.414 1.265-.852 1.976-.538.874-1.148 1.865-1.148 3.024 0 1.087.312 1.787.586 2.406zm-31.586 1.594c0-.662.183-1.073.414-1.594.274-.619.586-1.319.586-2.406 0-1.159-.61-2.15-1.148-3.024-.438-.711-.852-1.383-.852-1.976 0-.894.238-1.522.438-1.893l3.562.712v12.181h-1.724c-.383-.248-1.276-.937-1.276-2zm5-10.056 2-.818v5.874c0 2.757 2.243 5 5 5h8c2.757 0 5-2.243 5-5v-5.874l2 .818v12.056h-22zm11-7.002c-6.594-2.345-11-8.568-11-15.592 0-1.513 1.025-2.826 2.493-3.193l6.809-1.702c.666-.166 1.247-.512 1.698-.979.451.467 1.032.812 1.698.979l6.809 1.702c1.468.367 2.493 1.681 2.493 3.194 0 7.023-4.406 13.247-11 15.591zm-.316 2.006.316.106.316-.105c.947-.316 1.855-.702 2.719-1.152.085.892.399 1.724.904 2.428l-3.939 3.446-3.94-3.448c.505-.704.819-1.536.904-2.428.864.451 1.773.838 2.72 1.153zm.315 7.231 6.667 4.167c-.495.976-1.498 1.654-2.666 1.654h-8c-1.168 0-2.171-.678-2.667-1.654zm7.001 2.017-5.328-3.331 3.741-3.273c.22.132.451.251.694.35l.893.366zm-12.413-6.603 3.741 3.274-5.328 3.329v-5.888l.894-.366c.243-.099.473-.217.693-.349zm20.413-22.593v13c0 3.129 1.358 6.132 3.674 8.205-.22.313-.527.717-.901 1.159-.026-.029-.054-.059-.066-.071l-.378-.379-5.676 1.136-4.789-1.959c-1.133-.463-1.864-1.553-1.864-2.777v-.718c4.921-3.401 8-9.039 8-15.246 0-2.433-1.648-4.544-4.009-5.133l-6.809-1.702c-.696-.174-1.182-.797-1.182-1.515v-8.949c7.805.518 14 7.015 14 14.949zm-28.952-15.537c.312-1.724 2.107-2.979 4.008-2.259l.855.323.398-.823c.508-1.052 1.54-1.704 2.691-1.704.888 0 1.538.395 1.928.726l.901.765.604-1.016c.552-.923 1.511-1.475 2.567-1.475s2.015.552 2.566 1.475l.604 1.016.901-.765c.391-.331 1.041-.726 1.929-.726 1.151 0 2.183.652 2.69 1.704l.398.823.855-.323c1.9-.72 3.694.535 4.008 2.259l-3.543 2.126c-2.879-2.241-6.485-3.589-10.408-3.589s-7.529 1.348-10.409 3.588zm-4.722 36.741c2.316-2.073 3.674-5.075 3.674-8.204v-13c0-7.934 6.195-14.431 14-14.949v8.949c0 .718-.486 1.341-1.183 1.516l-6.809 1.702c-2.36.589-4.009 2.7-4.009 5.133 0 6.206 3.079 11.845 8 15.246v.718c0 1.224-.731 2.313-1.864 2.776l-4.789 1.959-5.676-1.136-.378.379c-.012.012-.04.042-.066.071-.371-.441-.679-.846-.9-1.16zm.232 6.803c.184.357.392.695.59 1.018.438.71.852 1.382.852 1.975 0 .662-.183 1.073-.414 1.594-.274.619-.586 1.319-.586 2.406 0 .79.23 1.455.55 2h-7.505c.359-3.955 2.833-7.39 6.513-8.993zm35.892 8.993c.32-.545.55-1.21.55-2 0-1.087-.312-1.787-.586-2.406-.231-.521-.414-.932-.414-1.594 0-.593.414-1.265.852-1.976.198-.322.406-.661.59-1.017 3.681 1.604 6.155 5.038 6.513 8.993z"/></svg>