<svg id="Layer_35" enable-background="new 0 0 64 64" height="512" viewBox="0 0 64 64" width="512" xmlns="http://www.w3.org/2000/svg"><path d="m48 62h-32-10c0-6.05 3.66-11.5 9.26-13.79l.14-.06 6.65-2.72 2.38 2.57 4.21 4.53c.87.94 2.08 1.47 3.36 1.47s2.49-.53 3.36-1.47l4.21-4.53 2.38-2.56 6.65 2.71.14.06c2.8 1.15 5.12 3.08 6.73 5.49 1.61 2.4 2.53 5.28 2.53 8.3z" fill="#ff826e"/><path d="m39.57 48-4.21 4.53c-.87.94-2.08 1.47-3.36 1.47s-2.49-.53-3.36-1.47l-4.21-4.53z" fill="#e6e9ed"/><path d="m22.05 45.43-6.65 2.72c-.6-.79-1.4-1.34-1.4-2.81 0-2.34 2-2.34 2-4.67s-2-2.33-2-4.66 2-2.33 2-4.67c0-2.33-2-2.33-2-4.67 0-2.33 2-2.33 2-4.67v-5.7c0-7.9 6.4-14.3 14.3-14.3 2.12 0 4.19.47 6.07 1.35 1.87.88 3.56 2.17 4.92 3.8l.71.85c1.73.29 3.23 1.18 4.3 2.44 1.06 1.26 1.7 2.88 1.7 4.64v6.92c0 2.34 2 2.34 2 4.67 0 2.34-2 2.34-2 4.67 0 2.34 2 2.34 2 4.67s-2 2.33-2 4.66 2 2.33 2 4.67c0 1.47-.8 2.02-1.4 2.81l-6.65-2.71-3.46-1.42c-1.51-.62-2.49-2.08-2.49-3.71v-1.24c4.91-3.18 8-8.68 8-14.72 0-2.95-2.4-5.35-5.35-5.35h-13.3c-1.47 0-2.81.6-3.78 1.57s-1.57 2.31-1.57 3.78c0 3.77 1.21 7.34 3.31 10.26 1.27 1.75 2.85 3.27 4.69 4.46v1.24c0 1.63-.98 3.09-2.49 3.71z" fill="#656d78"/><path d="m38.49 44.02 3.46 1.42-2.38 2.56h-15.14l-2.38-2.57 3.46-1.41c1.51-.62 2.49-2.08 2.49-3.71v-1.24c1.23.8 2.57 1.45 4 1.93 1.43-.48 2.77-1.13 4-1.93v1.24c0 1.63.98 3.09 2.49 3.71z" fill="#f0d0b4"/><path d="m38.65 19c2.95 0 5.35 2.4 5.35 5.35 0 6.04-3.09 11.54-8 14.72-1.23.8-2.57 1.45-4 1.93-1.43-.48-2.77-1.13-4-1.93-1.84-1.19-3.42-2.71-4.69-4.46-2.1-2.92-3.31-6.49-3.31-10.26 0-1.47.6-2.81 1.57-3.78s2.31-1.57 3.78-1.57z" fill="#f0d0b4"/><circle cx="26" cy="24" r="1"/><circle cx="38" cy="24" r="1"/><path d="m32 34c-1.103 0-2-.897-2-2h-2c0 2.206 1.794 4 4 4s4-1.794 4-4h-2c0 1.103-.897 2-2 2z"/><path d="m50.2 47.777c.421-.567.8-1.301.8-2.441 0-1.536-.688-2.339-1.241-2.983-.457-.533-.759-.885-.759-1.68 0-.796.302-1.148.759-1.681.553-.644 1.241-1.447 1.241-2.983s-.688-2.339-1.241-2.983c-.457-.534-.759-.887-.759-1.684 0-.798.302-1.151.76-1.685.552-.646 1.24-1.448 1.24-2.986s-.688-2.34-1.24-2.986c-.458-.534-.76-.887-.76-1.685v-6.917c0-3.888-2.695-7.192-6.461-7.998l-.483-.579c-2.915-3.499-7.2-5.506-11.755-5.506-8.437 0-15.301 6.864-15.301 15.301v5.699c0 .798-.302 1.151-.76 1.685-.552.646-1.24 1.448-1.24 2.986s.688 2.34 1.24 2.986c.458.534.76.887.76 1.685 0 .797-.302 1.15-.759 1.684-.553.644-1.241 1.447-1.241 2.983s.688 2.339 1.241 2.983c.457.532.759.885.759 1.681 0 .795-.302 1.147-.759 1.68-.553.644-1.241 1.447-1.241 2.983 0 1.14.379 1.874.8 2.441-5.383 2.677-8.8 8.137-8.8 14.223v1h54v-1c0-6.086-3.417-11.546-8.8-14.223zm-34.441-4.122c.553-.644 1.241-1.447 1.241-2.982 0-1.536-.688-2.339-1.241-2.983-.457-.533-.759-.885-.759-1.681 0-.797.302-1.148.759-1.683.553-.644 1.241-1.447 1.241-2.984 0-1.538-.688-2.34-1.24-2.986-.458-.534-.76-.887-.76-1.685s.302-1.151.76-1.685c.552-.646 1.24-1.448 1.24-2.986v-5.699c0-7.334 5.967-13.301 13.302-13.301 3.959 0 7.684 1.745 10.218 4.786l.95 1.139.366.061c2.992.499 5.164 3.063 5.164 6.097v6.917c0 1.538.688 2.34 1.24 2.986.458.534.76.887.76 1.685s-.302 1.151-.76 1.685c-.552.645-1.24 1.448-1.24 2.986 0 1.537.688 2.34 1.241 2.984.457.534.759.886.759 1.683 0 .796-.302 1.148-.759 1.681-.553.644-1.241 1.447-1.241 2.983 0 1.535.688 2.338 1.241 2.982.457.533.759.885.759 1.681 0 .761-.28 1.119-.704 1.614l-9.432-3.859c-1.132-.463-1.864-1.553-1.864-2.777v-.718c4.921-3.401 8-9.039 8-15.245 0-3.502-2.849-6.351-6.351-6.351h-13.298c-3.502 0-6.351 2.849-6.351 6.351 0 6.206 3.079 11.845 8 15.245v.718c0 1.224-.732 2.313-1.864 2.776l-9.432 3.859c-.424-.494-.704-.852-.704-1.613 0-.796.302-1.148.759-1.681zm23.376 3.345h-14.27l-1.102-1.186 2.13-.871c1.736-.711 2.894-2.308 3.071-4.146.864.45 1.772.837 2.719 1.152l.317.105.316-.105c.947-.316 1.855-.702 2.719-1.152.176 1.838 1.334 3.436 3.071 4.146l2.13.871zm-1.857 2-2.65 2.854c-.676.728-1.634 1.146-2.628 1.146s-1.952-.418-2.628-1.146l-2.65-2.854zm-5.278-9.058c-6.594-2.345-11-8.568-11-15.591 0-2.399 1.952-4.351 4.351-4.351h13.298c2.399 0 4.351 1.952 4.351 4.351 0 7.024-4.406 13.247-11 15.591zm17 21.058v-6h-2v6h-30v-6h-2v6h-7.965c.373-5.255 3.665-9.842 8.599-11.86l6.151-2.516 6.121 6.592c1.054 1.134 2.546 1.784 4.094 1.784s3.04-.65 4.094-1.785l6.121-6.592 6.151 2.516c4.934 2.019 8.226 6.605 8.599 11.86h-7.965z"/><path d="m32 7v-2c-5.066 0-9.707 2.976-11.82 7.583l1.817.834c1.789-3.898 5.715-6.417 10.003-6.417z"/><path d="m21.346 15.249-1.937-.498c-.182.706-.305 1.435-.365 2.167l1.993.165c.052-.62.156-1.237.309-1.834z"/></svg>