<svg id="Layer_35" enable-background="new 0 0 64 64" height="512" viewBox="0 0 64 64" width="512" xmlns="http://www.w3.org/2000/svg"><path d="m32 51c3.87 0 7-2.69 7-6v17h-14v-17c0 3.31 3.13 6 7 6z" fill="#ff826e"/><path d="m10.01 51.85c1.42-1.55 3.21-2.8 5.25-3.64l5.14-2.1-1.4 4.89 3 3-3 2 2 6h-15c0-3.85 1.48-7.45 4.01-10.15z" fill="#fcd770"/><path d="m53.99 51.85c.55.58 1.04 1.2 1.48 1.85 1.61 2.4 2.53 5.28 2.53 8.3h-15l2-6-3-2 3-3-1.4-4.89 5.14 2.1c2.04.84 3.83 2.09 5.25 3.64z" fill="#fcd770"/><path d="m25 45v17h-4l-2-6 3-2-3-3 1.4-4.89 4.6-1.88z" fill="#ffc729"/><path d="m39 44.23 4.6 1.88 1.4 4.89-3 3 3 2-2 6h-4v-17z" fill="#ffc729"/><path d="m32 11c0 4.42-3.58 8-8 8h-3c-.33 0-.65-.05-.94-.16l-.06.16v5.35c0 .4.01.81.05 1.2.22 3.33 1.38 6.45 3.26 9.06 1.27 1.75 2.85 3.27 4.69 4.46v1.24c0 1.63-.98 3.09-2.49 3.71l-.51.21-4.6 1.88-5.14 2.1c-2.04.84-3.83 2.09-5.25 3.64.07-3.88 2.99-4.89 2.99-7.85 0-2-1-2-1-5 0-4 4-5 4-10 0-4-2-4-2-11 0-3 1-16 18-16s18 13 18 16c0 7-2 7-2 11 0 5 4 6 4 10 0 3-1 3-1 5 0 2.96 2.92 3.97 2.99 7.85-1.42-1.55-3.21-2.8-5.25-3.64l-5.14-2.1-4.6-1.88-.51-.21c-1.51-.62-2.49-2.08-2.49-3.71v-1.24c4.58-2.97 7.58-7.95 7.95-13.52.04-.39.05-.8.05-1.2v-5.35l-.06-.16c-.29.11-.61.16-.94.16h-3c-4.42 0-8-3.58-8-8z" fill="#656d78"/><path d="m38.49 44.02.51.21v.77c0 3.31-3.13 6-7 6s-7-2.69-7-6v-.77l.51-.21c1.51-.62 2.49-2.08 2.49-3.71v-1.24c1.23.8 2.57 1.45 4 1.93 1.43-.48 2.77-1.13 4-1.93v1.24c0 1.63.98 3.09 2.49 3.71z" fill="#f0d0b4"/><path d="m43.94 18.84c-.29.11-.61.16-.94.16h-3c-4.42 0-8-3.58-8-8 0 4.42-3.58 8-8 8h-3c-.33 0-.65-.05-.94-.16l-.06.16v5.35c0 .4.01.81.05 1.2.22 3.33 1.38 6.45 3.26 9.06 1.27 1.75 2.85 3.27 4.69 4.46 1.23.8 2.57 1.45 4 1.93 1.43-.48 2.77-1.13 4-1.93 4.58-2.97 7.58-7.95 7.95-13.52.04-.39.05-.8.05-1.2v-5.35z" fill="#f0d0b4"/><path d="m26 21c2.21 0 4 1.79 4 4s-1.79 4-4 4c-2.07 0-3.77-1.57-3.98-3.59-.01-.14-.02-.27-.02-.41 0-2.21 1.79-4 4-4z" fill="#69d6f4"/><path d="m38 21c2.21 0 4 1.79 4 4 0 .14-.01.27-.02.41-.21 2.02-1.91 3.59-3.98 3.59-2.21 0-4-1.79-4-4s1.79-4 4-4z" fill="#69d6f4"/><path d="m32 36c2.206 0 4-1.794 4-4h-2c0 1.103-.897 2-2 2s-2-.897-2-2h-2c0 2.206 1.794 4 4 4z"/><path d="m54.97 51.413c-.148-2.103-1.054-3.474-1.801-4.586-.653-.973-1.169-1.739-1.169-2.827 0-.703.146-1.062.351-1.561.289-.709.649-1.591.649-3.439 0-2.215-1.03-3.624-2.025-4.986-1.016-1.389-1.975-2.702-1.975-5.014 0-1.539.321-2.39.729-3.466.566-1.499 1.271-3.365 1.271-7.534 0-2.839-.916-17-19-17s-19 14.161-19 17c0 4.169.705 6.035 1.271 7.534.408 1.076.729 1.927.729 3.466 0 2.312-.959 3.625-1.975 5.014-.995 1.362-2.025 2.771-2.025 4.986 0 1.848.36 2.73.649 3.439.205.499.351.858.351 1.561 0 1.088-.516 1.854-1.169 2.826-.747 1.113-1.653 2.483-1.801 4.586-2.546 2.85-4.03 6.582-4.03 10.588v1h54v-1c0-4.006-1.484-7.738-4.03-10.587zm-42.479-3.471c.742-1.103 1.509-2.245 1.509-3.942 0-1.096-.265-1.744-.499-2.316-.258-.632-.501-1.229-.501-2.684 0-1.562.724-2.553 1.641-3.806 1.105-1.513 2.359-3.228 2.359-6.194 0-1.904-.416-3.007-.857-4.173-.536-1.417-1.143-3.023-1.143-6.827 0-3.519 1.226-15 17-15s17 11.481 17 15c0 3.804-.607 5.41-1.143 6.827-.441 1.166-.857 2.269-.857 4.173 0 2.966 1.254 4.681 2.359 6.194.917 1.253 1.641 2.244 1.641 3.806 0 1.455-.243 2.052-.501 2.684-.234.572-.499 1.22-.499 2.316 0 1.697.767 2.839 1.509 3.942.217.323.429.643.624.975-.929-.639-1.934-1.189-3.009-1.629l-10.259-4.197c-1.134-.463-1.865-1.553-1.865-2.777v-.718c4.921-3.401 8-9.039 8-15.246v-4.907c1.19-.694 2-1.97 2-3.444 0-2.206-1.794-4-4-4h-2v2h2c1.103 0 2 .897 2 2s-.897 2-2 2h-3c-3.859 0-7-3.141-7-7v-5.999h-2v6c0 3.859-3.141 7-7 7h-3c-1.103 0-2-.897-2-2s.897-2 2-2h2v-2h-2c-2.206 0-4 1.794-4 4 0 1.474.81 2.75 2 3.444v4.907c0 6.206 3.079 11.845 8 15.246v.718c0 1.224-.731 2.313-1.864 2.776l-10.259 4.197c-1.076.44-2.08.991-3.009 1.629.194-.332.406-.651.623-.975zm31.386 2.767-3.446 3.446 3.379 2.253-1.53 4.592h-2.28v-15.283l2.774 1.135zm-23.687 5.699 3.379-2.253-3.446-3.446 1.103-3.857 2.774-1.135v15.283h-2.28zm3.81-36.408c3.484 0 6.505-1.993 8-4.895 1.495 2.902 4.516 4.895 8 4.895h3v4.351c0 .157-.014.312-.018.468-.098-2.671-2.287-4.819-4.982-4.819-2.414 0-4.434 1.721-4.899 4h-2.202c-.465-2.279-2.484-4-4.899-4-2.695 0-4.884 2.148-4.982 4.819-.004-.157-.018-.311-.018-.468v-4.351zm17 5c0 1.654-1.346 3-3 3s-3-1.346-3-3 1.346-3 3-3 3 1.346 3 3zm-12 0c0 1.654-1.346 3-3 3s-3-1.346-3-3 1.346-3 3-3 3 1.346 3 3zm-3 5c2.414 0 4.434-1.721 4.899-4h2.202c.465 2.279 2.484 4 4.899 4 2.617 0 4.746-2.028 4.959-4.591-.419 6.584-4.699 12.307-10.959 14.533-6.26-2.226-10.54-7.95-10.959-14.533.213 2.563 2.342 4.591 4.959 4.591zm2.964 10.796c.864.45 1.772.837 2.719 1.152l.317.106.316-.105c.947-.316 1.855-.702 2.719-1.152.172 1.799 1.289 3.361 2.964 4.093v.11c0 2.757-2.691 5-6 5s-6-2.243-6-5v-.111c1.676-.732 2.793-2.294 2.965-4.093zm-2.964 8.818c1.467 1.459 3.61 2.386 6 2.386s4.533-.927 6-2.386v11.386h-12zm-10.365-.474 3.235-1.324-.993 3.475 2.554 2.554-2.621 1.747 1.803 5.408h-12.578c.373-5.255 3.665-9.842 8.6-11.86zm28.752 11.86 1.803-5.408-2.621-1.747 2.554-2.554-.993-3.475 3.235 1.324c4.935 2.019 8.227 6.605 8.6 11.86z"/></svg>