<svg id="Layer_35" enable-background="new 0 0 64 64" height="512" viewBox="0 0 64 64" width="512" xmlns="http://www.w3.org/2000/svg"><path d="m48 58 1 4h-34l1-4h2 8 12 8z" fill="#ffc729"/><path d="m58 62h-9l-1-4h-2v-4-4-2.91l2.74 1.12c.07.03.14.06.2.09 2.71 1.15 4.96 3.05 6.53 5.4 1.61 2.4 2.53 5.28 2.53 8.3z" fill="#ff826e"/><path d="m18 50v4 4h-2l-1 4h-9c0-5.98 3.57-11.37 9.06-13.7.06-.03.13-.06.2-.09l2.74-1.12z" fill="#ff826e"/><path d="m32 47c2.45 0 4.56-1.47 5.49-3.57.16.13.34.25.52.35l-.01.02v6.2 4 4h-12v-4-4-6.22c.18-.11.35-.22.51-.35.93 2.1 3.04 3.57 5.49 3.57z" fill="#ff826e"/><g fill="#e6e9ed"><path d="m18 54h8v4h-8z"/><path d="m26 43.78v6.22h-8v-2.91l7.51-3.07c.17-.07.33-.15.49-.24z"/><path d="m38 50v-6.2l.01-.02c.15.09.31.17.48.24l7.51 3.07v2.91z"/><path d="m38 54h8v4h-8z"/></g><path d="m18 50h8v4h-8z" fill="#ffc729"/><path d="m38 50h8v4h-8z" fill="#ffc729"/><path d="m16.61 39.31c-2.19-.89-3.61-2.31-3.61-2.31l.97-.97c1.3-1.3 2.03-3.06 2.03-4.9v-13.13h1l2.6 3.12c.13.16.26.31.4.45v2.78c0 3.77 1.21 7.34 3.31 10.26 1.27 1.75 2.85 3.27 4.69 4.46v1.24c0 1.23-.56 2.37-1.49 3.12-.16.13-.33.24-.51.35-.16.09-.32.17-.49.24l-7.51 3.07-2.74 1.12c-.07.03-.14.06-.2.09-2.8-1.78-4.06-4.3-4.06-4.3l1.26-.42c2.07-.69 3.65-2.29 4.35-4.27z" fill="#b27946"/><path d="m48 18v13.13c0 1.84.73 3.6 2.03 4.9l.97.97s-1.42 1.42-3.61 2.3c.7 1.99 2.28 3.59 4.35 4.28l1.26.42s-1.26 2.52-4.06 4.3c-.06-.03-.13-.06-.2-.09l-2.74-1.12-7.51-3.07c-.17-.07-.33-.15-.48-.24-.18-.1-.36-.22-.52-.35-.93-.75-1.49-1.89-1.49-3.12v-1.24c4.91-3.18 8-8.68 8-14.72v-2.78c.14-.14.27-.29.4-.45l2.6-3.12z" fill="#b27946"/><path d="m37.49 43.43c-.93 2.1-3.04 3.57-5.49 3.57s-4.56-1.47-5.49-3.57c.93-.75 1.49-1.89 1.49-3.12v-1.24c1.23.8 2.57 1.45 4 1.93 1.43-.48 2.77-1.13 4-1.93v1.24c0 1.23.56 2.37 1.49 3.12z" fill="#f0d0b4"/><path d="m25.75 24h12.5c2.18 0 4.25-.88 5.75-2.43v2.78c0 6.04-3.09 11.54-8 14.72-1.23.8-2.57 1.45-4 1.93-1.43-.48-2.77-1.13-4-1.93-1.84-1.19-3.42-2.71-4.69-4.46-2.1-2.92-3.31-6.49-3.31-10.26v-2.78c1.5 1.55 3.57 2.43 5.75 2.43z" fill="#f0d0b4"/><path d="m16.51 14h30.99.5c1.1 0 2 .9 2 2 0 .55-.22 1.05-.59 1.41-.36.37-.86.59-1.41.59h-1-30-1c-1.1 0-2-.9-2-2 0-.55.22-1.05.59-1.41.36-.37.86-.59 1.41-.59z" fill="#ffeaa7"/><path d="m34.62 2.21c6.27 1.04 11.31 5.72 12.88 11.79h-30.99c1.56-6.08 6.6-10.75 12.87-11.79.17-.13.39-.21.62-.21h4c.23 0 .45.08.62.21z" fill="#fcd770"/><path d="m20 21.57c-.14-.14-.27-.29-.4-.45l-2.6-3.12h30l-2.6 3.12c-.13.16-.26.31-.4.45-1.5 1.55-3.57 2.43-5.75 2.43h-12.5c-2.18 0-4.25-.88-5.75-2.43z" fill="#fcd770"/><circle cx="26" cy="26" r="1"/><circle cx="38" cy="26" r="1"/><path d="m32 36c2.206 0 4-1.794 4-4h-2c0 1.103-.897 2-2 2s-2-.897-2-2h-2c0 2.206 1.794 4 4 4z"/><path d="m50.85 48.13c2.042-1.72 2.997-3.589 3.044-3.683l.516-1.031-2.351-.784c-1.461-.487-2.64-1.5-3.35-2.832 1.789-.909 2.918-2.015 2.997-2.093l.708-.707-1.675-1.676c-1.122-1.12-1.739-2.611-1.739-4.198v-12.31c1.161-.414 2-1.514 2-2.816 0-1.569-1.215-2.846-2.751-2.975-1.857-6.079-6.965-10.629-13.252-11.748-.294-.172-.632-.277-.997-.277h-4c-.365 0-.703.105-.997.277-6.289 1.12-11.395 5.668-13.251 11.748-1.537.129-2.752 1.406-2.752 2.975 0 1.302.839 2.402 2 2.816v12.311c0 1.586-.617 3.077-1.739 4.198l-1.675 1.675.707.707c.079.079 1.208 1.184 2.997 2.093-.71 1.332-1.889 2.345-3.35 2.832l-2.35.784.516 1.031c.047.094 1.002 1.963 3.044 3.683-5.003 2.783-8.15 8.035-8.15 13.87v1h54v-1c0-5.835-3.147-11.087-8.15-13.87zm-1.525-11.391.201.201c-1.053.801-3.096 2.06-5.526 2.06v2c1.021 0 1.975-.177 2.844-.443.936 1.875 2.56 3.299 4.582 3.973l.045.015c-.532.733-1.424 1.743-2.661 2.616l-9.946-4.07c-1.133-.463-1.864-1.553-1.864-2.777v-.718c4.921-3.401 8-9.039 8-15.245v-2.41c.054-.062.114-.116.167-.179l1.833-2.2v11.564c0 2.122.826 4.115 2.325 5.613zm-24.325 8.569v3.692h-6v-1.238zm18.63-24.827c-1.333 1.601-3.293 2.519-5.377 2.519h-12.506c-2.084 0-4.044-.918-5.377-2.519l-1.235-1.481h25.729zm-22.63 3.163c1.408.876 3.045 1.356 4.747 1.356h.253 12 .253c1.702 0 3.339-.48 4.747-1.356v.707c0 7.023-4.406 13.247-11 15.591-6.594-2.345-11-8.568-11-15.591zm10.684 18.305.316.105.316-.105c.947-.316 1.855-.702 2.719-1.153.102 1.066.53 2.051 1.218 2.828-.903 1.461-2.505 2.376-4.253 2.376s-3.351-.915-4.254-2.376c.688-.777 1.115-1.762 1.218-2.828.864.45 1.773.837 2.72 1.153zm13.316 11.051h-6v-2h6zm-18 4v-11.126c1.295 1.327 3.08 2.126 5 2.126 1.919 0 3.704-.8 5-2.126v11.126zm-8-6h6v2h-6zm0 4h6v2h-6zm28.219 4 .501 2h-31.439l.501-2zm-8.219-2v-2h6v2zm6-8h-6v-3.693l6 2.455zm-17-45.446v7.446h2v-8h4v8h2v-7.446c4.714 1.299 8.51 4.824 10.141 9.446h-28.282c1.63-4.622 5.425-8.147 10.141-9.446zm-12 11.446h32c.552 0 1 .449 1 1s-.448 1-1 1h-32c-.552 0-1-.449-1-1s.448-1 1-1zm-3.427 29.53c2.022-.674 3.647-2.098 4.583-3.973.869.266 1.823.443 2.844.443v-2c-2.415 0-4.466-1.262-5.523-2.062l.198-.198c1.499-1.499 2.325-3.492 2.325-5.614v-11.564l1.833 2.199c.053.063.113.118.167.179v2.41c0 6.206 3.079 11.845 8 15.245v.718c0 1.224-.731 2.313-1.864 2.777l-9.947 4.069c-1.237-.873-2.129-1.883-2.661-2.615zm3.062 4.609 1.365-.558v8.419h-1.781l-.999 4h-7.185c.373-5.255 3.665-9.842 8.6-11.861zm34.146 11.861-.999-4h-1.782v-8.419l1.365.559c4.935 2.018 8.227 6.605 8.6 11.86z"/></svg>