<svg id="Layer_35" enable-background="new 0 0 64 64" height="512" viewBox="0 0 64 64" width="512" xmlns="http://www.w3.org/2000/svg"><path d="m33.22 49.22 1.78 12.78h-6l1.78-12.78 1.22-1.22z" fill="#48cfad"/><path d="m58 62h-10v-14.09l.74.3c2.8 1.15 5.12 3.08 6.73 5.49 1.61 2.4 2.53 5.28 2.53 8.3z" fill="#ffeaa7"/><path d="m16 47.91v14.09h-10c0-6.05 3.66-11.5 9.26-13.79z" fill="#ffeaa7"/><path d="m48 47.91v14.09h-13l-1.78-12.78 3.78 3.78 2.56-8.54z" fill="#fcd770"/><path d="m30.78 49.22-1.78 12.78h-13v-14.09l8.44-3.45 2.56 8.54z" fill="#fcd770"/><path d="m39.56 44.46-2.56 8.54-3.78-3.78-1.22-1.22 5.36-4.69c.33.3.71.54 1.13.71z" fill="#ffc729"/><path d="m32 48-1.22 1.22-3.78 3.78-2.56-8.54 1.07-.44c.42-.17.8-.41 1.13-.71z" fill="#ffc729"/><g fill="#b27946"><path d="m48 18v3.27c-.29-.17-.64-.27-1-.27h-3-.17c-.42-2.52-1.62-4.77-3.34-6.49-2.17-2.17-5.17-3.51-8.49-3.51-5.95 0-10.88 4.32-11.83 10h-.17-3c-.36 0-.71.1-1 .27v-3.27c0-4.92 2.22-9.33 5.72-12.26 2.78-2.34 6.36-3.74 10.28-3.74 4.42 0 8.42 1.79 11.32 4.68 2.89 2.9 4.68 6.9 4.68 11.32z"/><path d="m21.72 5.74c-3.5 2.93-5.72 7.34-5.72 12.26v3.27c-.6.35-1 .99-1 1.73v4c0 1.1.9 2 2 2h3v2c0 14-13 16-13 16h-1c0-6 4-9 4-14s-4-8-4-15c0-11 8-13 13-13 .88 0 1.81.29 2.72.74z"/><path d="m43.83 21h-.01-3.35c-1.37 0-2.68-.39-3.8-1.08-1.12-.7-2.05-1.7-2.67-2.92-3.24 2.59-7.26 4-11.4 4h-2.42-.01c.95-5.68 5.88-10 11.83-10 3.32 0 6.32 1.34 8.49 3.51 1.72 1.72 2.92 3.97 3.34 6.49z"/></g><path d="m20 25v4h-3c-1.1 0-2-.9-2-2v-4c0-.74.4-1.38 1-1.73.29-.17.64-.27 1-.27h3 .17c-.11.65-.17 1.32-.17 2v1.35c0 .22 0 .44.01.65z" fill="#969faa"/><path d="m44 21h3c.36 0 .71.1 1 .27.6.35 1 .99 1 1.73v4c0 1.1-.9 2-2 2h-3.63c.41-1.49.63-3.05.63-4.65v-1.35c0-.68-.06-1.35-.17-2z" fill="#969faa"/><path d="m37.36 43.31-5.36 4.69-5.36-4.69c.85-.74 1.36-1.83 1.36-3v-1.24c1.23.8 2.57 1.45 4 1.93 1.43-.48 2.77-1.13 4-1.93v1.24c0 1.17.51 2.26 1.36 3z" fill="#f0d0b4"/><path d="m43.37 29c-.49 1.79-1.26 3.48-2.27 5-1.32 2.01-3.05 3.75-5.1 5.07-1.23.8-2.57 1.45-4 1.93-1.43-.48-2.77-1.13-4-1.93-1.84-1.19-3.42-2.71-4.69-4.46-1.21-1.68-2.13-3.58-2.68-5.61-.36-1.29-.57-2.62-.62-4-.01-.21-.01-.43-.01-.65v-1.35c0-.68.06-1.35.17-2h.01 2.42c4.14 0 8.16-1.41 11.4-4 .62 1.22 1.55 2.22 2.67 2.92 1.12.69 2.43 1.08 3.8 1.08h3.35.01c.11.65.17 1.32.17 2v1.35c0 1.6-.22 3.16-.63 4.65z" fill="#f0d0b4"/><path d="m34 32c1.1 0 2 .9 2 2 0 .55-.22 1.05-.59 1.41-.36.37-.86.59-1.41.59h-4c-1.1 0-2-.9-2-2 0-.55.22-1.05.59-1.41.36-.37.86-.59 1.41-.59z" fill="#838f9b"/><circle cx="26" cy="24" r="1"/><circle cx="38" cy="24" r="1"/><path d="m49.123 47.288-10.259-4.197c-1.132-.463-1.864-1.553-1.864-2.777v-.718c1.818-1.256 3.385-2.812 4.636-4.596h3.364c2.757 0 5-2.243 5-5v-3-4c0-.883-.391-1.67-1-2.22v-2.78c0-9.374-7.626-17-17-17-3.925 0-7.533 1.35-10.413 3.592-.918-.386-1.787-.592-2.587-.592-3.284 0-14 1.01-14 14 0 4.008 1.243 6.777 2.339 9.221.891 1.987 1.661 3.703 1.661 5.779 0 2.162-.859 3.981-1.768 5.908-1.046 2.218-2.232 4.732-2.232 8.092v1h2.077l.075-.012c.133-.021 12.828-2.137 13.785-15.386 1.387 2.793 3.47 5.202 6.063 6.994v.718c0 1.224-.732 2.313-1.864 2.776l-10.259 4.197c-6 2.456-9.877 8.231-9.877 14.713v1h54v-1c0-6.482-3.877-12.257-9.877-14.712zm-32.123 1.293 6.796-2.78 2.727 9.09 2.853-2.853-1.246 8.962h-11.13zm14.722 1.111.278-.278.278.278 1.573 11.308h-3.703zm2.901 2.345 2.853 2.853 2.727-9.09 6.797 2.781v12.419h-11.13zm3.721-6.998-1.82 6.07-3.061-3.061 3.95-3.456c.22.132.451.25.694.35zm6.656-12.039h-2.143c.505-.957.93-1.959 1.262-3h2.881c.352 0 .686-.072 1-.184v.184c0 1.654-1.346 3-3 3zm-26-8v3h-2c-.551 0-1-.449-1-1v-4c0-.551.449-1 1-1h2.051c-.026.331-.051.662-.051 1v1.351c0 .218.018.432.026.649zm28 3h-2.374c.237-1.186.374-2.404.374-3.649v-1.351c0-.338-.025-.669-.051-1h2.051c.551 0 1 .449 1 1v4c0 .551-.449 1-1 1zm0-10v2h-2.363c-1.36-5.724-6.503-10-12.637-10s-11.277 4.276-12.637 10h-2.363v-2c0-8.271 6.729-15 15-15s15 6.729 15 15zm-4.426 2h-2.101c-2.377 0-4.515-1.321-5.578-3.447l-.553-1.106-.966.773c-3.048 2.437-6.876 3.78-10.779 3.78h-1.17c1.31-4.61 5.549-8 10.574-8s9.262 3.39 10.573 8zm-35.531 25.977c.206-2.418 1.115-4.345 1.998-6.215.963-2.041 1.959-4.152 1.959-6.762 0-2.504-.892-4.493-1.836-6.598-1.064-2.371-2.164-4.822-2.164-8.402 0-10.441 7.519-12 12-12 .269 0 .56.045.865.117-3.005 3.068-4.865 7.26-4.865 11.883v2.78c-.609.549-1 1.337-1 2.22v4c0 1.654 1.346 3 3 3h2v1c0 12.19-10.333 14.664-11.957 14.977zm13.957-21.626v-1.351c0-.338.021-.67.051-1h1.546c3.973 0 7.877-1.247 11.113-3.531 1.525 2.203 4.023 3.531 6.762 3.531h2.477c.03.33.051.662.051 1v1.351c0 3.135-.883 6.107-2.441 8.649h-3.744c-.414-1.161-1.514-2-2.816-2h-4c-1.654 0-3 1.346-3 3s1.346 3 3 3h4c1.302 0 2.402-.839 2.816-2h2.304c-1.851 2.202-4.281 3.933-7.119 4.942-6.594-2.344-11-8.567-11-15.591zm14 9.649c0 .552-.449 1-1 1h-4c-.551 0-1-.448-1-1s.449-1 1-1h4c.551 0 1 .448 1 1zm-3.316 7.948.316.106.316-.105c.947-.316 1.855-.702 2.719-1.152.085.892.399 1.724.904 2.428l-3.939 3.446-3.94-3.448c.504-.704.818-1.536.904-2.428.864.451 1.773.838 2.72 1.153zm-5.097 2.645 3.95 3.456-3.061 3.061-1.82-6.07.237-.097c.243-.1.474-.218.694-.35zm-11.587 4.832v11.575h-7.965c.356-5.025 3.386-9.433 7.965-11.575zm34 11.575v-11.575c4.579 2.142 7.609 6.55 7.965 11.575z"/><path d="m39 55h6v2h-6z"/></svg>