<svg id="Layer_35" enable-background="new 0 0 64 64" height="512" viewBox="0 0 64 64" width="512" xmlns="http://www.w3.org/2000/svg"><path d="m48 18v8c0-1.1-.45-2.1-1.17-2.83-.73-.72-1.73-1.17-2.83-1.17v-1.56c0-.95-.38-1.81-1.01-2.43-.62-.63-1.48-1.01-2.43-1.01-.37 0-.74.06-1.09.18l-3.57 1.19c-1.26.42-2.58.63-3.9.63s-2.64-.21-3.9-.63l-3.57-1.19c-.35-.12-.72-.18-1.09-.18-1.9 0-3.44 1.54-3.44 3.44v1.56c-2.21 0-4 1.79-4 4v-8c0-8.84 7.16-16 16-16 4.42 0 8.42 1.79 11.32 4.68 2.89 2.9 4.68 6.9 4.68 11.32z" fill="#b27946"/><path d="m58 62h-10v-5l-2-2 2-2v-5.09l.74.3c2.8 1.15 5.12 3.08 6.73 5.49 1.61 2.4 2.53 5.28 2.53 8.3z" fill="#aab2bd"/><path d="m42 45.45v16.55h-7l-1.78-12.78 3.78 3.78 3.98-7.96z" fill="#ffeaa7"/><path d="m23.02 45.04 3.98 7.96 3.78-3.78-1.78 12.78h-7v-16.55z" fill="#ffeaa7"/><path d="m18 55-2 2v5h-10c0-6.05 3.66-11.5 9.26-13.79l.74-.3v5.09z" fill="#aab2bd"/><path d="m22 45.45v16.55h-6v-5l2-2-2-2v-5.09z" fill="#e6e9ed"/><path d="m48 57v5h-6v-16.55l6 2.46v5.09l-2 2z" fill="#e6e9ed"/><path d="m33.22 49.22 1.78 12.78h-6l1.78-12.78 1.22-1.22z" fill="#75b1f2"/><path d="m40.98 45.04-3.98 7.96-3.78-3.78-1.22-1.22 5.7-4.43c.24.19.51.33.79.45z" fill="#ffc729"/><path d="m32 48-1.22 1.22-3.78 3.78-3.98-7.96 2.49-1.02c.28-.12.55-.26.79-.45z" fill="#ffc729"/><g fill="#f0d0b4"><path d="m37.7 43.57-5.7 4.43-5.7-4.43c1.06-.73 1.7-1.94 1.7-3.26v-1.24c1.23.8 2.57 1.45 4 1.93 1.43-.48 2.77-1.13 4-1.93v1.24c0 1.32.64 2.53 1.7 3.26z"/><path d="m46.83 23.17c.72.73 1.17 1.73 1.17 2.83 0 2.21-1.79 4-4 4h-.94c.61-1.79.94-3.69.94-5.65v-2.35c1.1 0 2.1.45 2.83 1.17z"/><path d="m44 22v2.35c0 1.96-.33 3.86-.94 5.65-1.26 3.72-3.74 6.92-7.06 9.07-1.23.8-2.57 1.45-4 1.93-1.43-.48-2.77-1.13-4-1.93-1.84-1.19-3.42-2.71-4.69-4.46-1.01-1.4-1.81-2.96-2.37-4.61-.61-1.79-.94-3.69-.94-5.65v-2.35-1.56c0-1.9 1.54-3.44 3.44-3.44.37 0 .74.06 1.09.18l3.57 1.19c1.26.42 2.58.63 3.9.63s2.64-.21 3.9-.63l3.57-1.19c.35-.12.72-.18 1.09-.18.95 0 1.81.38 2.43 1.01.63.62 1.01 1.48 1.01 2.43z"/><path d="m20.94 30h-.94c-1.1 0-2.1-.45-2.83-1.17-.72-.73-1.17-1.73-1.17-2.83 0-2.21 1.79-4 4-4v2.35c0 1.96.33 3.86.94 5.65z"/></g><circle cx="38" cy="23" r="1"/><circle cx="26" cy="23" r="1"/><path d="m36 32h-2c0 1.103-.897 2-2 2s-2-.897-2-2h-2c0 2.206 1.794 4 4 4s4-1.794 4-4z"/><path d="m49.123 47.289-10.259-4.198c-1.133-.463-1.864-1.553-1.864-2.777v-.718c3.077-2.126 5.427-5.126 6.759-8.597h.241c2.757 0 5-2.243 5-5v-8c0-9.374-7.626-17-17-17s-17 7.627-17 17.001v8c0 2.757 2.243 5 5 5h.241c1.332 3.471 3.682 6.47 6.759 8.597v.718c0 1.224-.731 2.313-1.864 2.776l-10.259 4.197c-6 2.455-9.877 8.23-9.877 14.712v1h54v-1c0-6.482-3.877-12.257-9.877-14.711zm-2.123 10.125v3.586h-4v-14.056l4 1.636v4.005l-2.414 2.415zm-30-4.828v-4.006l4-1.636v14.056h-4v-3.586l2.414-2.414zm6-5.35 3.726 7.452 2.651-2.65-1.247 8.962h-5.13zm8.722 2.457.278-.279.278.278 1.574 11.308h-3.703zm2.901 2.345 2.651 2.65 3.726-7.452v13.764h-5.13zm4.981-6.483-2.878 5.757-3.218-3.218 4.265-3.318c.111.055.217.119.333.166zm4.81-16.597c.379-1.482.586-3.025.586-4.607v-1.167c1.161.414 2 1.514 2 2.816 0 1.512-1.129 2.754-2.586 2.958zm-12.414-25.958c8.271 0 15 6.729 15 15v4.026c-.584-.442-1.257-.773-2-.924v-.66c0-2.45-1.992-4.442-4.441-4.442-.479 0-.951.077-1.405.228l-3.573 1.191c-2.312.771-4.85.771-7.162 0l-3.573-1.191c-.453-.151-.926-.228-1.405-.228-2.449 0-4.441 1.992-4.441 4.441v.66c-.743.152-1.416.482-2 .924v-4.025c0-8.271 6.729-15 15-15zm-15 23c0-1.302.839-2.402 2-2.816v1.167c0 1.582.207 3.125.586 4.607-1.457-.204-2.586-1.446-2.586-2.958zm4-1.649v-3.91c0-1.346 1.095-2.441 2.441-2.441.263 0 .522.042.772.125l3.573 1.191c2.722.907 5.706.907 8.428 0l3.573-1.191c.249-.083.508-.125.772-.125 1.346 0 2.441 1.095 2.441 2.441v3.91c0 7.023-4.406 13.247-11 15.591-6.594-2.344-11-8.567-11-15.591zm10.684 17.598.316.105.316-.105c.947-.316 1.855-.702 2.719-1.152.097 1.012.492 1.947 1.121 2.704l-4.156 3.232-4.156-3.233c.628-.757 1.023-1.692 1.121-2.704.863.45 1.772.837 2.719 1.153zm-5.791 2.993c.116-.048.222-.111.333-.166l4.265 3.318-3.218 3.218-2.878-5.757zm-10.893 4.483v3.989l1.586 1.586-1.586 1.586v4.414h-7.965c.356-5.025 3.386-9.433 7.965-11.575zm34 11.575v-4.414l-1.586-1.586 1.586-1.586v-3.989c4.579 2.141 7.609 6.55 7.965 11.575z"/><path d="m42.375 14.333 1.886-.667c-.265-.748-.601-1.477-1-2.167l-1.732 1.001c.337.584.622 1.201.846 1.833z"/><path d="m40.199 10.667 1.49-1.334c-2.464-2.753-5.996-4.333-9.689-4.333v2c3.125 0 6.114 1.336 8.199 3.667z"/></svg>