<svg id="Layer_35" enable-background="new 0 0 64 64" height="512" viewBox="0 0 64 64" width="512" xmlns="http://www.w3.org/2000/svg"><g fill="#aab2bd"><path d="m52.52 50.46c1.15.93 2.14 2.02 2.95 3.24 1.61 2.4 2.53 5.28 2.53 8.3h-8v-13.2c.9.47 1.75 1.03 2.52 1.66z"/><path d="m14 48.8v13.2h-8c0-4.55 2.07-8.77 5.49-11.55.77-.63 1.61-1.18 2.51-1.65z"/><path d="m32.13 47c.44 1.72 2.01 3 3.87 3 2.21 0 4-1.79 4-4 0-.52-.1-1.02-.28-1.48l4.28 1.75v5.73c0 1.1-.9 2-2 2h-20c-1.1 0-2-.9-2-2v-5.73l4.28-1.75c-.18.46-.28.96-.28 1.48 0 2.21 1.79 4 4 4 1.86 0 3.43-1.28 3.87-3v-.01c.04.01.09.01.13.01s.09 0 .13-.01z"/></g><path d="m50 48.8v13.2h-36v-13.2c.41-.22.83-.41 1.26-.59l4.74-1.94v5.73c0 1.1.9 2 2 2h20c1.1 0 2-.9 2-2v-5.73l4.74 1.94c.43.18.85.37 1.26.59z" fill="#fcd770"/><path d="m26.51 43.43c.91 2.06 2.96 3.52 5.36 3.56v.01c-.44 1.72-2.01 3-3.87 3-2.21 0-4-1.79-4-4 0-.52.1-1.02.28-1.48l1.23-.5c.36-.15.7-.35 1-.59z" fill="#e6e9ed"/><path d="m38.49 44.02 1.23.5c.18.46.28.96.28 1.48 0 2.21-1.79 4-4 4-1.86 0-3.43-1.28-3.87-3v-.01c2.4-.04 4.45-1.5 5.36-3.56.3.24.64.44 1 .59z" fill="#e6e9ed"/><path d="m50.25 35.63c-1.51-2.65-2.25-5.66-2.25-8.71v-5.92-3c0-8.84-7.16-16-16-16s-16 7.16-16 16v3 5.92c0 3.08-.79 6.11-2.3 8.79-1.82 3.22-2.82 6.97-2.69 10.97.04 1.29.21 2.55.48 3.77.77-.63 1.61-1.18 2.51-1.65.41-.22.83-.41 1.26-.59l4.74-1.94 4.28-1.75 1.23-.5c.36-.15.7-.35 1-.59.93-.75 1.49-1.89 1.49-3.12v-1.24c-1.84-1.19-3.42-2.71-4.69-4.46-2.1-2.92-3.31-6.49-3.31-10.26v-.52-.01c.31.12.65.18 1 .18h1c6.85 0 8.32-4.35 8.84-7.05.1-.55.59-.95 1.16-.95s1.06.4 1.16.95c.52 2.7 1.99 7.05 8.84 7.05h1c.35 0 .69-.06 1-.18v.01.52c0 6.04-3.09 11.54-8 14.72v1.24c0 1.23.56 2.37 1.49 3.12.3.24.64.44 1 .59l1.23.5 4.28 1.75 4.74 1.94c.43.18.85.37 1.26.59.9.47 1.75 1.03 2.52 1.66.31-1.44.48-2.93.48-4.46 0-3.78-1-7.31-2.75-10.37z" fill="#b27946"/><path d="m37.49 43.43c-.91 2.06-2.96 3.52-5.36 3.56-.04.01-.09.01-.13.01s-.09 0-.13-.01c-2.4-.04-4.45-1.5-5.36-3.56.93-.75 1.49-1.89 1.49-3.12v-1.24c1.23.8 2.57 1.45 4 1.93 1.43-.48 2.77-1.13 4-1.93v1.24c0 1.23.56 2.37 1.49 3.12z" fill="#f0d0b4"/><path d="m44 24.35c0 6.04-3.09 11.54-8 14.72-1.23.8-2.57 1.45-4 1.93-1.43-.48-2.77-1.13-4-1.93-1.84-1.19-3.42-2.71-4.69-4.46-2.1-2.92-3.31-6.49-3.31-10.26v-.52-.01c.31.12.65.18 1 .18h1c6.85 0 8.32-4.35 8.84-7.05.1-.55.59-.95 1.16-.95s1.06.4 1.16.95c.52 2.7 1.99 7.05 8.84 7.05h1c.35 0 .69-.06 1-.18v.01z" fill="#f0d0b4"/><path d="m41.41 12.59c.52 0 1.03.19 1.42.58s.58.9.58 1.42c.37.36.59.86.59 1.41s-.22 1.05-.59 1.41c0 .52-.19 1.03-.58 1.42s-.9.58-1.42.58c-.36.37-.86.59-1.41.59s-1.05-.22-1.41-.59c-.52 0-1.03-.19-1.42-.58s-.58-.9-.58-1.42c-.37-.36-.59-.86-.59-1.41s.22-1.05.59-1.41c0-.52.19-1.03.58-1.42s.9-.58 1.42-.58c.36-.37.86-.59 1.41-.59s1.05.22 1.41.59z" fill="#ff826e"/><circle cx="26" cy="26" r="1"/><circle cx="38" cy="26" r="1"/><path d="m32 34c-1.103 0-2-.897-2-2h-2c0 2.206 1.794 4 4 4s4-1.794 4-4h-2c0 1.103-.897 2-2 2z"/><path d="m22 13.417-1.816-.836c-.321.698-.581 1.427-.772 2.169l1.938.499c.16-.625.379-1.242.65-1.832z"/><path d="m32 7v-2c-4.164 0-8.109 2.024-10.553 5.416l1.623 1.169c2.069-2.871 5.407-4.585 8.93-4.585z"/><circle cx="40" cy="16" r="1"/><path d="m53.612 50.077c.253-1.343.388-2.711.388-4.077 0-3.812-.996-7.57-2.88-10.869-1.387-2.43-2.12-5.269-2.12-8.208v-8.923c0-9.374-7.626-17-17-17s-17 7.626-17 17v8.924c0 2.914-.751 5.782-2.171 8.295-1.971 3.489-2.945 7.462-2.817 11.49.035 1.108.181 2.231.395 3.351-3.38 2.958-5.407 7.261-5.407 11.94v1h54v-1c0-4.67-2.019-8.965-5.388-11.923zm-41.602-3.432c-.115-3.662.771-7.272 2.561-10.442 1.589-2.813 2.429-6.021 2.429-9.279v-5.924-3c0-8.271 6.729-15 15-15s15 6.729 15 15v3 5.923c0 3.287.824 6.468 2.384 9.2 1.712 2.997 2.616 6.413 2.616 9.877 0 .905-.069 1.811-.191 2.708-.839-.547-1.732-1.03-2.686-1.42l-10.259-4.198c-1.133-.462-1.864-1.552-1.864-2.776v-.718c4.896-3.383 7.965-8.982 7.996-15.151 1.192-.693 2.004-1.97 2.004-3.445 0-1.607-.948-2.992-2.334-3.626.217-.42.334-.888.334-1.374 0-.666-.215-1.298-.612-1.817-.087-.648-.382-1.248-.853-1.719-.471-.47-1.069-.765-1.718-.851-1.037-.795-2.598-.795-3.635 0-.648.086-1.247.381-1.718.852s-.766 1.07-.853 1.718c-.396.519-.611 1.151-.611 1.817s.215 1.298.612 1.817c.087.648.382 1.248.853 1.719.471.47 1.069.765 1.718.851.518.398 1.151.613 1.817.613s1.299-.215 1.817-.613c.648-.086 1.247-.381 1.718-.852.109-.109.207-.227.297-.349.694.317 1.168 1.01 1.168 1.814 0 1.103-.897 2-2 2h-1c-5.96 0-7.336-3.559-7.853-6.234-.197-1.023-1.1-1.766-2.147-1.766s-1.95.742-2.146 1.765c-.518 2.676-1.894 6.235-7.854 6.235h-1c-1.103 0-2-.897-2-2s.897-2 2-2 2 .897 2 2h2c0-2.206-1.794-4-4-4s-4 1.794-4 4c0 1.475.812 2.752 2.004 3.446.031 6.168 3.1 11.767 7.996 15.151v.718c0 1.224-.731 2.313-1.864 2.777l-10.259 4.197c-.951.389-1.841.87-2.678 1.415-.097-.691-.167-1.379-.189-2.059zm3.625 2.494 3.365-1.377v4.238c0 1.654 1.346 3 3 3h20c1.654 0 3-1.346 3-3v-4.237l3.365 1.377c.216.088.425.188.635.286v11.574h-34v-11.575c.21-.098.419-.197.635-.286zm16.365-9.197c-6.389-2.272-10.712-8.188-10.975-14.942h.975c5.508 0 8.811-2.643 9.816-7.856.033-.168.335-.167.367 0 1.006 5.213 4.309 7.856 9.817 7.856h.975c-.263 6.754-4.586 12.67-10.975 14.942zm-.316 2.007.316.105.316-.105c.947-.316 1.855-.702 2.719-1.153.102 1.066.53 2.051 1.218 2.828-.902 1.461-2.505 2.376-4.253 2.376s-3.351-.915-4.253-2.376c.688-.777 1.115-1.762 1.218-2.828.863.45 1.772.837 2.719 1.153zm7.215 3.317c.06.239.101.483.101.734 0 1.654-1.346 3-3 3-.967 0-1.841-.467-2.394-1.205 1.741-.412 3.27-1.468 4.254-2.976.083.039.16.088.247.123zm-13.005-.324c.086-.035.164-.084.247-.123.984 1.508 2.513 2.564 4.254 2.976-.554.738-1.428 1.205-2.395 1.205-1.654 0-3-1.346-3-3 0-.251.042-.495.102-.734zm-2.882 1.179c.066 2.7 2.273 4.879 4.988 4.879 1.618 0 3.078-.784 4-2.021.922 1.237 2.382 2.021 4 2.021 2.715 0 4.922-2.179 4.988-4.879l2.012.823v5.056c0 .551-.448 1-1 1h-20c-.552 0-1-.449-1-1v-5.056zm14.281-29.414c-.189-.189-.293-.44-.293-.707s.104-.518.293-.707l.293-.293v-.415c0-.267.104-.519.293-.707.188-.189.44-.293.707-.293h.415l.293-.294c.375-.377 1.037-.377 1.412 0l.293.294h.415c.267 0 .519.104.707.292.188.189.293.44.293.708v.415l.293.293c.189.189.293.44.293.707s-.104.518-.293.707l-.293.293v.415c0 .267-.104.519-.293.707-.188.189-.44.293-.707.293h-.415l-.293.294c-.375.377-1.037.377-1.412 0l-.293-.294h-.415c-.267 0-.519-.104-.707-.292-.188-.189-.293-.44-.293-.708v-.415zm-24.293 33.856v10.437h-5.965c.302-4.252 2.517-8.066 5.965-10.437zm38 10.437v-10.437c3.448 2.37 5.663 6.184 5.965 10.437z"/><path d="m17 57h2v2h-2z"/><path d="m21 57h22v2h-22z"/><path d="m45 57h2v2h-2z"/></svg>