<svg id="Layer_35" enable-background="new 0 0 64 64" height="512" viewBox="0 0 64 64" width="512" xmlns="http://www.w3.org/2000/svg"><path d="m41.04 45.06-9.04 9.94-9.04-9.94 2.55-1.04c.36-.15.7-.35 1-.59.93 2.1 3.04 3.57 5.49 3.57s4.56-1.47 5.49-3.57c.3.24.64.44 1 .59z" fill="#ccd1d9"/><g fill="#b27946"><path d="m42 45.45v10.55h-10v-1l9.04-9.94z"/><path d="m22.96 45.06 9.04 9.94v1h-10v-10.55z"/><path d="m16 56v6h-10c0-6.05 3.66-11.5 9.26-13.79l.74-.3z"/><path d="m58 62h-10v-6-8.09l.74.3c2.8 1.15 5.12 3.08 6.73 5.49 1.61 2.4 2.53 5.28 2.53 8.3z"/></g><path d="m48 56v6h-32v-6h6 10 10z" fill="#ff826e"/><path d="m48 47.91v8.09h-6v-10.55z" fill="#fc6e51"/><path d="m22 45.45v10.55h-6v-8.09z" fill="#fc6e51"/><path d="m41 14h-4-10-4-6.5c1.46-5.65 5.92-10.09 11.58-11.51v.01l1.42 5.56c.3 1.14 1.32 1.94 2.5 1.94s2.2-.8 2.5-1.94l1.42-5.56v-.01c2.2.55 4.23 1.56 5.96 2.92 2.72 2.14 4.73 5.14 5.62 8.59z" fill="#fcd770"/><path d="m35.92 2.49v.01l-1.42 5.56c-.3 1.14-1.32 1.94-2.5 1.94s-2.2-.8-2.5-1.94l-1.42-5.56v-.01c1.26-.32 2.57-.49 3.92-.49s2.66.17 3.92.49z" fill="#ffc729"/><path d="m50 15v2c0 .55-.45 1-1 1h-1-4-24-4-1c-.55 0-1-.45-1-1v-2c0-.55.45-1 1-1h1.5 6.5 4 10 4 6.5 1.5c.55 0 1 .45 1 1z" fill="#ffc729"/><path d="m20 22c-2.21 0-4 1.79-4 4v-8h4z" fill="#656d78"/><path d="m48 18v8c0-1.1-.45-2.1-1.17-2.83-.73-.72-1.73-1.17-2.83-1.17v-4z" fill="#656d78"/><path d="m46.83 23.17c.72.73 1.17 1.73 1.17 2.83 0 2.21-1.79 4-4 4h-.94c.61-1.79.94-3.69.94-5.65v-2.35c1.1 0 2.1.45 2.83 1.17z" fill="#f0d0b4"/><path d="m36 40.31c0 1.23.56 2.37 1.49 3.12-.93 2.1-3.04 3.57-5.49 3.57s-4.56-1.47-5.49-3.57c.93-.75 1.49-1.89 1.49-3.12v-1.24c1.23.8 2.57 1.45 4 1.93 1.43-.48 2.77-1.13 4-1.93z" fill="#f0d0b4"/><path d="m44 22v2.35c0 1.96-.33 3.86-.94 5.65-1.26 3.72-3.74 6.92-7.06 9.07-1.23.8-2.57 1.45-4 1.93-1.43-.48-2.77-1.13-4-1.93-1.84-1.19-3.42-2.71-4.69-4.46-1.01-1.4-1.81-2.96-2.37-4.61-.61-1.79-.94-3.69-.94-5.65v-2.35-4h24z" fill="#f0d0b4"/><path d="m20.94 30h-.94c-1.1 0-2.1-.45-2.83-1.17-.72-.73-1.17-1.73-1.17-2.83 0-2.21 1.79-4 4-4v2.35c0 1.96.33 3.86.94 5.65z" fill="#f0d0b4"/><circle cx="38" cy="23" r="1"/><circle cx="26" cy="23" r="1"/><path d="m36 32h-2c0 1.103-.897 2-2 2s-2-.897-2-2h-2c0 2.206 1.794 4 4 4s4-1.794 4-4z"/><path d="m49.123 47.288-10.259-4.197c-1.132-.463-1.864-1.553-1.864-2.777v-.718c3.077-2.126 5.427-5.126 6.759-8.596h.241c2.757 0 5-2.243 5-5v-7c1.103 0 2-.897 2-2v-2c0-1.103-.897-2-2-2h-.763c-2.18-7.1-8.739-12-16.237-12s-14.057 4.9-16.237 12h-.763c-1.103 0-2 .897-2 2v2c0 1.103.897 2 2 2v7c0 2.757 2.243 5 5 5h.241c1.332 3.471 3.682 6.47 6.759 8.596v.718c0 1.224-.732 2.313-1.864 2.776l-10.259 4.197c-6 2.456-9.877 8.231-9.877 14.713v1h10 34 10v-1c0-6.482-3.877-12.257-9.877-14.712zm-32.123 1.293 4-1.636v8.055h-4zm6-1.994 7.649 8.413h-7.649zm10.351 8.413 7.649-8.413v8.413zm9.649-8.056 4 1.636v6.42h-4zm1.414-17.986c.379-1.482.586-3.025.586-4.607v-1.167c1.161.414 2 1.514 2 2.816 0 1.512-1.129 2.754-2.586 2.958zm2.586-6.932c-.584-.442-1.257-.773-2-.924v-2.102h2zm-12.307-18.778-1.167 4.566c-.178.699-.805 1.186-1.526 1.186s-1.348-.487-1.526-1.185l-1.167-4.566c.877-.16 1.776-.249 2.693-.249s1.816.089 2.693.248zm-7.325.492 1.168 4.57c.404 1.584 1.829 2.69 3.464 2.69s3.06-1.106 3.464-2.69l1.168-4.57c4.382 1.421 7.945 4.804 9.514 9.26h-4.146v-2h-2v2h-2v-2h-2v2h-8v-2h-2v2h-2v-2h-2v2h-4.146c1.569-4.456 5.132-7.839 9.514-9.26zm-12.368 11.26h34l.001 2h-34.001zm4 4v2.101c-.743.152-1.416.482-2 .924v-3.025zm-2 7c0-1.302.839-2.402 2-2.816v1.167c0 1.582.207 3.125.586 4.607-1.457-.204-2.586-1.446-2.586-2.958zm4-1.649v-5.351h22v5.351c0 7.023-4.406 13.247-11 15.591-6.594-2.344-11-8.567-11-15.591zm10.684 17.597.316.106.316-.105c.947-.316 1.855-.702 2.719-1.152.102 1.066.53 2.051 1.217 2.828-.901 1.46-2.504 2.375-4.252 2.375s-3.351-.915-4.253-2.376c.688-.777 1.115-1.762 1.217-2.828.864.45 1.773.837 2.72 1.152zm-5.79 2.994c.086-.035.163-.083.246-.123 1.279 1.96 3.472 3.181 5.86 3.181s4.581-1.221 5.86-3.181c.083.04.161.088.247.123l1.228.503-7.335 8.069-7.335-8.069zm-18.859 16.058c.356-5.025 3.386-9.433 7.965-11.575v11.575zm9.965 0v-4h30v4zm32 0v-11.575c4.579 2.142 7.609 6.55 7.965 11.575z"/></svg>