<svg id="Layer_35" enable-background="new 0 0 64 64" height="512" viewBox="0 0 64 64" width="512" xmlns="http://www.w3.org/2000/svg"><path d="m48 18v24c0 1.96-.7 3.75-1.87 5.14l-3.96-1.62-2.92-1.19-.76-.31c-1.51-.62-2.49-2.08-2.49-3.71v-1.24c1.84-1.19 3.42-2.71 4.69-4.46 2.1-2.92 3.31-6.49 3.31-10.26v-4.35c-2.64 0-5.26-.28-7.82-.82-2.57-.55-5.08-1.36-7.49-2.43l-1.69-.75-.89.26c-3.62 1.03-6.11 4.33-6.11 8.09 0 3.77 1.21 7.34 3.31 10.26 1.27 1.75 2.85 3.27 4.69 4.46v1.24c0 1.63-.98 3.09-2.49 3.71l-.76.31-2.92 1.19-3.96 1.62c-1.17-1.39-1.87-3.18-1.87-5.14v-24c0-8.84 7.16-16 16-16 4.42 0 8.42 1.79 11.32 4.68 2.89 2.9 4.68 6.9 4.68 11.32z" fill="#656d78"/><path d="m29.71 50.94-2.71 4.06-5.17-9.48 2.92-1.19 2 2.67z" fill="#ffc729"/><path d="m42.17 45.52-5.17 9.48-2.71-4.06 2.96-3.94 2-2.67z" fill="#ffc729"/><path d="m48 62h-16v-8l2.29-3.06 2.71 4.06 5.17-9.48 3.96 1.62 2.61 1.07c2.8 1.15 5.12 3.08 6.73 5.49 1.61 2.4 2.53 5.28 2.53 8.3z" fill="#fcd770"/><path d="m16 62h-10c0-6.05 3.66-11.5 9.26-13.79l2.61-1.07 3.96-1.62 5.17 9.48 2.71-4.06 2.29 3.06v8z" fill="#fcd770"/><path d="m37.25 47-2.96 3.94-2.29 3.06-2.29-3.06-2.96-3.94z" fill="#e6e9ed"/><path d="m39.25 44.33-2 2.67h-10.5l-2-2.67.76-.31c1.51-.62 2.49-2.08 2.49-3.71v-1.24c1.23.8 2.57 1.45 4 1.93 1.43-.48 2.77-1.13 4-1.93v1.24c0 1.63.98 3.09 2.49 3.71z" fill="#f0d0b4"/><path d="m44 20v4.35c0 3.77-1.21 7.34-3.31 10.26-1.27 1.75-2.85 3.27-4.69 4.46-1.23.8-2.57 1.45-4 1.93-1.43-.48-2.77-1.13-4-1.93-1.84-1.19-3.42-2.71-4.69-4.46-2.1-2.92-3.31-6.49-3.31-10.26 0-3.76 2.49-7.06 6.11-8.09l.89-.26 1.69.75c2.41 1.07 4.92 1.88 7.49 2.43 2.56.54 5.18.82 7.82.82z" fill="#f0d0b4"/><circle cx="26" cy="24" r="1"/><circle cx="38" cy="24" r="1"/><path d="m32 34c-1.103 0-2-.897-2-2h-2c0 2.206 1.794 4 4 4s4-1.794 4-4h-2c0 1.103-.897 2-2 2z"/><path d="m49.123 47.289-1.453-.594c.86-1.407 1.33-3.031 1.33-4.695v-24c0-9.374-7.626-17-17-17s-17 7.626-17 17v24c0 1.664.47 3.288 1.329 4.694l-1.452.594c-6 2.455-9.877 8.23-9.877 14.712v1h54v-1c0-6.482-3.877-12.257-9.877-14.711zm-32.123-5.289v-24c0-8.271 6.729-15 15-15s15 6.729 15 15v24c0 1.406-.447 2.763-1.23 3.917l-6.907-2.826c-1.132-.463-1.863-1.553-1.863-2.777v-.718c4.921-3.401 8-9.039 8-15.246v-5.35h-1c-5.167 0-10.182-1.064-14.904-3.163l-2.021-.899-1.243.355c-4.023 1.15-6.832 4.874-6.832 9.058 0 6.206 3.079 11.845 8 15.246v.718c0 1.224-.731 2.313-1.864 2.776l-6.907 2.826c-.782-1.154-1.229-2.511-1.229-3.917zm15 10.333-3.25-4.333h6.5zm0-12.391c-6.594-2.345-11-8.568-11-15.591 0-3.295 2.213-6.229 5.381-7.134l.544-.155 1.357.603c4.674 2.078 9.621 3.194 14.717 3.323v3.364c.001 7.023-4.405 13.246-10.999 15.59zm-3.036.854c.864.45 1.772.837 2.719 1.152l.317.106.316-.105c.947-.316 1.855-.702 2.719-1.152.162 1.687 1.156 3.16 2.661 3.941l-.946 1.262h-9.5l-.947-1.262c1.505-.782 2.499-2.255 2.661-3.942zm-4.552 4.752 4.07 5.427-1.396 2.094-3.842-7.043zm15.176 0 1.167.478-3.842 7.043-1.396-2.093zm-23.954 3.591 5.748-2.351 5.533 10.143 2.84-4.259 1.245 1.661v6.667h-14v-6h-2v6h-7.965c.373-5.255 3.665-9.842 8.599-11.861zm33.366 11.861v-6h-2v6h-14v-6.667l1.246-1.661 2.84 4.259 5.532-10.143 5.748 2.352c4.934 2.018 8.226 6.605 8.599 11.86z"/><path d="m42.962 17.083 1.993-.165c-.061-.732-.184-1.461-.365-2.167l-1.937.498c.154.597.258 1.214.309 1.834z"/><path d="m42.003 13.417 1.817-.834c-2.113-4.607-6.754-7.583-11.82-7.583v2c4.288 0 8.214 2.519 10.003 6.417z"/></svg>