<svg id="Layer_35" enable-background="new 0 0 64 64" height="512" viewBox="0 0 64 64" width="512" xmlns="http://www.w3.org/2000/svg"><g fill="#ccd1d9"><path d="m48.74 48.21c2.8 1.15 5.12 3.08 6.73 5.49 1.61 2.4 2.53 5.28 2.53 8.3h-14c2.21 0 4-3.79 4-6 0-.85-.27-1.64-.73-2.29 1.02-.48 1.73-1.51 1.73-2.71 0-1.66-1.34-3-3-3 .5 0 .97-.12 1.38-.34z"/><path d="m32 47c0 2.21 2.01 4 4.5 4 .97 0 1.86-.27 2.59-.73-.06.23-.09.48-.09.73 0 1.2.71 2.23 1.73 2.71-.46.65-.73 1.44-.73 2.29 0 2.21 1.79 6 4 6h-24c2.21 0 4-3.79 4-6 0-.85-.27-1.64-.73-2.29 1.02-.48 1.73-1.51 1.73-2.71 0-.25-.03-.5-.09-.73.73.46 1.63.73 2.59.73 2.49 0 4.5-1.79 4.5-4z"/><path d="m15.26 48.21 1.35-.55c.41.22.89.34 1.39.34-1.66 0-3 1.34-3 3 0 1.2.71 2.23 1.73 2.71-.46.65-.73 1.44-.73 2.29 0 2.21 1.79 6 4 6h-14c0-6.05 3.66-11.5 9.26-13.79z"/></g><path d="m38.49 44.02.6.24c-.06.23-.09.48-.09.74 0 1.66 1.34 3 3 3-1.41 0-2.59.96-2.91 2.27-.73.46-1.62.73-2.59.73-2.49 0-4.5-1.79-4.5-4 2.45 0 4.56-1.47 5.49-3.57.3.24.64.44 1 .59z" fill="#48cfad"/><path d="m26.51 43.43c.93 2.1 3.04 3.57 5.49 3.57 0 2.21-2.01 4-4.5 4-.96 0-1.86-.27-2.59-.73-.32-1.31-1.5-2.27-2.91-2.27 1.66 0 3-1.34 3-3 0-.25-.03-.5-.09-.73l.6-.25c.36-.15.7-.35 1-.59z" fill="#48cfad"/><path d="m44 17c0 2.21-1.79 4-4 4-1.56 0-2.9-.9-3.56-2.2-.82 1.3-2.49 2.2-4.44 2.2s-3.62-.9-4.44-2.2c-.66 1.3-2 2.2-3.56 2.2-2.21 0-4-1.79-4-4v7.35c0 3.77 1.21 7.34 3.31 10.26l1.56 1.87-.01.01-.02.66c-.21 1.81-.63 3.59-1.25 5.31.44.28.81.67 1.32 1.81.06.23.09.48.09.73 0 1.66-1.34 3-3 3 1.41 0 2.59.96 2.91 2.27.06.23.09.48.09.73 0 1.2-.71 2.23-1.73 2.71.46.65.73 1.44.73 2.29 0 2.21-1.79 6-4 6s-4-3.79-4-6c0-.85.27-1.64.73-2.29-1.02-.48-1.73-1.51-1.73-2.71 0-1.66 1.34-3 3-3-.5 0-.98-.12-1.39-.34-.96-.5-1.61-1.5-1.61-2.66 0-.96.45-1.8 1.15-2.35-1.4-3.08-2.15-6.44-2.15-9.86v-12.79c0-9.94 8.06-18 18-18 4.97 0 9.47 2.02 12.73 5.27 3.25 3.26 5.27 7.76 5.27 12.73v12.79c0 3.42-.75 6.78-2.15 9.86.7.55 1.15 1.39 1.15 2.35 0 1.16-.66 2.17-1.62 2.66-.41.22-.88.34-1.38.34 1.66 0 3 1.34 3 3 0 1.2-.71 2.23-1.73 2.71.46.65.73 1.44.73 2.29 0 2.21-1.79 6-4 6s-4-3.79-4-6c0-.85.27-1.64.73-2.29-1.02-.48-1.73-1.51-1.73-2.71 0-.25.03-.5.09-.73.32-1.31 1.5-2.27 2.91-2.27-1.66 0-3-1.34-3-3 0-.26.03-.51.09-.74.2-.76.68-1.4 1.32-1.8-.62-1.72-1.04-3.5-1.25-5.31l-.05-.65c3.07-3.19 4.89-7.51 4.89-12.15z" fill="#fcd770"/><path d="m37.49 43.43c-.93 2.1-3.04 3.57-5.49 3.57s-4.56-1.47-5.49-3.57c.93-.75 1.49-1.89 1.49-3.12v-1.24c1.23.8 2.57 1.45 4 1.93 1.43-.48 2.77-1.13 4-1.93v1.24c0 1.23.56 2.37 1.49 3.12z" fill="#f0d0b4"/><path d="m36.44 18.8c.66 1.3 2 2.2 3.56 2.2 2.21 0 4-1.79 4-4v7.35c0 4.64-1.82 8.96-4.89 12.15-.93.97-1.97 1.83-3.11 2.57-1.23.8-2.57 1.45-4 1.93-1.43-.48-2.77-1.13-4-1.93-1.15-.74-2.19-1.61-3.13-2.59l-1.56-1.87c-2.1-2.92-3.31-6.49-3.31-10.26v-7.35c0 2.21 1.79 4 4 4 1.56 0 2.9-.9 3.56-2.2.82 1.3 2.49 2.2 4.44 2.2s3.62-.9 4.44-2.2z" fill="#f0d0b4"/><circle cx="26" cy="24" r="1"/><circle cx="38" cy="24" r="1"/><path d="m32 36c2.206 0 4-1.794 4-4h-2c0 1.103-.897 2-2 2s-2-.897-2-2h-2c0 2.206 1.794 4 4 4z"/><path d="m49.236 47.339c.478-.659.764-1.465.764-2.339 0-.955-.342-1.861-.956-2.578 1.299-3.073 1.956-6.31 1.956-9.633v-12.789c0-10.477-8.523-19-19-19s-19 8.523-19 19v12.789c0 3.323.657 6.56 1.956 9.633-.614.717-.956 1.623-.956 2.578 0 .874.286 1.68.764 2.339-5.934 2.481-9.764 8.22-9.764 14.661v1h54v-1c0-6.441-3.83-12.18-9.764-14.661zm-34.236-27.339c0-9.374 7.626-17 17-17s17 7.626 17 17v12.789c0 3.27-.693 6.449-2.061 9.452l-.325.713.616.486c.49.386.77.955.77 1.56 0 1.103-.897 2-2 2v2c1.103 0 2 .897 2 2 0 .777-.442 1.468-1.154 1.804l-1.076.506.684.973c.357.509.546 1.103.546 1.717 0 1.975-1.609 5-3 5s-3-3.025-3-5c0-.614.189-1.208.547-1.718l.684-.973-1.076-.506c-.713-.335-1.155-1.026-1.155-1.803 0-1.103.897-2 2-2v-2c-1.103 0-2-.897-2-2 0-.688.354-1.319.945-1.689l.685-.431-.274-.759c-.594-1.644-.998-3.356-1.196-5.05l-.017-.218c3.049-3.339 4.857-7.753 4.857-12.502v-7.351h-2c0 1.654-1.346 3-3 3-1.125 0-2.146-.635-2.664-1.655l-.795-1.569-.941 1.486c-.679 1.072-2.059 1.738-3.6 1.738s-2.921-.666-3.6-1.738l-.941-1.486-.795 1.569c-.518 1.02-1.539 1.655-2.664 1.655-1.654 0-3-1.346-3-3h-2v7.351c0 4.746 1.806 9.158 4.852 12.496l-.007.185c-.202 1.733-.606 3.446-1.2 5.09l-.273.761.684.429c.59.369.944 1 .944 1.688 0 1.103-.897 2-2 2v2c1.103 0 2 .897 2 2 0 .777-.442 1.468-1.154 1.804l-1.076.506.684.973c.357.509.546 1.103.546 1.717 0 1.975-1.609 5-3 5s-3-3.025-3-5c0-.614.189-1.208.547-1.718l.684-.973-1.076-.506c-.713-.335-1.155-1.026-1.155-1.803 0-1.103.897-2 2-2v-2c-1.103 0-2-.897-2-2 0-.605.28-1.174.77-1.56l.616-.486-.325-.713c-1.368-3.003-2.061-6.182-2.061-9.452zm6 .974c.838.635 1.87 1.026 3 1.026 1.402 0 2.705-.585 3.635-1.584 1.115.998 2.684 1.584 4.365 1.584s3.25-.586 4.365-1.584c.93.999 2.233 1.584 3.635 1.584 1.13 0 2.162-.391 3-1.026v3.376c0 7.023-4.406 13.247-11 15.592-6.594-2.345-11-8.568-11-15.592zm15.5 29.026c-1.565 0-2.877-.891-3.324-2.107 1.924-.326 3.616-1.441 4.68-3.075.052.025.102.054.155.077-.001.035-.011.069-.011.105 0 1.193.525 2.267 1.357 3-.479.422-.838.964-1.072 1.569-.539.277-1.147.431-1.785.431zm-10.785-.431c-.234-.605-.594-1.148-1.073-1.569.833-.733 1.358-1.807 1.358-3 0-.036-.01-.07-.011-.105.052-.023.1-.051.151-.075 1.065 1.632 2.765 2.744 4.685 3.072-.446 1.217-1.76 2.108-3.325 2.108-.638 0-1.246-.154-1.785-.431zm1.285-9.973v.718c0 1.119-.616 2.12-1.586 2.638-.183-.302-.391-.59-.652-.837.377-1.15.669-2.333.877-3.551.435.365.89.707 1.361 1.032zm8.036 1.2c.102 1.067.531 2.053 1.219 2.83-.901 1.463-2.5 2.374-4.255 2.374-1.748 0-3.351-.915-4.254-2.376.688-.777 1.116-1.762 1.218-2.828.864.45 1.772.837 2.719 1.152l.317.106.316-.105c.947-.316 1.856-.703 2.72-1.153zm4.202 1.319c-.261.247-.469.535-.652.837-.97-.518-1.586-1.519-1.586-2.638v-.718c.469-.324.924-.666 1.359-1.03.205 1.202.499 2.39.879 3.549zm-14.238 13.885c0-.682-.139-1.349-.406-1.967.677-.58 1.14-1.374 1.318-2.248.511.14 1.044.215 1.588.215 1.86 0 3.504-.846 4.5-2.134.996 1.288 2.64 2.134 4.5 2.134.544 0 1.077-.075 1.588-.214.179.873.642 1.668 1.318 2.247-.267.618-.406 1.285-.406 1.967 0 1.374.638 3.461 1.753 5h-17.506c1.115-1.539 1.753-3.626 1.753-5zm-10.805-6.165c-.114.371-.195.757-.195 1.165 0 1.176.53 2.283 1.406 3.033-.267.618-.406 1.285-.406 1.967 0 1.374.638 3.461 1.753 5h-9.718c.335-4.724 3.034-8.901 7.16-11.165zm33.052 11.165c1.115-1.539 1.753-3.626 1.753-5 0-.682-.139-1.349-.406-1.967.876-.75 1.406-1.857 1.406-3.033 0-.408-.081-.794-.195-1.165 4.126 2.264 6.825 6.441 7.16 11.165z"/><path d="m44.147 15.358 1.867-.717c-.283-.738-.627-1.459-1.022-2.143l-1.73 1.002c.342.593.64 1.218.885 1.858z"/><path d="m41.958 11.644 1.531-1.287c-2.859-3.405-7.047-5.357-11.489-5.357v2c3.85 0 7.479 1.692 9.958 4.644z"/><path d="m31 53h2v2h-2z"/><path d="m31 57h2v2h-2z"/></svg>