<svg id="Layer_35" enable-background="new 0 0 64 64" height="512" viewBox="0 0 64 64" width="512" xmlns="http://www.w3.org/2000/svg"><path d="m58 62h-10v-12.09l2.6 1.06c2.24.91 4.08 2.46 5.38 4.39 1.29 1.92 2.02 4.22 2.02 6.64z" fill="#b27946"/><path d="m42 47.45v6.55h-20v-6.55l2.54-1.03 1.46 6.58 6-4 6 4 1.46-6.58z" fill="#b27946"/><path d="m16 49.91v12.09h-10c0-4.84 2.93-9.2 7.4-11.03z" fill="#b27946"/><path d="m38.49 46.02.97.4-1.46 6.58-6-4 4.89-4.19c.4.52.96.94 1.6 1.21z" fill="#fcd770"/><path d="m32 49-6 4-1.46-6.58.97-.4c.64-.27 1.2-.69 1.6-1.21z" fill="#fcd770"/><path d="m48 49.91v12.09h-4v-4h-10v4h-4v-4h-10v4h-4v-12.09l6-2.46v6.55h20v-6.55z" fill="#e6e9ed"/><path d="m34 58h10v4h-10z" fill="#969faa"/><path d="m20 58h10v4h-10z" fill="#969faa"/><g fill="#f0d0b4"><path d="m36 42.31c0 .93.32 1.81.89 2.5l-4.89 4.19-4.89-4.19c.57-.69.89-1.57.89-2.5v-1.24c1.23.8 2.57 1.45 4 1.93 1.43-.48 2.77-1.13 4-1.93z"/><path d="m46.83 25.17c.72.73 1.17 1.73 1.17 2.83 0 2.21-1.79 4-4 4h-.94c.61-1.79.94-3.69.94-5.65v-2.35c1.1 0 2.1.45 2.83 1.17z"/><path d="m44 24v2.35c0 1.96-.33 3.86-.94 5.65-1.26 3.72-3.74 6.92-7.06 9.07-1.23.8-2.57 1.45-4 1.93-1.43-.48-2.77-1.13-4-1.93-1.84-1.19-3.42-2.71-4.69-4.46-1.01-1.4-1.81-2.96-2.37-4.61-.61-1.79-.94-3.69-.94-5.65v-2.35-2h4 16 4z"/><path d="m20.94 32h-.94c-1.1 0-2.1-.45-2.83-1.17-.72-.73-1.17-1.73-1.17-2.83 0-2.21 1.79-4 4-4v2.35c0 1.96.33 3.86.94 5.65z"/></g><path d="m20 22v2c-2.21 0-4 1.79-4 4v-6h2z" fill="#656d78"/><path d="m46.83 25.17c-.73-.72-1.73-1.17-2.83-1.17v-2h4v6c0-1.1-.45-2.1-1.17-2.83z" fill="#656d78"/><path d="m10 18h6.5c-.33 1.28-.5 2.62-.5 4h-6c-.55 0-1.05-.22-1.41-.59-.37-.36-.59-.86-.59-1.41 0-1.1.9-2 2-2z" fill="#cf9e76"/><path d="m36 6v.12l-.08.36c-1.25-.31-2.57-.48-3.92-.48l-4 .5v-.38c0-.04 0-.08 0-.12 0-2.21 1.79-4 4-4s4 1.79 4 4z" fill="#cf9e76"/><path d="m48 22h-4-4c0-11-8-16-8-16 1.35 0 2.67.17 3.92.48 2.85.72 5.39 2.19 7.4 4.2 2.89 2.9 4.68 6.9 4.68 11.32z" fill="#e6e9ed"/><path d="m16 22c0-1.38.17-2.72.5-4 .73-2.81 2.19-5.33 4.18-7.32s4.51-3.45 7.32-4.18l4-.5s-8 5-8 16h-4-2z" fill="#e6e9ed"/><path d="m32 6s8 5 8 16h-16c0-11 8-16 8-16z" fill="#ff826e"/><circle cx="38" cy="25" r="1"/><circle cx="26" cy="25" r="1"/><path d="m36 34h-2c0 1.103-.897 2-2 2s-2-.897-2-2h-2c0 2.206 1.794 4 4 4s4-1.794 4-4z"/><path d="m28 15h8v2h-8z"/><path d="m50.975 50.045-12.11-4.954c-1.134-.463-1.865-1.553-1.865-2.777v-.718c3.077-2.126 5.427-5.126 6.759-8.596h.241c2.757 0 5-2.243 5-5v-5-1c0-7.644-5.072-14.121-12.026-16.254-.135-2.637-2.304-4.746-4.974-4.746s-4.839 2.109-4.974 4.746c-5.372 1.647-9.618 5.886-11.273 11.254h-5.753c-1.654 0-3 1.346-3 3s1.346 3 3 3h5v5c0 2.757 2.243 5 5 5h.241c1.332 3.471 3.682 6.47 6.759 8.596v.718c0 1.224-.731 2.313-1.864 2.776l-12.11 4.954c-4.876 1.995-8.026 6.688-8.026 11.956v1h10 34 10v-1c0-5.268-3.15-9.961-8.025-11.955zm-27.975-1.919.818-.335 1.158 5.209h-1.976zm9 2.076 4.197 2.798h-8.394zm9-2.076v4.874h-1.976l1.158-5.208zm-2.894-1.184.197.081-.963 4.335-3.687-2.458 3.172-2.72c.38.311.81.569 1.281.762zm6.308-15.984c.379-1.482.586-3.025.586-4.607v-1.166c1.161.414 2 1.514 2 2.816 0 1.512-1.129 2.753-2.586 2.957zm2.586-6.932c-.584-.442-1.257-.773-2-.924v-.102h2zm-.033-3.026h-6.011c-.293-6.792-3.446-11.254-5.821-13.661 6.453 1.379 11.385 6.913 11.832 13.661zm-14.967-13.776c1.65 1.24 6.571 5.628 6.956 13.776h-13.912c.385-8.148 5.306-12.536 6.956-13.776zm0-4.224c1.4 0 2.569.967 2.898 2.266-.944-.163-1.908-.266-2.898-.266s-1.954.103-2.898.266c.329-1.299 1.498-2.266 2.898-2.266zm-3.134 4.339c-2.376 2.407-5.529 6.869-5.822 13.661h-5.044-.967c.447-6.748 5.379-12.282 11.833-13.661zm-18.866 13.661c-.552 0-1-.448-1-1s.448-1 1-1h5.281c-.117.654-.191 1.322-.231 2zm8 2h1v.101c-.743.152-1.416.482-2 .924v-1.025zm-1 5c0-1.302.839-2.402 2-2.816v1.166c0 1.582.207 3.126.586 4.608-1.457-.204-2.586-1.445-2.586-2.958zm4-1.649v-3.351h22v3.351c0 7.023-4.406 13.247-11 15.592-6.594-2.345-11-8.569-11-15.592zm10.684 17.597.316.106.316-.105c.947-.316 1.855-.702 2.719-1.152.062.649.244 1.266.536 1.826l-3.571 3.06-3.572-3.061c.292-.56.473-1.177.536-1.826.864.45 1.773.837 2.72 1.152zm-4.509 2.232 3.172 2.72-3.688 2.458-.963-4.335.197-.081c.472-.193.902-.451 1.282-.762zm-20.13 14.82c.366-4.038 2.929-7.546 6.738-9.104l1.217-.497v9.601zm21.955 0h-8v-2h8zm14 0h-8v-2h8zm2 0v-4h-12v4h-2v-4h-12v4h-2v-10.419l4-1.636v6.055h22v-6.056l4 1.636v10.42zm4 0v-9.601l1.217.498c3.81 1.558 6.372 5.065 6.738 9.104h-7.955z"/></svg>