<svg id="Layer_35" enable-background="new 0 0 64 64" height="512" viewBox="0 0 64 64" width="512" xmlns="http://www.w3.org/2000/svg"><path d="m55.47 53.7c-1.61-2.41-3.93-4.34-6.73-5.49l-.14-.06-1.97-.8c-4.27 3.77-14.63 5.65-14.63 5.65s-10.36-1.88-14.63-5.65l-1.97.8-.14.06c-5.6 2.29-9.26 7.74-9.26 13.79h10 16 16 10c0-3.02-.92-5.9-2.53-8.3z" fill="#5cd6b3"/><path d="m38.49 44.02c-1.51-.62-2.49-2.08-2.49-3.71v1.29c0 1.49-.18 2.97-.54 4.4h-6.92c-.36-1.43-.54-2.91-.54-4.4v-1.29c0 1.63-.98 3.09-2.49 3.71l-8.14 3.33c4.27 3.77 14.63 5.65 14.63 5.65s10.36-1.88 14.63-5.65z" fill="#e6e9ed"/><circle cx="32" cy="57" fill="#fc6e51" r="2"/><path d="m50 45.34c0 1.47-.8 2.02-1.4 2.81l-1.97-.8-8.14-3.33c-1.51-.62-2.49-2.08-2.49-3.71v-1.24c4.91-3.18 8-8.68 8-14.72v-5.35l-3.04-.38c-3.25-.41-6.34-1.65-8.96-3.62-2.62 1.97-5.71 3.21-8.96 3.62l-3.04.38v5.35c0 3.77 1.21 7.34 3.31 10.26 1.27 1.75 2.85 3.27 4.69 4.46v1.24c0 1.63-.98 3.09-2.49 3.71l-8.14 3.33-1.97.8c-.6-.79-1.4-1.34-1.4-2.81 0-2.34 2-2.34 2-4.67s-2-2.33-2-4.66 2-2.33 2-4.67c0-2.33-2-2.33-2-4.67 0-2.33 2-2.33 2-4.67v-4c0-8.84 7.16-16 16-16 4.42 0 8.42 1.79 11.32 4.68 2.89 2.9 4.68 6.9 4.68 11.32v4c0 2.34 2 2.34 2 4.67 0 2.34-2 2.34-2 4.67 0 2.34 2 2.34 2 4.67s-2 2.33-2 4.66 2 2.33 2 4.67z" fill="#b27946"/><path d="m36 39.07v1.24 1.29c0 1.49-.18 2.97-.54 4.4h-6.92c-.36-1.43-.54-2.91-.54-4.4v-1.29-1.24c1.23.8 2.57 1.45 4 1.93 1.43-.48 2.77-1.13 4-1.93z" fill="#f0d0b4"/><path d="m44 24.35c0 6.04-3.09 11.54-8 14.72-1.23.8-2.57 1.45-4 1.93-1.43-.48-2.77-1.13-4-1.93-1.84-1.19-3.42-2.71-4.69-4.46-2.1-2.92-3.31-6.49-3.31-10.26v-5.35l3.04-.38c3.25-.41 6.34-1.65 8.96-3.62 2.62 1.97 5.71 3.21 8.96 3.62l3.04.38z" fill="#f0d0b4"/><path d="m29.87 23c.09.32.13.65.13 1 0 2.21-1.79 4-4 4s-4-1.79-4-4 1.79-4 4-4c1.86 0 3.43 1.27 3.87 3z" fill="#69d6f4"/><path d="m38 20c2.21 0 4 1.79 4 4s-1.79 4-4 4-4-1.79-4-4c0-.35.04-.68.13-1 .44-1.73 2.01-3 3.87-3z" fill="#69d6f4"/><circle cx="26" cy="24" r="1"/><circle cx="38" cy="24" r="1"/><path d="m32 36c2.206 0 4-1.794 4-4h-2c0 1.103-.897 2-2 2s-2-.897-2-2h-2c0 2.206 1.794 4 4 4z"/><path d="m50.2 47.777c.421-.567.8-1.302.8-2.441 0-1.536-.688-2.338-1.241-2.982-.457-.534-.759-.886-.759-1.681 0-.796.302-1.148.759-1.681.553-.645 1.241-1.447 1.241-2.983 0-1.537-.688-2.34-1.241-2.985-.457-.533-.759-.885-.759-1.682 0-.798.302-1.151.76-1.685.552-.646 1.24-1.448 1.24-2.986s-.688-2.34-1.24-2.986c-.458-.534-.76-.887-.76-1.685v-4c0-9.374-7.626-17-17-17s-17 7.626-17 17v4c0 .798-.302 1.151-.76 1.685-.552.646-1.24 1.448-1.24 2.986s.688 2.34 1.24 2.986c.458.534.76.887.76 1.685 0 .797-.302 1.149-.759 1.683-.553.644-1.241 1.447-1.241 2.984 0 1.536.688 2.338 1.241 2.982.457.534.759.886.759 1.682 0 .795-.302 1.147-.759 1.681-.553.644-1.241 1.446-1.241 2.982 0 1.139.379 1.873.8 2.441-5.383 2.676-8.8 8.137-8.8 14.223v1h54v-1c0-6.086-3.417-11.547-8.8-14.223zm-34.441-4.122c.553-.644 1.241-1.446 1.241-2.982s-.688-2.338-1.241-2.983c-.457-.533-.759-.885-.759-1.681 0-.797.302-1.15.759-1.683.553-.645 1.241-1.448 1.241-2.984 0-1.538-.688-2.34-1.24-2.986-.458-.534-.76-.887-.76-1.685s.302-1.151.76-1.685c.552-.646 1.24-1.448 1.24-2.986v-4c0-8.271 6.729-15 15-15s15 6.729 15 15v4c0 1.538.688 2.34 1.24 2.986.458.534.76.887.76 1.685s-.302 1.151-.76 1.685c-.552.645-1.24 1.448-1.24 2.986 0 1.537.688 2.339 1.241 2.984.457.533.759.886.759 1.683 0 .795-.302 1.147-.759 1.681-.553.644-1.241 1.447-1.241 2.983s.688 2.338 1.241 2.982c.457.533.759.886.759 1.681 0 .761-.28 1.119-.704 1.614l-9.432-3.859c-1.133-.463-1.864-1.553-1.864-2.777v-.718c4.921-3.401 8-9.039 8-15.246v-6.234l-3.915-.489c-3.073-.384-6.007-1.569-8.485-3.428l-.6-.449-.6.45c-2.478 1.858-5.412 3.043-8.485 3.428l-3.915.489v6.234c0 6.206 3.079 11.845 8 15.246v.718c0 1.224-.731 2.313-1.864 2.776l-9.432 3.859c-.424-.495-.704-.854-.704-1.614 0-.795.302-1.148.759-1.681zm16.241 14.345c-.551 0-1-.449-1-1s.449-1 1-1 1 .449 1 1-.449 1-1 1zm-4.809-13.835c.351 2.587 1.225 5.081 2.565 7.322-2.789-.671-7.363-1.978-10.364-3.886l6.501-2.659c.479-.195.914-.46 1.298-.777zm13.809-20.165c0 1.654-1.346 3-3 3s-3-1.346-3-3 1.346-3 3-3 3 1.346 3 3zm-7.576-2h-2.848c-.762-1.736-2.48-2.954-4.485-2.991 2.104-.595 4.106-1.527 5.909-2.777 1.803 1.25 3.805 2.182 5.909 2.777-2.005.037-3.723 1.255-4.485 2.991zm-7.424-1c1.654 0 3 1.346 3 3s-1.346 3-3 3-3-1.346-3-3 1.346-3 3-3zm-5 3c0 2.757 2.243 5 5 5s5-2.243 5-5h2c0 2.757 2.243 5 5 5s5-2.243 5-5c0-1.984-1.171-3.688-2.851-4.495.229.037.457.078.688.107l2.163.271v4.117.351c0 7.023-4.406 13.247-11 15.591-6.594-2.345-11-8.568-11-15.591v-.351-4.117l2.163-.271c.231-.029.459-.07.688-.107-1.68.807-2.851 2.511-2.851 4.495zm8 17.597v-.783c.854.442 1.749.824 2.684 1.135l.316.105.316-.105c.934-.311 1.83-.693 2.684-1.135v.783c0 1.148-.13 2.286-.356 3.403h-5.288c-.226-1.117-.356-2.255-.356-3.403zm5.117 5.403c-.503 1.523-1.211 2.976-2.117 4.309-.906-1.333-1.614-2.786-2.117-4.309zm2.692-2.835c.384.317.819.581 1.298.777l6.5 2.659c-2.999 1.905-7.573 3.213-10.362 3.885 1.339-2.24 2.213-4.734 2.564-7.321zm-21.175 4.974 1.563-.64c3.927 3.068 11.325 4.806 13.803 5.322v.363c-1.161.414-2 1.514-2 2.816s.839 2.402 2 2.816v1.184h-14v-6h-2v6h-7.965c.373-5.255 3.665-9.842 8.599-11.861zm33.366 11.861v-6h-2v6h-14v-1.184c1.161-.414 2-1.514 2-2.816s-.839-2.402-2-2.816v-.363c2.478-.516 9.876-2.253 13.803-5.321l1.564.64c4.934 2.018 8.226 6.605 8.599 11.86z"/><path d="m42.848 16.165 1.973-.33c-.123-.735-.312-1.465-.561-2.168l-1.886.667c.21.594.37 1.21.474 1.831z"/><path d="m41.529 12.5 1.731-1c-2.319-4.01-6.633-6.5-11.26-6.5v2c3.915 0 7.566 2.108 9.529 5.5z"/></svg>