<svg id="Layer_35" enable-background="new 0 0 64 64" height="512" viewBox="0 0 64 64" width="512" xmlns="http://www.w3.org/2000/svg"><path d="m16 57.73v4.27h-10c0-6.05 3.66-11.5 9.26-13.79l.74-.3v4.36c-.6.35-1 .99-1 1.73v2c0 .74.4 1.38 1 1.73z" fill="#e6e9ed"/><path d="m42 45.45v6.82c-.6.35-1 .99-1 1.73v2h-18v-2c0-.74-.4-1.38-1-1.73v-6.82l2.65-1.08 2.35 8.63 5-5 5 5 2.35-8.63z" fill="#e6e9ed"/><path d="m58 62h-10v-4.27c.6-.35 1-.99 1-1.73v-2c0-.74-.4-1.38-1-1.73v-4.36l.74.3c2.8 1.15 5.12 3.08 6.73 5.49 1.61 2.4 2.53 5.28 2.53 8.3z" fill="#e6e9ed"/><path d="m39.35 44.37-2.35 8.63-5-5 5.36-4.69c.33.3.71.54 1.13.71z" fill="#aab2bd"/><path d="m32 48-5 5-2.35-8.63.86-.35c.42-.17.8-.41 1.13-.71z" fill="#aab2bd"/><path d="m22 45.45v6.82c-.29-.17-.64-.27-1-.27h-4c-.36 0-.71.1-1 .27v-4.36z" fill="#b27946"/><path d="m48 57.73v4.27h-32v-4.27c.29.17.64.27 1 .27h4c1.1 0 2-.9 2-2h18c0 1.1.9 2 2 2h4c.36 0 .71-.1 1-.27z" fill="#b27946"/><path d="m48 47.91v4.36c-.29-.17-.64-.27-1-.27h-4c-.36 0-.71.1-1 .27v-6.82z" fill="#b27946"/><path d="m23 54v2c0 1.1-.9 2-2 2h-4c-.36 0-.71-.1-1-.27-.6-.35-1-.99-1-1.73v-2c0-.74.4-1.38 1-1.73.29-.17.64-.27 1-.27h4c.36 0 .71.1 1 .27.6.35 1 .99 1 1.73z" fill="#fcd770"/><path d="m49 54v2c0 .74-.4 1.38-1 1.73-.29.17-.64.27-1 .27h-4c-1.1 0-2-.9-2-2v-2c0-.74.4-1.38 1-1.73.29-.17.64-.27 1-.27h4c.36 0 .71.1 1 .27.6.35 1 .99 1 1.73z" fill="#fcd770"/><path d="m42.88 15.12.95.88h-.91c-3.24 0-6.45.68-9.42 2s-6.18 2-9.42 2h-4.08v2c-2.21 0-4 1.79-4 4v-8c0-8.84 7.16-16 16-16 1.23 0 2.44.14 3.59.4v.01c-1.26.6-2.22 1.77-2.52 3.24l-.07.35 3.12 2.88z" fill="#656d78"/><path d="m48 18v8c0-1.1-.45-2.1-1.17-2.83-.73-.72-1.73-1.17-2.83-1.17v-5-.85l2 1.85c.75-.15 1.42-.48 1.97-.92.02.3.03.61.03.92z" fill="#656d78"/><path d="m47.59 5.91c-.18.06-.38.09-.59.09-.05 0-.1 0-.15-.01-.89-.06-1.63-.72-1.81-1.58-.03-.13-.04-.27-.04-.41 0-.16.02-.31.05-.45.21-.89 1.01-1.55 1.95-1.55 1.1 0 2 .9 2 2 0 .89-.59 1.66-1.41 1.91z" fill="#ffc729"/><path d="m38.62 2.07 6.43 1.48c-.03.14-.05.29-.05.45 0 .14.01.28.04.41-2.34.58-6.25 1.88-8.92 4.47l-3.12-2.88.07-.35c.3-1.47 1.26-2.64 2.52-3.24.91-.44 1.97-.59 3.03-.34z" fill="#ffeaa7"/><path d="m47.59 5.91 1.91 6.22c.58 1.87-.1 3.81-1.53 4.95-.55.44-1.22.77-1.97.92l-2-1.85v-.15h-.17l-.95-.88.12-.12c2.66-2.66 3.55-6.63 3.85-9.01.05.01.1.01.15.01.21 0 .41-.03.59-.09z" fill="#ffeaa7"/><path d="m46.85 5.99c-.3 2.38-1.19 6.35-3.85 9.01l-.12.12-6.76-6.24c2.67-2.59 6.58-3.89 8.92-4.47.18.86.92 1.52 1.81 1.58z" fill="#ff826e"/><g fill="#f0d0b4"><path d="m37.36 43.31-5.36 4.69-5.36-4.69c.85-.74 1.36-1.83 1.36-3v-1.24c1.23.8 2.57 1.45 4 1.93 1.43-.48 2.77-1.13 4-1.93v1.24c0 1.17.51 2.26 1.36 3z"/><path d="m46.83 23.17c.72.73 1.17 1.73 1.17 2.83 0 2.21-1.79 4-4 4h-.94c.61-1.79.94-3.69.94-5.65v-2.35c1.1 0 2.1.45 2.83 1.17z"/><path d="m24.08 20c3.24 0 6.45-.68 9.42-2s6.18-2 9.42-2h.91l.17.15v.85 5 2.35c0 1.96-.33 3.86-.94 5.65-.56 1.65-1.36 3.21-2.37 4.61-1.27 1.75-2.85 3.27-4.69 4.46-1.23.8-2.57 1.45-4 1.93-1.43-.48-2.77-1.13-4-1.93-3.32-2.15-5.8-5.35-7.06-9.07-.61-1.79-.94-3.69-.94-5.65v-2.35-2z"/><path d="m20.94 30h-.94c-1.1 0-2.1-.45-2.83-1.17-.72-.73-1.17-1.73-1.17-2.83 0-2.21 1.79-4 4-4v2.35c0 1.96.33 3.86.94 5.65z"/></g><circle cx="38" cy="23" r="1"/><circle cx="26" cy="23" r="1"/><path d="m36 32h-2c0 1.103-.897 2-2 2s-2-.897-2-2h-2c0 2.206 1.794 4 4 4s4-1.794 4-4z"/><path d="m49.123 47.288-10.259-4.197c-1.133-.463-1.864-1.553-1.864-2.777v-.718c3.077-2.126 5.427-5.126 6.759-8.596h.241c2.757 0 5-2.243 5-5v-8c0-.165-.009-.327-.014-.49.355-.342.672-.727.928-1.158.81-1.36 1.008-3.007.542-4.52l-1.671-5.435c.733-.547 1.215-1.414 1.215-2.397 0-1.654-1.346-3-3-3-1.061 0-1.99.557-2.523 1.391l-5.627-1.298c-1.153-.265-2.323-.163-3.388.277-1.134-.235-2.294-.37-3.462-.37-9.374 0-17 7.626-17 17v8c0 2.757 2.243 5 5 5h.241c1.332 3.471 3.682 6.47 6.759 8.596v.718c0 1.224-.731 2.313-1.864 2.776l-10.259 4.197c-6 2.455-9.877 8.231-9.877 14.713v1h10 34 10v-1c0-6.482-3.877-12.258-9.877-14.712zm-9.123 6.712v1h-16v-1c0-.883-.391-1.67-1-2.22v-5.654l.979-.401 2.509 9.2 5.512-5.511 5.512 5.512 2.509-9.2.979.4v5.654c-.609.55-1 1.337-1 2.22zm-23-5.419 4-1.637v4.056h-4zm-1 7.419v-2c0-.552.448-1 1-1h4c.552 0 1 .448 1 1v2c0 .552-.448 1-1 1h-4c-.552 0-1-.448-1-1zm26-2c0-.552.448-1 1-1h4c.552 0 1 .448 1 1v2c0 .552-.448 1-1 1h-4c-.552 0-1-.448-1-1zm1-3v-4.055l4 1.637v2.418zm-4.844-6.037-1.668 6.112-3.025-3.025 3.95-3.456c.22.132.451.25.694.35zm7.576-38.254c-.332 1.978-1.124 4.839-2.921 6.986l-5.192-4.793c2.165-1.74 4.93-2.762 6.851-3.307.304.482.741.869 1.262 1.114zm2.463 8.619c-.444.747-1.116 1.29-1.921 1.564l-1.996-1.843c1.674-1.969 2.597-4.394 3.094-6.438l1.171 3.81c.306.987.182 2.02-.348 2.907zm-3.781 13.63c.379-1.482.586-3.025.586-4.607v-1.166c1.161.414 2 1.514 2 2.816 0 1.512-1.129 2.753-2.586 2.957zm2.586-6.932c-.584-.442-1.257-.773-2-.924v-2.664l.696.643.5-.1c.276-.055.542-.138.804-.232zm0-19.026c.552 0 1 .448 1 1s-.448 1-1 1-1-.448-1-1 .448-1 1-1zm-8.601.042 4.327.998c-2.033.677-4.542 1.79-6.584 3.499l-2.046-1.889c.227-.879.767-1.629 1.536-2.125.826-.534 1.808-.706 2.767-.483zm-6.399-.042c.41 0 .818.036 1.226.069-.553.69-.958 1.493-1.137 2.388l-.18.897 9.429 8.703c-2.848.185-5.615.861-8.244 2.029-2.858 1.27-5.892 1.914-9.019 1.914h-5.075v2.101c-.743.152-1.416.482-2 .924v-4.025c0-8.271 6.729-15 15-15zm-15 23c0-1.302.839-2.402 2-2.816v1.166c0 1.582.207 3.126.586 4.608-1.457-.204-2.586-1.445-2.586-2.958zm4-1.649v-3.351h3.075c3.408 0 6.716-.702 9.831-2.086 2.858-1.27 5.892-1.914 9.019-1.914h.075v7.351c0 7.023-4.406 13.247-11 15.592-6.594-2.345-11-8.569-11-15.592zm10.684 17.597.316.106.316-.105c.947-.316 1.855-.702 2.719-1.152.085.892.399 1.724.904 2.428l-3.939 3.446-3.94-3.448c.505-.704.819-1.536.904-2.428.864.451 1.773.838 2.72 1.153zm-5.097 2.644 3.95 3.456-3.025 3.025-1.668-6.112.049-.02c.244-.098.474-.216.694-.349zm-19.552 16.408c.357-5.025 3.386-9.432 7.965-11.574v2.355c-.609.549-1 1.337-1 2.22v2c0 .883.391 1.67 1 2.22v2.779zm9.965 0v-2h4c1.302 0 2.402-.839 2.816-2h16.369c.414 1.161 1.514 2 2.816 2h4v2zm32 0v-2.78c.609-.549 1-1.337 1-2.22v-2c0-.883-.391-1.67-1-2.22v-2.355c4.579 2.142 7.608 6.55 7.965 11.574h-7.965z"/></svg>