<svg id="Layer_35" enable-background="new 0 0 64 64" height="512" viewBox="0 0 64 64" width="512" xmlns="http://www.w3.org/2000/svg"><path d="m15.26 48.21 1.36-.55c.41.22.88.34 1.38.34-1.66 0-3 1.34-3 3 0 1.2.71 2.23 1.73 2.71-.46.65-.73 1.44-.73 2.29 0 2.21 1.79 6 4 6h-14c0-6.05 3.66-11.5 9.26-13.79z" fill="#ff826e"/><path d="m32 48v14h-12c2.21 0 4-3.79 4-6 0-.85-.27-1.64-.73-2.29 1.02-.48 1.73-1.51 1.73-2.71 0-1.66-1.34-3-3-3 1.23 0 2.28-.73 2.74-1.78l2.26 6.78z" fill="#ff826e"/><path d="m48 62h-16v-14l5 5 2.81-8.44 8.93 3.65c2.8 1.15 5.12 3.08 6.73 5.49 1.61 2.4 2.53 5.28 2.53 8.3z" fill="#ff826e"/><path d="m31 2c-4.7 0-8.94 1.9-12.02 4.98s-4.98 7.32-4.98 12.02v9 4.79c0 2.8.5 5.55 1.45 8.15.33.92.25 1.91-.16 2.79-.19.39-.29.82-.29 1.27 0 1.16.66 2.17 1.62 2.66.41.22.88.34 1.38.34-1.66 0-3 1.34-3 3 0 1.2.71 2.23 1.73 2.71-.46.65-.73 1.44-.73 2.29 0 2.21 1.79 6 4 6s4-3.79 4-6c0-.85-.27-1.64-.73-2.29 1.02-.48 1.73-1.51 1.73-2.71 0-1.66-1.34-3-3-3 1.23 0 2.28-.73 2.74-1.78.17-.37.26-.79.26-1.22 0-.25-.03-.5-.09-.73-.06-.26-.17-.51-.3-.74-.51-.9-.71-1.92-.44-2.92.31-1.13.53-2.29.67-3.46-1.55-1.45-2.78-3.2-3.61-5.15h-.23c-2.21 0-4-1.79-4-4 0-1.86 1.28-3.41 3-3.86.01-1.32.28-2.61.78-3.82.51-1.23 1.26-2.36 2.22-3.32 2.6 1.95 5.75 3 9 3h6c1.66 0 3.16.67 4.24 1.76.66.66 1.17 1.47 1.47 2.38h.29c.81.21 1.53.67 2.05 1.29 1.2-1.1 1.95-2.68 1.95-4.43v-2c0-9.39-7.61-17-17-17z" fill="#656d78"/><path d="m39.81 44.56-2.81 8.44-5-5 5.02-5.02c.4.45.9.8 1.47 1.04z" fill="#e6e9ed"/><path d="m26.98 42.98 5.02 5.02-5 5-2.26-6.78c.17-.37.26-.79.26-1.22 0-.25-.03-.5-.09-.73l.6-.25c.57-.24 1.07-.59 1.47-1.04z" fill="#e6e9ed"/><g fill="#f0d0b4"><path d="m36 40.31c0 1.01.38 1.95 1.02 2.67l-5.02 5.02-5.02-5.02c.64-.72 1.02-1.66 1.02-2.67v-.89c.77.42 1.59.78 2.44 1.06l1.56.52 1.56-.52c.85-.28 1.67-.64 2.44-1.06z"/><path d="m46.05 25.43c.59.69.95 1.59.95 2.57 0 2.21-1.79 4-4 4h-.23c.8-1.86 1.23-3.89 1.23-6l-.29-1.86h.29c.81.21 1.53.67 2.05 1.29z"/><path d="m36 39.42c-.77.42-1.59.78-2.44 1.06l-1.56.52-1.56-.52c-.85-.28-1.67-.64-2.44-1.06-1.16-.62-2.22-1.39-3.16-2.27-1.55-1.45-2.78-3.2-3.61-5.15-.8-1.86-1.23-3.89-1.23-6v-1.76c0-.03 0-.07 0-.1.01-1.32.28-2.61.78-3.82.51-1.23 1.26-2.36 2.22-3.32 2.6 1.95 5.75 3 9 3h6c1.66 0 3.16.67 4.24 1.76.66.66 1.17 1.47 1.47 2.38l.29 1.86c0 2.11-.43 4.14-1.23 6-1.34 3.14-3.71 5.77-6.77 7.42z"/><path d="m20 26c0 2.11.43 4.14 1.23 6h-.23c-2.21 0-4-1.79-4-4 0-1.86 1.28-3.41 3-3.86v.1z"/></g><circle cx="26" cy="24" r="1"/><circle cx="38" cy="24" r="1"/><path d="m32 34c-1.103 0-2-.897-2-2h-2c0 2.206 1.794 4 4 4s4-1.794 4-4h-2c0 1.103-.897 2-2 2z"/><path d="m42.077 14.386 1.846-.771c-2.189-5.234-7.261-8.615-12.923-8.615v2c4.853 0 9.201 2.899 11.077 7.386z"/><path d="m42.965 18.076 1.994-.151c-.055-.724-.168-1.449-.336-2.155l-1.945.462c.143.604.24 1.225.287 1.844z"/><path d="m49.123 47.289-10.259-4.198c-1.133-.463-1.864-1.553-1.864-2.777v-.318c2.824-1.664 5.05-4.126 6.429-7.04 2.554-.221 4.571-2.346 4.571-4.956 0-.893-.245-1.737-.669-2.473 1.066-1.258 1.669-2.863 1.669-4.527v-2c0-9.925-8.075-18-18-18s-18 8.075-18 18v13.789c0 2.897.508 5.755 1.508 8.495.234.64.189 1.358-.125 2.02-.254.533-.383 1.103-.383 1.696 0 .874.286 1.68.764 2.339-5.934 2.481-9.764 8.22-9.764 14.661v1h54v-1c0-6.483-3.877-12.257-9.877-14.711zm-11.017-2.347.463.189-2.006 6.018-3.149-3.149 3.652-3.651c.32.232.662.438 1.04.593zm-13.512 9.091c.523-.448.902-1.031 1.14-1.672l.83 2.49 4.436-4.437v10.586h-7.753c1.115-1.539 1.753-3.626 1.753-5 0-.682-.139-1.348-.406-1.967zm2.406-14.036v.318c0 1.111-.607 2.106-1.565 2.628-.271-.504-.525-1.242-.302-2.065.164-.602.304-1.213.422-1.827.46.341.946.652 1.445.946zm-1.21 6.212c.123-.384.21-.784.21-1.209 0-.036-.006-.071-.007-.107.339-.147.651-.333.941-.544l3.652 3.651-3.149 3.149zm9.924-3.337-3.714 3.714-3.714-3.714c.341-.572.573-1.208.664-1.887.382.161.771.309 1.169.442l1.881.627 1.881-.627c.398-.133.787-.281 1.169-.442.091.679.323 1.316.664 1.887zm-2.466-3.342-1.248.416-1.248-.416c-5.833-1.944-9.752-7.382-9.752-13.53v-1.757c0-2.188.755-4.26 2.143-5.919 2.61 1.731 5.721 2.676 8.857 2.676h6c2.757 0 5 2.243 5 5 0 6.148-3.919 11.586-9.752 13.53zm-13.55-8.84c-1.001-.486-1.698-1.504-1.698-2.69 0-.869.381-1.665 1-2.218v.218c0 1.621.249 3.195.698 4.69zm24.604 0c.449-1.495.698-3.069.698-4.69 0-.075-.009-.148-.011-.223.624.554 1.011 1.35 1.011 2.223 0 1.186-.697 2.204-1.698 2.69zm-29.302-11.69c0-8.822 7.178-16 16-16s16 7.178 16 16v2c0 1.095-.372 2.15-1.025 3.012-.459-.341-.977-.606-1.546-.777-1.075-2.488-3.551-4.235-6.429-4.235h-6c-3.009 0-5.992-.995-8.4-2.8l-.693-.521-.613.613c-1.928 1.928-3.059 4.436-3.253 7.129-1.82.776-3.041 2.562-3.041 4.579 0 2.61 2.017 4.735 4.571 4.957.8 1.69 1.879 3.231 3.201 4.551-.132.956-.314 1.911-.568 2.846-.324 1.192-.132 2.496.539 3.67.17.299.257.627.257.976 0 1.103-.897 2-2 2v2c1.103 0 2 .897 2 2 0 .777-.442 1.468-1.154 1.803l-1.075.506.683.973c.357.51.546 1.104.546 1.718 0 1.974-1.609 5-3 5s-3-3.026-3-5c0-.614.189-1.208.547-1.718l.683-.973-1.075-.506c-.713-.335-1.155-1.026-1.155-1.803 0-1.103.897-2 2-2h2v-2h-2c-1.103 0-2-.897-2-2 0-.292.063-.574.188-.836.548-1.151.618-2.418.198-3.567-.919-2.518-1.386-5.145-1.386-7.808zm-.805 30.834c-.114.372-.195.758-.195 1.166 0 1.176.53 2.283 1.406 3.033-.267.619-.406 1.285-.406 1.967 0 1.374.638 3.461 1.753 5h-9.718c.335-4.724 3.035-8.902 7.16-11.166zm34.805 11.166v-6h-2v6h-14v-10.586l4.437 4.437 2.987-8.961 7.941 3.25c4.935 2.018 8.227 6.605 8.6 11.86z"/><path d="m27 57h2v2h-2z"/><path d="m37 57h6v2h-6z"/></svg>