<svg id="Layer_35" enable-background="new 0 0 64 64" height="512" viewBox="0 0 64 64" width="512" xmlns="http://www.w3.org/2000/svg"><path d="m48 47.91v14.09h-32v-14.09l6-2.46v8.55c0 1.1.9 2 2 2h16c1.1 0 2-.9 2-2v-8.55z" fill="#5cd6b3"/><g fill="#fcd770"><path d="m58 62h-10v-14.09l.74.3c2.8 1.15 5.12 3.08 6.73 5.49 1.61 2.4 2.53 5.28 2.53 8.3z"/><path d="m16 47.91v14.09h-10c0-6.05 3.66-11.5 9.26-13.79z"/><path d="m42 45.45v8.55c0 1.1-.9 2-2 2h-16c-1.1 0-2-.9-2-2v-8.55l1.65-.67 3.35 9.22 5-6 5 6 3.35-9.22z"/></g><path d="m40.35 44.78-3.35 9.22-5-6 5.8-4.35c.21.15.45.27.69.37z" fill="#e6e9ed"/><path d="m32 48-5 6-3.35-9.22 1.86-.76c.24-.1.48-.22.69-.37z" fill="#e6e9ed"/><path d="m48 18v3h-4v-5s-6 2-12 2-12-2-12-2v5h-4v-3c0-8.84 7.16-16 16-16 4.42 0 8.42 1.79 11.32 4.68 2.89 2.9 4.68 6.9 4.68 11.32z" fill="#b27946"/><path d="m37.8 43.65-5.8 4.35-5.8-4.35c1.11-.73 1.8-1.98 1.8-3.34v-1.24c1.23.8 2.57 1.45 4 1.93 1.43-.48 2.77-1.13 4-1.93v1.24c0 1.36.69 2.61 1.8 3.34z" fill="#f0d0b4"/><path d="m43.37 29c-1.13 4.14-3.76 7.73-7.37 10.07-1.23.8-2.57 1.45-4 1.93-1.43-.48-2.77-1.13-4-1.93-1.84-1.19-3.42-2.71-4.69-4.46-.14-.2-.28-.4-.41-.61-1.01-1.52-1.78-3.21-2.27-5-.41-1.49-.63-3.05-.63-4.65v-3.35-5s6 2 12 2 12-2 12-2v5 3.35c0 1.6-.22 3.16-.63 4.65z" fill="#f0d0b4"/><path d="m20.63 29h-4.63c-1.1 0-2-.9-2-2v-1-3c0-1.1.9-2 2-2h4v3.35c0 1.6.22 3.16.63 4.65z" fill="#aab2bd"/><path d="m50 23v4c0 1.1-.9 2-2 2h-4.63c.41-1.49.63-3.05.63-4.65v-3.35h4c1.1 0 2 .9 2 2z" fill="#aab2bd"/><path d="m34 32c1.1 0 2 .9 2 2 0 .55-.22 1.05-.59 1.41-.36.37-.86.59-1.41.59h-4c-1.1 0-2-.9-2-2 0-.55.22-1.05.59-1.41.36-.37.86-.59 1.41-.59z" fill="#969faa"/><circle cx="38" cy="22" r="1"/><circle cx="26" cy="22" r="1"/><path d="m49.123 47.288-10.259-4.197c-1.132-.463-1.864-1.553-1.864-2.777v-.718c3.37-2.328 5.876-5.702 7.119-9.596h3.881c1.654 0 3-1.346 3-3v-4c0-1.302-.839-2.402-2-2.816v-2.184c0-9.374-7.626-17-17-17s-17 7.626-17 17v2.184c-1.161.414-2 1.514-2 2.816v3 1 3c0 2.757 2.243 5 5 5h4.364c1.251 1.784 2.819 3.341 4.636 4.596v.718c0 1.224-.732 2.313-1.864 2.776l-10.259 4.197c-6 2.456-9.877 8.231-9.877 14.713v1h10 34 10v-1c0-6.482-3.877-12.257-9.877-14.712zm-26.123-1.162.063-.026 3.237 8.9h-2.3c-.551 0-1-.448-1-1zm9 3.436 4.531 5.438h-9.063zm9-3.436v7.874c0 .552-.449 1-1 1h-2.3l3.237-8.9zm-1.916-.784-2.429 6.681-3.213-3.854 4.447-3.335c.074.035.142.078.218.109zm9.916-18.342c0 .551-.449 1-1 1h-3.374c.237-1.186.374-2.404.374-3.649v-2.351h3c.551 0 1 .449 1 1zm-17-24c8.271 0 15 6.729 15 15v2h-2v-5.386l-1.315.438c-.06.019-5.926 1.948-11.685 1.948s-11.625-1.929-11.684-1.949l-1.316-.438v5.387h-2v-2c0-8.271 6.729-15 15-15zm-17 20c0-.551.449-1 1-1h3v2.351c0 1.245.137 2.463.374 3.649h-3.374c-.551 0-1-.449-1-1v-1zm3 10c-1.654 0-3-1.346-3-3v-.184c.314.112.648.184 1 .184h3.881c.332 1.041.757 2.043 1.262 3zm6.881 2h2.304c.414 1.161 1.514 2 2.816 2h4c1.654 0 3-1.346 3-3s-1.346-3-3-3h-4c-1.302 0-2.402.839-2.816 2h-3.744c-1.558-2.542-2.441-5.514-2.441-8.649v-7.006c2.13.597 6.533 1.655 11 1.655s8.87-1.058 11-1.655v7.006c0 7.023-4.406 13.247-11 15.591-2.839-1.009-5.268-2.74-7.119-4.942zm4.119-1c0-.552.449-1 1-1h4c.551 0 1 .448 1 1s-.449 1-1 1h-4c-.551 0-1-.448-1-1zm2.684 7.948.316.106.316-.105c.947-.316 1.855-.702 2.719-1.152.1 1.049.518 2.017 1.186 2.788l-4.221 3.165-4.222-3.166c.668-.771 1.086-1.739 1.186-2.788.864.45 1.773.837 2.72 1.152zm-5.79 2.994c.076-.031.144-.074.218-.109l4.447 3.335-3.213 3.854-2.429-6.681zm-18.859 16.058c.356-5.025 3.386-9.433 7.965-11.575v11.575zm9.965 0v-12.419l4-1.636v7.055c0 1.654 1.346 3 3 3h16c1.654 0 3-1.346 3-3v-7.056l4 1.636v12.42zm32 0v-11.575c4.579 2.142 7.609 6.55 7.965 11.575z"/><path d="m43.821 12.583c-.347-.758-.771-1.487-1.261-2.167l-1.624 1.168c.415.576.773 1.192 1.066 1.833z"/><path d="m40.599 8.25c-2.375-2.096-5.429-3.25-8.599-3.25v2c2.683 0 5.267.977 7.275 2.75z"/></svg>