<svg id="Layer_35" enable-background="new 0 0 64 64" height="512" viewBox="0 0 64 64" width="512" xmlns="http://www.w3.org/2000/svg"><path d="m55.47 53.7c-1.61-2.41-3.93-4.34-6.73-5.49l-8.16-3.33-1.58 7.12-7-3-7 3-1.58-7.12-8.16 3.33c-5.6 2.29-9.26 7.74-9.26 13.79h10 20 12 10c0-3.02-.92-5.9-2.53-8.3z" fill="#ff826e"/><path d="m32 49 7 8-3 3-4-10-4 10-3-3z" fill="#ffc729"/><path d="m38.49 44.02 2.09.86-1.58 7.12-7-3 5.54-5.54c.29.23.61.42.95.56z" fill="#fcd770"/><path d="m32 49-7 3-1.58-7.12 2.09-.86c.34-.14.66-.33.95-.56z" fill="#fcd770"/><path d="m50 7.67c0 .11 0 .22-.02.33h-.01-35.94-.01c-.02-.11-.02-.22-.02-.33 0-1.58 1.09-2.94 2.63-3.29 3.88-.88 11.13-2.38 15.37-2.38s11.49 1.5 15.37 2.38c1.54.35 2.63 1.71 2.63 3.29z" fill="#ff826e"/><path d="m49.2 12-1.2 6h-4-10.2-17.8l-1.2-6z" fill="#ff826e"/><path d="m14.03 8h35.94.01c-.01.11-.02.22-.05.33l-.73 3.67h-34.4l-.73-3.67c-.03-.11-.04-.22-.05-.33z" fill="#fcd770"/><path d="m46.83 23.17c-.73-.72-1.73-1.17-2.83-1.17v-4h4v8c0-1.1-.45-2.1-1.17-2.83z" fill="#656d78"/><path d="m16 18h17.8c-3.44 2.57-7.65 4-12.02 4h-1.78c-1.1 0-2.1.45-2.83 1.17-.72.73-1.17 1.73-1.17 2.83z" fill="#656d78"/><g fill="#f0d0b4"><path d="m37.54 43.46-5.54 5.54-5.54-5.54c.96-.74 1.54-1.89 1.54-3.15v-1.24c1.23.8 2.57 1.45 4 1.93 1.43-.48 2.77-1.13 4-1.93v1.24c0 1.26.58 2.41 1.54 3.15z"/><path d="m46.83 23.17c.72.73 1.17 1.73 1.17 2.83 0 2.21-1.79 4-4 4h-.94c.61-1.79.94-3.69.94-5.65v-2.35c1.1 0 2.1.45 2.83 1.17z"/><path d="m21.78 22c4.37 0 8.58-1.43 12.02-4h10.2v4 2.35c0 1.96-.33 3.86-.94 5.65-1.26 3.72-3.74 6.92-7.06 9.07-1.23.8-2.57 1.45-4 1.93-1.43-.48-2.77-1.13-4-1.93-1.84-1.19-3.42-2.71-4.69-4.46-1.01-1.4-1.81-2.96-2.37-4.61-.61-1.79-.94-3.69-.94-5.65v-2.35z"/><path d="m20.94 30h-.94c-2.21 0-4-1.79-4-4 0-1.1.45-2.1 1.17-2.83.73-.72 1.73-1.17 2.83-1.17v2.35c0 1.96.33 3.86.94 5.65z"/></g><circle cx="38" cy="23" r="1"/><path d="m36 32h-2c0 1.103-.897 2-2 2s-2-.897-2-2h-2c0 2.206 1.794 4 4 4s4-1.794 4-4z"/><path d="m49.123 47.288-10.259-4.197c-1.132-.463-1.864-1.553-1.864-2.777v-.718c3.077-2.126 5.427-5.126 6.759-8.596h.241c2.757 0 5-2.243 5-5v-7.901l1.915-9.577c.057-.281.085-.569.085-.856 0-2.054-1.402-3.807-3.409-4.262-3.966-.897-11.266-2.404-15.591-2.404s-11.625 1.507-15.591 2.404c-2.007.455-3.409 2.208-3.409 4.262 0 .287.028.575.085.857l1.915 9.576v7.901c0 2.757 2.243 5 5 5h.241c1.332 3.471 3.682 6.47 6.759 8.596v.718c0 1.224-.732 2.313-1.864 2.776l-10.259 4.197c-6 2.456-9.877 8.231-9.877 14.713v1h54v-1c0-6.482-3.877-12.257-9.877-14.712zm-9.699-1.807-1.139 5.124-4.534-1.942 3.932-3.932c.14.073.276.151.424.211zm-7.424 7.212 3.323 8.307h-6.646zm-4.365 5.528-1.266-1.267 3.265-3.731zm6.731-4.998 3.265 3.731-1.266 1.267zm-12.586-32.223h-1.78c-1.13 0-2.162.391-3 1.026v-3.026h13.24c-2.621 1.296-5.529 2-8.46 2zm-4.96-4-.8-4h31.96l-.8 4zm-1.6-8h33.56l-.4 2h-32.76zm31.78 10v3.026c-.584-.442-1.257-.773-2-.924v-2.102zm-2.586 9.958c.379-1.482.586-3.025.586-4.607v-1.166c1.161.414 2 1.514 2 2.816 0 1.511-1.129 2.753-2.586 2.957zm-27.563-23.603c3.884-.879 11.018-2.355 15.149-2.355s11.265 1.476 15.149 2.355c.863.196 1.513.836 1.749 1.645h-33.796c.236-.809.886-1.449 1.749-1.645zm.149 20.645c0-1.302.839-2.402 2-2.816v1.166c0 1.582.207 3.126.586 4.608-1.457-.204-2.586-1.446-2.586-2.958zm4-1.649v-1.351h.78c1.097 0 2.192-.092 3.273-.264-.024.086-.053.17-.053.264 0 .552.448 1 1 1s1-.448 1-1c0-.233-.092-.438-.226-.608 2.631-.646 5.13-1.801 7.331-3.392h8.895v5.351c0 7.023-4.406 13.247-11 15.592-6.594-2.345-11-8.569-11-15.592zm10.684 17.597.316.106.316-.105c.947-.316 1.855-.702 2.719-1.152.095.995.479 1.914 1.089 2.665l-4.124 4.124-4.125-4.125c.61-.751.994-1.67 1.089-2.665.864.45 1.773.837 2.72 1.152zm-5.79 2.994c.148-.061.284-.138.423-.211l3.932 3.932-4.534 1.942-1.139-5.124zm-10.26 4.198 7.064-2.89 1.588 7.145 4.066-1.743-4.72 5.394 3.954 3.954h-10.586v-6h-2v6h-7.965c.373-5.255 3.665-9.842 8.599-11.86zm33.366 11.86v-6h-2v6h-10.586l3.955-3.954-4.72-5.394 4.066 1.743 1.588-7.145 7.064 2.89c4.934 2.019 8.226 6.605 8.599 11.86z"/></svg>