<svg id="Layer_35" enable-background="new 0 0 64 64" height="512" viewBox="0 0 64 64" width="512" xmlns="http://www.w3.org/2000/svg"><path d="m48 62h-8c1.1 0 2-.9 2-2v-8c0-1.1-.9-2-2-2h-3v-6.71-.33c.4.46.91.82 1.49 1.06l10.25 4.19c2.8 1.15 5.12 3.08 6.73 5.49 1.61 2.4 2.53 5.28 2.53 8.3z" fill="#fcd770"/><path d="m32 49 5-5.71v6.71h-5-5v-6.71z" fill="#fcd770"/><path d="m27 42.96v.33 6.71h-3c-1.1 0-2 .9-2 2v8c0 1.1.9 2 2 2h-8-10c0-6.05 3.66-11.5 9.26-13.79l10.25-4.19c.58-.24 1.09-.6 1.49-1.06z" fill="#fcd770"/><path d="m32 50c-3.31 0-6 2.69-6 6s2.69 6 6 6h-8c-1.1 0-2-.9-2-2v-8c0-1.1.9-2 2-2h3z" fill="#aab2bd"/><path d="m37 50h3c1.1 0 2 .9 2 2v8c0 1.1-.9 2-2 2h-8c3.31 0 6-2.69 6-6s-2.69-6-6-6z" fill="#aab2bd"/><path d="m32 50c3.31 0 6 2.69 6 6s-2.69 6-6 6-6-2.69-6-6 2.69-6 6-6z" fill="#69d6f4"/><circle cx="32" cy="56" fill="#4fc1e9" r="2"/><path d="m43.62 7h-6.62c-1.66 0-3 1.34-3 3v1h-4v-1c0-1.66-1.34-3-3-3h-6.62c2.92-3.08 7.05-5 11.62-5 2.29 0 4.46.48 6.43 1.34 1.97.87 3.73 2.12 5.19 3.66z" fill="#656d78"/><path d="m20 22c-2.21 0-4 1.79-4 4v-8c0-1.47.2-2.89.57-4.24.54.75 1.43 1.24 2.43 1.24h8c1.66 0 3-1.34 3-3v-1h4v1c0 1.66 1.34 3 3 3h6c-7.28 2.65-14.96 4-22.7 4h-.3z" fill="#656d78"/><path d="m48 18v8c0-1.1-.45-2.1-1.17-2.83-.73-.72-1.73-1.17-2.83-1.17v-7h1c1 0 1.89-.49 2.43-1.24.37 1.36.57 2.77.57 4.24z" fill="#656d78"/><path d="m48 10v2c0 .65-.21 1.26-.57 1.75v.01c-.54.75-1.43 1.24-2.43 1.24h-1-1-6c-1.66 0-3-1.34-3-3v-1-1c0-1.66 1.34-3 3-3h6.62 1.38c1.66 0 3 1.34 3 3z" fill="#69d6f4"/><path d="m30 11v1c0 1.66-1.34 3-3 3h-8c-1 0-1.89-.49-2.43-1.24-.36-.49-.57-1.1-.57-1.76v-2c0-1.66 1.34-3 3-3h1.38 6.62c1.66 0 3 1.34 3 3z" fill="#69d6f4"/><g fill="#f0d0b4"><path d="m37 42.96v.33l-5 5.71-5-5.71v-.33c.63-.71 1-1.65 1-2.65v-1.24c1.23.8 2.57 1.45 4 1.93 1.43-.48 2.77-1.13 4-1.93v1.24c0 1 .37 1.94 1 2.65z"/><path d="m46.83 23.17c.72.73 1.17 1.73 1.17 2.83 0 2.21-1.79 4-4 4h-.94c.61-1.79.94-3.69.94-5.65v-2.35c1.1 0 2.1.45 2.83 1.17z"/><path d="m44 22v2.35c0 1.96-.33 3.86-.94 5.65-1.26 3.72-3.74 6.92-7.06 9.07-1.23.8-2.57 1.45-4 1.93-1.43-.48-2.77-1.13-4-1.93-1.84-1.19-3.42-2.71-4.69-4.46-1.01-1.4-1.81-2.96-2.37-4.61-.61-1.79-.94-3.69-.94-5.65v-2.35-3h.3c7.74 0 15.42-1.35 22.7-4h1z"/><path d="m20.94 30h-.94c-1.1 0-2.1-.45-2.83-1.17-.72-.73-1.17-1.73-1.17-2.83 0-2.21 1.79-4 4-4v2.35c0 1.96.33 3.86.94 5.65z"/></g><path d="m32 59c1.654 0 3-1.346 3-3s-1.346-3-3-3-3 1.346-3 3 1.346 3 3 3zm0-4c.551 0 1 .448 1 1s-.449 1-1 1-1-.448-1-1 .449-1 1-1z"/><path d="m49.123 47.288-10.259-4.197c-1.132-.463-1.864-1.553-1.864-2.777v-.718c3.077-2.126 5.427-5.126 6.759-8.596h.241c2.757 0 5-2.243 5-5v-8c0-1.386-.176-2.76-.506-4.093.313-.57.506-1.213.506-1.907v-2c0-2.206-1.794-4-4-4h-.982c-3.21-3.219-7.454-5-12.018-5s-8.808 1.781-12.018 5h-.982c-2.206 0-4 1.794-4 4v2c0 .694.194 1.337.506 1.907-.33 1.335-.506 2.708-.506 4.093v8c0 2.757 2.243 5 5 5h.241c1.332 3.471 3.682 6.47 6.759 8.596v.718c0 1.224-.732 2.313-1.864 2.776l-10.259 4.197c-6 2.456-9.877 8.231-9.877 14.713v1h19 16 19v-1c0-6.482-3.877-12.257-9.877-14.712zm-12.123 8.712c0 2.757-2.243 5-5 5s-5-2.243-5-5 2.243-5 5-5 5 2.243 5 5zm-9-7v-3.054l2.671 3.054zm5.329 0 2.671-3.054v3.054zm-14.329-31v3.101c-.743.152-1.416.482-2 .924v-4.025c0-.822.075-1.639.207-2.444.542.275 1.145.444 1.793.444h8c2.206 0 4-1.794 4-4h2c0 2.037 1.536 3.704 3.508 3.95-5.288 1.355-10.717 2.05-16.213 2.05zm27.793-2.444c.132.805.207 1.621.207 2.444v4.026c-.584-.442-1.257-.773-2-.924v-5.102c.648 0 1.251-.169 1.793-.444zm-2.379 13.402c.379-1.482.586-3.025.586-4.607v-1.166c1.161.414 2 1.514 2 2.816 0 1.511-1.129 2.753-2.586 2.957zm2.586-18.958v2c0 1.103-.897 2-2 2h-2.176-5.824c-1.103 0-2-.897-2-2v-2c0-1.103.897-2 2-2h8c1.103 0 2 .897 2 2zm-15-7c3.298 0 6.404 1.061 8.98 3h-3.98c-2.206 0-4 1.794-4 4h-2c0-2.206-1.794-4-4-4h-3.979c2.575-1.939 5.681-3 8.979-3zm-15 7c0-1.103.897-2 2-2h8c1.103 0 2 .897 2 2v2c0 1.103-.897 2-2 2h-8c-1.103 0-2-.897-2-2zm0 16c0-1.302.839-2.402 2-2.816v1.166c0 1.582.207 3.126.586 4.608-1.457-.204-2.586-1.446-2.586-2.958zm4-1.649v-4.354c7.521-.077 14.916-1.399 22-3.933v8.287c0 7.023-4.406 13.247-11 15.592-6.594-2.345-11-8.569-11-15.592zm10.684 17.597.316.106.316-.105c.947-.316 1.855-.702 2.719-1.152.08.835.353 1.623.804 2.297l-3.839 4.387-3.84-4.388c.45-.674.724-1.462.804-2.297.864.45 1.773.837 2.72 1.152zm-16.05 7.192 10.26-4.197c.037-.015.07-.037.106-.053v4.11h-2c-1.654 0-3 1.346-3 3v8c0 .352.072.686.184 1h-4.184v-6h-2v6h-7.965c.373-5.255 3.665-9.842 8.599-11.86zm8.366 11.86c-.551 0-1-.448-1-1v-8c0-.552.449-1 1-1h3.111c-1.301 1.272-2.111 3.042-2.111 5s.81 3.728 2.111 5zm12.889 0c1.301-1.272 2.111-3.042 2.111-5s-.81-3.728-2.111-5h3.111c.551 0 1 .448 1 1v8c0 .552-.449 1-1 1zm12.111 0v-6h-2v6h-4.184c.112-.314.184-.648.184-1v-8c0-1.654-1.346-3-3-3h-2v-4.111c.037.016.07.038.107.053l10.259 4.197c4.934 2.019 8.226 6.605 8.599 11.86h-7.965z"/><circle cx="38" cy="23" r="1"/><circle cx="26" cy="23" r="1"/><path d="m36 32h-2c0 1.103-.897 2-2 2s-2-.897-2-2h-2c0 2.206 1.794 4 4 4s4-1.794 4-4z"/></svg>