<svg id="Layer_35" enable-background="new 0 0 64 64" height="512" viewBox="0 0 64 64" width="512" xmlns="http://www.w3.org/2000/svg"><path d="m16 62h-10c0-6.05 3.66-11.5 9.26-13.79l1.52-.62 8.73-3.57c.57-.24 1.07-.59 1.47-1.04l.02.02s1 3 3 4c0 0-.98 1.46-1.57 3.37-.25.82-.43 1.72-.43 2.63 0 3 2 5 2 9z" fill="#ff826e"/><path d="m38.49 44.02 8.73 3.57 1.52.62c2.8 1.15 5.12 3.08 6.73 5.49 1.61 2.4 2.53 5.28 2.53 8.3h-10-14c0-4 2-6 2-9 0-.91-.18-1.81-.43-2.63-.59-1.91-1.57-3.37-1.57-3.37 2-1 3-4 3-4l.02-.02c.4.45.9.8 1.47 1.04z" fill="#ff826e"/><path d="m35.57 50.37c.25.82.43 1.72.43 2.63 0 3-2 5-2 9h-4c0-4-2-6-2-9 0-.91.18-1.81.43-2.63 1.09.41 2.3.63 3.57.63 1.23 0 2.41-.21 3.48-.6z" fill="#fcd770"/><path d="m28 39.07v1.24c0 1.01-.38 1.95-1.02 2.67-.4.45-.9.8-1.47 1.04l-8.73 3.57c-1.75-2.78-2.78-6.06-2.78-9.59 0-2.21.4-4.32 1.13-6.27.62-1.66.87-3.43.87-5.2v-10.53l4 1.5v6.85c0 3.77 1.21 7.34 3.31 10.26 1.27 1.75 2.85 3.27 4.69 4.46z" fill="#b27946"/><path d="m50 38c0 3.53-1.03 6.81-2.78 9.59l-8.73-3.57c-.57-.24-1.07-.59-1.47-1.04-.64-.72-1.02-1.66-1.02-2.67v-1.24c1.84-1.19 3.42-2.71 4.69-4.46 2.1-2.92 3.31-6.49 3.31-10.26 0-2.15 0-5.58 0-6.85l4-1.5v10.53c0 1.77.25 3.54.87 5.2.73 1.95 1.13 4.06 1.13 6.27z" fill="#b27946"/><path d="m36 40.31c0 1.01.38 1.95 1.02 2.67l-.02.02s-1 3-3 4c0 0 .98 1.46 1.57 3.37l-.09.03c-1.07.39-2.25.6-3.48.6-1.27 0-2.48-.22-3.57-.63.59-1.91 1.57-3.37 1.57-3.37-2-1-3-4-3-4l-.02-.02c.64-.72 1.02-1.66 1.02-2.67v-1.24c1.23.8 2.57 1.45 4 1.93 1.43-.48 2.77-1.13 4-1.93z" fill="#f0d0b4"/><path d="m32 22 12-4.5v6.85c0 3.77-1.21 7.34-3.31 10.26-1.27 1.75-2.85 3.27-4.69 4.46-1.23.8-2.57 1.45-4 1.93-1.43-.48-2.77-1.13-4-1.93-1.84-1.19-3.42-2.71-4.69-4.46-2.1-2.92-3.31-6.49-3.31-10.26v-6.85z" fill="#f0d0b4"/><path d="m17.56 5c.79 0 1.44.58 1.54 1.36.04.3.09.62.17.97.25 1.24.75 2.69 1.73 3.67 2 2 10 3 11 11l-12-4.5-4-1.5v-9.44c0-.86.7-1.56 1.56-1.56z" fill="#ff826e"/><path d="m46.44 5c.86 0 1.56.7 1.56 1.56v9.44l-4 1.5-12 4.5c1-8 9-9 11-11 .98-.98 1.48-2.43 1.73-3.67.08-.35.13-.67.17-.97.1-.78.75-1.36 1.54-1.36z" fill="#ff826e"/><path d="m43 11c-2 2-10 3-11 11-1-8-9-9-11-11-.98-.98-1.48-2.43-1.73-3.67l2.47-3.54c.79-1.12 2.08-1.79 3.45-1.79.54 0 1.07.1 1.56.3l3.32 1.33c.61.24 1.27.37 1.93.37s1.32-.13 1.93-.37l3.32-1.33c.49-.2 1.02-.3 1.56-.3 1.37 0 2.66.67 3.45 1.79l2.47 3.54c-.25 1.24-.75 2.69-1.73 3.67z" fill="#fc6e51"/><circle cx="32" cy="10" fill="#fcd770" r="2"/><circle cx="26" cy="24" r="1"/><circle cx="38" cy="24" r="1"/><path d="m32 36c2.206 0 4-1.794 4-4h-2c0 1.103-.897 2-2 2s-2-.897-2-2h-2c0 2.206 1.794 4 4 4z"/><path d="m49.123 47.288-.465-.19c1.532-2.795 2.342-5.915 2.342-9.098 0-2.271-.401-4.498-1.193-6.62-.536-1.436-.807-3.068-.807-4.85v-10.53-9.441c0-1.411-1.147-2.559-2.559-2.559-.844 0-1.6.423-2.069 1.073l-1.297-1.853c-.973-1.39-2.568-2.22-4.264-2.22-.665 0-1.316.125-1.934.372l-3.32 1.328c-.994.397-2.118.398-3.114 0l-3.319-1.328c-.618-.247-1.27-.372-1.935-.372-1.696 0-3.291.83-4.265 2.221l-1.297 1.853c-.467-.651-1.224-1.074-2.068-1.074-1.412 0-2.559 1.148-2.559 2.559v9.441 10.53c0 1.783-.271 3.415-.807 4.851-.792 2.121-1.193 4.348-1.193 6.619 0 3.183.81 6.303 2.342 9.098l-.465.19c-6 2.454-9.877 8.23-9.877 14.712v1h54v-1c0-6.482-3.877-12.258-9.877-14.712zm-2.333-.955-7.925-3.243c-1.134-.462-1.865-1.552-1.865-2.776v-.718c4.921-3.401 8-9.039 8-15.245v-6.158l2-.75v9.086c0 2.022.313 3.889.934 5.55.707 1.898 1.066 3.89 1.066 5.921 0 2.921-.767 5.783-2.21 8.333zm-11.79 6.667c0 1.215-.386 2.268-.832 3.487-.465 1.272-.979 2.691-1.125 4.513h-2.087c-.145-1.821-.66-3.241-1.125-4.513-.445-1.219-.831-2.272-.831-3.487 0-.458.057-.918.146-1.368.922.239 1.876.368 2.854.368.977 0 1.933-.122 2.856-.362.088.448.144.906.144 1.362zm-1.447-6.895-1.013.507.628.942c.01.016.598.909 1.105 2.164-1.478.365-3.065.36-4.542-.004.506-1.252 1.092-2.146 1.102-2.161l.625-.942-1.011-.506c-1.111-.555-1.935-2.062-2.32-2.967.469-.685.755-1.488.837-2.342.864.45 1.772.837 2.719 1.152l.317.106.316-.105c.947-.316 1.855-.702 2.719-1.152.082.855.369 1.659.838 2.344-.381.902-1.201 2.406-2.32 2.964zm-12.553-27.162 11 4.125 11-4.125v5.408c0 7.023-4.406 13.247-11 15.591-6.594-2.345-11-8.568-11-15.591zm25.441-12.943c.308 0 .559.251.559.559v8.748l-13.649 5.119c1.205-4.007 4.591-5.626 7.38-6.953 1.24-.59 2.312-1.1 2.977-1.766 1.428-1.429 1.974-3.625 2.18-5.215.036-.285.269-.492.553-.492zm-23.878-1.632c.835-1.193 2.467-1.678 3.817-1.138l3.318 1.327c1.469.589 3.134.588 4.601 0l3.319-1.328c1.35-.541 2.982-.055 3.817 1.138l2.22 3.172c-.238.956-.647 2.036-1.364 2.754-.422.422-1.394.884-2.422 1.374-2.539 1.208-6.095 2.913-7.871 6.714-1.776-3.801-5.332-5.506-7.871-6.714-1.028-.49-2-.952-2.422-1.374-.716-.717-1.126-1.797-1.364-2.753zm-5.004 1.632c.284 0 .518.207.555.492.206 1.591.752 3.787 2.18 5.215.665.666 1.736 1.175 2.977 1.766 2.788 1.327 6.175 2.946 7.38 6.953l-13.651-5.119v-8.748c0-.308.251-.559.559-.559zm-2.559 32c0-2.031.359-4.023 1.066-5.92.621-1.661.934-3.528.934-5.55v-9.086l2 .75v6.158c0 6.206 3.079 11.845 8 15.245v.718c0 1.224-.731 2.313-1.864 2.776l-7.925 3.243c-1.444-2.551-2.211-5.413-2.211-8.334zm.635 11.14 10.259-4.197c.248-.102.482-.223.706-.359.426.847 1.1 1.938 2.059 2.724-.643 1.18-1.659 3.41-1.659 5.692 0 1.569.484 2.894.953 4.175.422 1.152.838 2.353.981 3.825h-11.934v-6h-2v6h-7.965c.373-5.255 3.665-9.842 8.6-11.86zm33.365 11.86v-6h-2v6h-11.934c.143-1.473.559-2.673.981-3.825.469-1.281.953-2.606.953-4.175 0-2.282-1.016-4.512-1.658-5.692.959-.786 1.633-1.877 2.059-2.724.224.136.458.257.706.359l10.259 4.197c4.935 2.019 8.227 6.605 8.6 11.86z"/><path d="m32 13c1.654 0 3-1.346 3-3s-1.346-3-3-3-3 1.346-3 3 1.346 3 3 3zm0-4c.552 0 1 .449 1 1s-.448 1-1 1-1-.449-1-1 .448-1 1-1z"/><path d="m38 55h7v2h-7z"/></svg>