<svg id="Layer_35" enable-background="new 0 0 64 64" height="512" viewBox="0 0 64 64" width="512" xmlns="http://www.w3.org/2000/svg"><path d="m16 62h-10c0-6.05 3.66-11.5 9.26-13.79l6.06-2.48-1.32 5.27 4 3-2 3 6 5z" fill="#e6e9ed"/><path d="m48 62h-12l6-5-2-3 4-3-1.32-5.27 6.06 2.48c2.8 1.15 5.12 3.08 6.73 5.49 1.61 2.4 2.53 5.28 2.53 8.3z" fill="#e6e9ed"/><path d="m42.68 45.73 1.32 5.27-4 3 2 3-6 5h-2l3.14-7.86 3.67-9.17z" fill="#ccd1d9"/><path d="m26.86 54.14 3.14 7.86h-2l-6-5 2-3-4-3 1.32-5.27 1.87-.76z" fill="#ccd1d9"/><path d="m32 49-5.14 5.14-3.67-9.17 2.32-.95c.34-.14.66-.33.95-.56z" fill="#ff826e"/><path d="m37.14 54.14-3.14 7.86h-4l-3.14-7.86 5.14-5.14z" fill="#ff826e"/><path d="m40.81 44.97-3.67 9.17-5.14-5.14 5.54-5.54c.29.23.61.42.95.56z" fill="#ff826e"/><path d="m43.32 6.68c-2.9-2.89-6.9-4.68-11.32-4.68-8.84 0-16 7.16-16 16v8c0-2.21 1.79-4 4-4v-2c0-1.1.9-2 2-2h1c1.62 0 3.22-.26 4.74-.77s2.96-1.25 4.26-2.23c2.6 1.95 5.75 3 9 3h1c1.1 0 2 .9 2 2v2c1.1 0 2.1.45 2.83 1.17.72.73 1.17 1.73 1.17 2.83v-8c0-4.42-1.79-8.42-4.68-11.32z" fill="#fcd770"/><g fill="#f0d0b4"><path d="m37.54 43.46-5.54 5.54-5.54-5.54c.96-.74 1.54-1.89 1.54-3.15v-1.24c1.23.8 2.57 1.45 4 1.93 1.43-.48 2.77-1.13 4-1.93v1.24c0 1.26.58 2.41 1.54 3.15z"/><path d="m46.83 23.17c.72.73 1.17 1.73 1.17 2.83 0 2.21-1.79 4-4 4h-.94c.61-1.79.94-3.69.94-5.65v-2.35c1.1 0 2.1.45 2.83 1.17z"/><path d="m44 22v2.35c0 1.96-.33 3.86-.94 5.65-.56 1.65-1.36 3.21-2.37 4.61-1.27 1.75-2.85 3.27-4.69 4.46-1.23.8-2.57 1.45-4 1.93-1.43-.48-2.77-1.13-4-1.93-3.32-2.15-5.8-5.35-7.06-9.07-.61-1.79-.94-3.69-.94-5.65v-2.35-2c0-1.1.9-2 2-2h1c1.62 0 3.22-.26 4.74-.77s2.96-1.25 4.26-2.23c2.6 1.95 5.75 3 9 3h1c1.1 0 2 .9 2 2z"/><path d="m20.94 30h-.94c-1.1 0-2.1-.45-2.83-1.17-.72-.73-1.17-1.73-1.17-2.83 0-2.21 1.79-4 4-4v2.35c0 1.96.33 3.86.94 5.65z"/></g><path d="m49.123 47.289-10.259-4.198c-1.133-.463-1.864-1.553-1.864-2.777v-.718c3.077-2.126 5.427-5.126 6.759-8.597h.241c2.757 0 5-2.243 5-5v-8c0-9.374-7.626-17-17-17s-17 7.627-17 17.001v8c0 2.757 2.243 5 5 5h.241c1.332 3.471 3.682 6.47 6.759 8.597v.718c0 1.224-.731 2.313-1.864 2.776l-10.259 4.197c-6 2.455-9.877 8.23-9.877 14.712v1h54v-1c0-6.482-3.877-12.257-9.877-14.711zm-6.254 3.309-4.226 3.169 2.026 3.04-5.031 4.193h-.161l5.89-14.724.469.192zm-14.507 10.402-5.031-4.193 2.026-3.04-4.226-3.169 1.033-4.13.469-.192 5.89 14.724zm-.331-6.617 3.969-3.969 3.969 3.969-2.646 6.617h-2.645zm11.484-8.864-2.738 6.845-3.363-3.364 4.269-4.269c.14.073.276.151.424.211zm4.899-16.561c.379-1.482.586-3.025.586-4.607v-1.167c1.161.414 2 1.514 2 2.816 0 1.512-1.129 2.754-2.586 2.958zm2.586-10.958v4.026c-.584-.442-1.257-.773-2-.924v-1.102c0-1.654-1.346-3-3-3h-1c-2.847 0-5.665-.9-8-2.525v-11.424c7.805.518 14 7.016 14 14.949zm-16-14.949v11.424c-2.335 1.625-5.153 2.525-8 2.525h-1c-1.654 0-3 1.346-3 3v1.101c-.743.152-1.416.482-2 .924v-4.025c0-7.933 6.195-14.431 14-14.949zm-14 22.949c0-1.302.839-2.402 2-2.816v1.167c0 1.582.207 3.125.586 4.607-1.457-.204-2.586-1.446-2.586-2.958zm4-1.649v-4.351c0-.551.449-1 1-1h1c3.193 0 6.361-.98 9-2.772 2.639 1.792 5.807 2.772 9 2.772h1c.551 0 1 .449 1 1v4.351c0 7.023-4.406 13.247-11 15.591-6.594-2.344-11-8.567-11-15.591zm10.684 17.598.316.105.316-.105c.947-.316 1.855-.702 2.719-1.152.095.995.479 1.914 1.089 2.664l-4.124 4.125-4.125-4.125c.61-.75.994-1.669 1.089-2.664.864.449 1.773.836 2.72 1.152zm-5.791 2.993c.148-.061.284-.138.424-.211l4.269 4.269-3.363 3.363-2.738-6.845zm-10.259 4.197 4.233-1.732-.999 3.995 3.774 2.831-1.974 2.96 4.57 3.807h-8.238v-6h-2v6h-7.965c.373-5.255 3.665-9.842 8.599-11.861zm33.366 11.861v-6h-2v6h-8.238l4.569-3.807-1.974-2.96 3.774-2.831-.999-3.994 4.233 1.732c4.934 2.018 8.226 6.605 8.599 11.86z"/><circle cx="38" cy="23" r="1"/><circle cx="26" cy="23" r="1"/><path d="m36 32h-2c0 1.103-.897 2-2 2s-2-.897-2-2h-2c0 2.206 1.794 4 4 4s4-1.794 4-4z"/><path d="m31 53h2v2h-2z"/><path d="m31 57h2v2h-2z"/></svg>