<svg id="Layer_35" enable-background="new 0 0 64 64" height="512" viewBox="0 0 64 64" width="512" xmlns="http://www.w3.org/2000/svg"><path d="m55.47 53.7c-1.61-2.41-3.93-4.34-6.73-5.49l-2.77-1.13-4.89-2c.37.42 1.92 2.28 1.92 4.92 0 4-4 5-4 5l-5.13-3.66-1.87-1.34-7 5s-4-1-4-5c0-2.64 1.55-4.5 1.92-4.92l-4.89 2-2.77 1.13c-5.6 2.29-9.26 7.74-9.26 13.79h10 16 16 10c0-3.02-.92-5.9-2.53-8.3z" fill="#e6e9ed"/><path d="m26 44s2 4 6 5v1l-7 5s-4-1-4-5c0-2.64 1.55-4.5 1.92-4.92l2.59-1.06c.14-.06.27-.12.4-.2z" fill="#aab2bd"/><path d="m32 49c4-1 6-5 6-5l.09-.18c.13.08.26.14.4.2l2.59 1.06c.37.42 1.92 2.28 1.92 4.92 0 4-4 5-4 5l-5.13-3.66-1.87-1.34z" fill="#aab2bd"/><path d="m36 40.31c0 1.48.81 2.82 2.09 3.51l-.09.18s-2 4-6 5c-4-1-6-5-6-5l-.09-.18c1.28-.69 2.09-2.03 2.09-3.51v-1.24c1.23.8 2.57 1.45 4 1.93 1.43-.48 2.77-1.13 4-1.93z" fill="#f0d0b4"/><path d="m24 21c1.56 0 2.9-.9 3.56-2.2.82 1.3 2.49 2.2 4.44 2.2s3.62-.9 4.44-2.2c.66 1.3 2 2.2 3.56 2.2.5 0 .97-.1 1.41-.27.5 1.05 1.45 1.84 2.59 2.13v1.49c0 6.04-3.09 11.54-8 14.72-1.23.8-2.57 1.45-4 1.93-1.43-.48-2.77-1.13-4-1.93-4.91-3.18-8-8.68-8-14.72v-1.49c1.14-.29 2.09-1.08 2.59-2.13.44.17.91.27 1.41.27z" fill="#f0d0b4"/><path d="m22.92 45.08-4.89 2-.03-.08c-4-1-4-4-4-4s5-1 5-4-4-3-4-15v-1c0-6 2-9 2-9s4-1 15-1 15 1 15 1 2 3 2 9v1c0 12-4 12-4 15s5 4 5 4 0 3-4 4l-.03.08-4.89-2-2.59-1.06c-.14-.06-.27-.12-.4-.2-1.28-.69-2.09-2.03-2.09-3.51v-1.24c4.91-3.18 8-8.68 8-14.72v-1.49c-1.14-.29-2.09-1.08-2.59-2.13-.44.17-.91.27-1.41.27-1.56 0-2.9-.9-3.56-2.2-.82 1.3-2.49 2.2-4.44 2.2s-3.62-.9-4.44-2.2c-.66 1.3-2 2.2-3.56 2.2-.5 0-.97-.1-1.41-.27-.5 1.05-1.45 1.84-2.59 2.13v1.49c0 6.04 3.09 11.54 8 14.72v1.24c0 1.48-.81 2.82-2.09 3.51-.13.08-.26.14-.4.2z" fill="#fcd770"/><path d="m32 13c-11 0-15 1-15 1l-1.91-6.67c-.06-.22-.09-.45-.09-.67 0-1.05.65-1.97 1.64-2.32 2.47-.89 7.7-2.34 15.36-2.34s12.89 1.45 15.36 2.34c.99.35 1.64 1.27 1.64 2.32 0 .22-.03.45-.09.67l-1.91 6.67s-4-1-15-1z" fill="#e6e9ed"/><path d="m31 11h2v-2h2v-2h-2v-2h-2v2h-2v2h2z"/><path d="m49.123 47.288-.618-.253c2.455-1.538 2.495-3.911 2.495-4.035l-.001-.817-.802-.163c-1.089-.221-4.197-1.25-4.197-3.02 0-.668.282-1.12.869-2.001 1.247-1.87 3.131-4.696 3.131-12.999v-1c0-5.027-1.352-8.072-1.922-9.132l1.789-6.263c.088-.31.133-.629.133-.95 0-1.459-.924-2.77-2.3-3.26-2.504-.894-7.875-2.395-15.7-2.395s-13.196 1.501-15.7 2.396c-1.376.49-2.3 1.801-2.3 3.26 0 .32.045.64.133.95l1.79 6.26c-.569 1.057-1.923 4.103-1.923 9.134v1c0 8.303 1.884 11.129 3.131 12.999.587.881.869 1.333.869 2.001 0 1.77-3.108 2.799-4.197 3.02l-.803.163v.817c0 .124.04 2.497 2.495 4.035l-.618.253c-6 2.454-9.877 8.23-9.877 14.712v1h54v-1c0-6.482-3.877-12.258-9.877-14.712zm-32.151-42.01c2.382-.85 7.504-2.278 15.028-2.278s12.646 1.428 15.028 2.278c.581.208.972.761.972 1.377 0 .135-.019.271-.057.401l-1.653 5.787c-1.763-.297-6.114-.843-14.29-.843s-12.527.546-14.29.844l-1.653-5.786c-.038-.132-.057-.268-.057-.403 0-.616.391-1.169.972-1.377zm-1.809 38.448c1.655-.513 4.837-1.871 4.837-4.726 0-1.303-.585-2.181-1.205-3.11-1.113-1.669-2.795-4.193-2.795-11.89v-1c0-4.49 1.179-7.21 1.646-8.112 1.248-.233 5.528-.888 14.354-.888 8.828 0 13.108.655 14.353.888.468.901 1.647 3.621 1.647 8.112v1c0 7.697-1.682 10.221-2.795 11.89-.62.929-1.205 1.807-1.205 3.11 0 2.854 3.181 4.212 4.836 4.726-.272.708-1.003 1.727-2.911 2.254l-7.06-2.889c-1.134-.463-1.865-1.553-1.865-2.777v-.718c4.921-3.401 8-9.039 8-15.246v-2.259l-.748-.195c-.85-.222-1.558-.805-1.942-1.601l-.398-.823-.855.323c-1.538.583-3.044-.121-3.72-1.451l-.795-1.569-.942 1.487c-.679 1.072-2.059 1.738-3.6 1.738s-2.921-.666-3.6-1.738l-.941-1.486-.795 1.569c-.676 1.331-2.183 2.034-3.72 1.451l-.855-.323-.398.823c-.385.796-1.093 1.379-1.942 1.601l-.749.195v2.259c0 6.206 3.079 11.845 8 15.246v.718c0 1.224-.731 2.313-1.864 2.776l-7.06 2.889c-1.912-.528-2.642-1.549-2.913-2.254zm26.837 6.274c0 2.497-1.957 3.547-2.832 3.891l-5.937-4.24c2.821-1.079 4.563-3.398 5.281-4.542l1.957.801c.428.507 1.531 2.013 1.531 4.09zm-18.465-4.093 1.953-.799c.718 1.144 2.46 3.464 5.281 4.542l-5.937 4.24c-.878-.345-2.832-1.395-2.832-3.89 0-2.055 1.108-3.579 1.535-4.093zm8.465-5.965c-6.594-2.345-11-8.568-11-15.592v-.778c.822-.361 1.531-.938 2.054-1.669 1.731.354 3.443-.265 4.581-1.487 1.115.998 2.684 1.584 4.365 1.584s3.25-.586 4.365-1.584c1.138 1.223 2.85 1.841 4.581 1.487.522.731 1.231 1.308 2.054 1.669v.778c0 7.024-4.406 13.248-11 15.592zm-3.036.854c.864.45 1.772.837 2.719 1.152l.317.106.316-.105c.947-.316 1.855-.702 2.719-1.152.126 1.311.748 2.497 1.73 3.328-.66 1.02-2.271 3.112-4.766 3.84-2.495-.728-4.106-2.82-4.766-3.84.983-.832 1.605-2.018 1.731-3.329zm20.036 20.204v-6h-2v6h-30v-6h-2v6h-7.965c.373-5.255 3.665-9.842 8.6-11.86l4.922-2.014c-.316.821-.557 1.78-.557 2.874 0 3.781 3.112 5.559 4.758 5.97l.447.112 6.795-4.853 6.795 4.854.447-.112c1.646-.412 4.758-2.19 4.758-5.971 0-1.094-.241-2.053-.557-2.874l4.922 2.014c4.935 2.019 8.227 6.605 8.6 11.86z"/><circle cx="26" cy="24" r="1"/><circle cx="38" cy="24" r="1"/><path d="m32 34c-1.103 0-2-.897-2-2h-2c0 2.206 1.794 4 4 4s4-1.794 4-4h-2c0 1.103-.897 2-2 2z"/><circle cx="32" cy="58" r="1"/><circle cx="32" cy="54" r="1"/></svg>