<svg id="Layer_35" enable-background="new 0 0 64 64" height="512" viewBox="0 0 64 64" width="512" xmlns="http://www.w3.org/2000/svg"><g fill="#b27946"><path d="m28 39.07v1.24c0 .93-.32 1.8-.89 2.49-.4.53-.95.95-1.6 1.22l-2.55 1.04-6.96 2.85v-28.91h4v5.35c0 6.04 3.09 11.54 8 14.72z"/><path d="m45.83 19h2.17v28.91l-.82-.34-4.13-1.69-2.01-.82-2.55-1.04c-.65-.27-1.2-.69-1.6-1.22-.57-.69-.89-1.56-.89-2.49v-1.24c1.84-1.19 3.42-2.71 4.69-4.46 2.1-2.92 3.31-6.49 3.31-10.26v-5.51-.01c.6.11 1.21.17 1.83.17z"/><path d="m21.4 19h-1.4-4v-1c0-8.84 7.16-16 16-16 4.42 0 8.42 1.79 11.32 4.68 2.89 2.9 4.68 6.9 4.68 11.32v1h-2.17c-.62 0-1.23-.06-1.83-.17-1.15-.2-2.24-.6-3.24-1.17-1.53-.86-2.83-2.11-3.76-3.66-4.55 3.25-10.01 5-15.6 5z"/></g><path d="m34.13 52.66.95-1.04 5.96-6.56 2.01.82-.05.12-3 10 4 6h-8z" fill="#838f9b"/><path d="m28.92 51.62.95 1.04-1.87 9.34h-12-10c0-6.05 3.66-11.5 9.26-13.79l.74-.3 6.96-2.85z" fill="#838f9b"/><path d="m48.74 48.21c2.8 1.15 5.12 3.08 6.73 5.49 1.61 2.4 2.53 5.28 2.53 8.3h-13l4-5-2-9 .18-.43.82.34z" fill="#838f9b"/><path d="m32 47 3.08 4.62-.95 1.04-2.13 2.34-2.13-2.34-.95-1.04z" fill="#e6e9ed"/><path d="m41.04 45.06-5.96 6.56-3.08-4.62 4.88-4.19.01-.01c.4.53.95.95 1.6 1.22z" fill="#e6e9ed"/><path d="m32 47-3.08 4.62-5.96-6.56 2.55-1.04c.65-.27 1.2-.69 1.6-1.22l.01.01z" fill="#e6e9ed"/><path d="m34.13 52.66 1.87 9.34h-8l1.87-9.34 2.13 2.34z" fill="#fcd770"/><path d="m36.88 42.81-4.88 4.19-4.88-4.19-.01-.01c.57-.69.89-1.56.89-2.49v-1.24c1.23.8 2.57 1.45 4 1.93 1.43-.48 2.77-1.13 4-1.93v1.24c0 .93.32 1.8.89 2.49z" fill="#f0d0b4"/><path d="m44 18.84v5.51c0 3.77-1.21 7.34-3.31 10.26-1.27 1.75-2.85 3.27-4.69 4.46-1.23.8-2.57 1.45-4 1.93-1.43-.48-2.77-1.13-4-1.93-4.91-3.18-8-8.68-8-14.72v-5.35h1.4c5.59 0 11.05-1.75 15.6-5 .93 1.55 2.23 2.8 3.76 3.66 1 .57 2.09.97 3.24 1.17z" fill="#f0d0b4"/><path d="m47 48 2 9-4 5h-1l-4-6 3-10 .05-.12 4.13 1.69z" fill="#e6e9ed"/><path d="m32 36c2.206 0 4-1.794 4-4h-2c0 1.103-.897 2-2 2s-2-.897-2-2h-2c0 2.206 1.794 4 4 4z"/><path d="m49.123 47.289-.123-.051v-29.238c0-9.374-7.626-17-17-17s-17 7.626-17 17v29.238l-.123.05c-6 2.455-9.877 8.229-9.877 14.712v1h21.78 10.44 21.78v-1c0-6.483-3.877-12.257-9.877-14.711zm-1.203 9.461-3.392 4.24-3.435-5.152 2.585-8.615 2.402.983-.056.012zm-9.056-13.659c-1.133-.463-1.864-1.553-1.864-2.777v-.718c4.921-3.401 8-9.039 8-15.245v-4.401c.276.021.552.05.831.05h1.169v26.42zm-17.864-23.091h.397c5.493 0 10.772-1.588 15.334-4.603 1.544 2.092 3.778 3.576 6.269 4.227v4.726c0 7.023-4.406 13.247-11 15.591-6.594-2.345-11-8.568-11-15.591zm10.684 21.949.316.105.316-.105c.947-.316 1.855-.702 2.719-1.153.062.649.244 1.266.535 1.826l-3.57 3.061-3.571-3.061c.291-.56.473-1.177.535-1.826.864.45 1.773.837 2.72 1.153zm-4.509 2.232 3.502 3.002-1.875 2.812-4.136-4.55 1.228-.502c.471-.194.901-.452 1.281-.762zm3.013 7.339 1.812-2.718 1.812 2.718-1.812 1.993zm5.01-1.525-1.875-2.812 3.502-3.002c.38.31.809.569 1.281.761l1.228.503zm-3.198-46.995c8.271 0 15 6.729 15 15h-1.169c-3.247 0-6.303-1.73-7.974-4.515l-.557-.928-.881.629c-4.409 3.149-9.604 4.814-15.022 4.814h-4.397c0-8.271 6.729-15 15-15zm-15 17h2v4.351c0 6.206 3.079 11.845 8 15.245v.718c0 1.224-.731 2.313-1.864 2.777l-8.136 3.329zm0 41v-6h-2v6h-7.965c.373-5.255 3.665-9.842 8.6-11.861l7.06-2.888 6.095 6.704-1.61 8.045zm12.22 0 1.241-6.206 1.539 1.693 1.539-1.693 1.241 6.206zm7.6 0-1.609-8.045 6.095-6.704.512.21-2.911 9.703 3.225 4.836zm10.261 0 2.999-3.75-1.811-8.15.096.039c4.935 2.018 8.227 6.605 8.6 11.86h-9.884z"/><path d="m19.74 13.667c-.249.702-.438 1.431-.561 2.168l1.973.33c.104-.623.264-1.239.473-1.832z"/><path d="m32 7v-2c-4.626 0-8.94 2.49-11.26 6.499l1.73 1.002c1.965-3.394 5.615-5.501 9.53-5.501z"/><circle cx="26" cy="24" r="1"/><circle cx="38" cy="24" r="1"/></svg>