<svg id="Layer_35" enable-background="new 0 0 64 64" height="512" viewBox="0 0 64 64" width="512" xmlns="http://www.w3.org/2000/svg"><path d="m24.5 49 1.5 5 2.82-2.35 1.18 2.35-1 8h-13-10c0-5.44 2.96-10.39 7.62-13h1.38 4 4z" fill="#e6e9ed"/><path d="m41 49h4 4 1.38c2.33 1.3 4.24 3.2 5.56 5.44s2.06 4.84 2.06 7.56h-10-13l-1-8 1.18-2.35 2.82 2.35 1.5-5z" fill="#e6e9ed"/><path d="m35.18 51.65-3.18-2.65-3.18 2.65 1.18 2.35-1 8h6l-1-8z" fill="#75b1f2"/><path d="m25 49c1.1 0 2-.9 2-2v-3l5 5-3.18 2.65-2.82 2.35-1.5-5z" fill="#aab2bd"/><path d="m39.5 49-1.5 5-2.82-2.35-3.18-2.65 5-5v3c0 1.1.9 2 2 2z" fill="#aab2bd"/><path d="m53 45v2c0 1.1-.9 2-2 2h-.62-1.38v-6h2c1.1 0 2 .9 2 2z" fill="#838f9b"/><path d="m41 43h4v6h-4z" fill="#838f9b"/><path d="m19 43h4v6h-4z" fill="#838f9b"/><path d="m15 43v6h-1.38-.62c-1.1 0-2-.9-2-2v-2c0-1.1.9-2 2-2z" fill="#838f9b"/><g fill="#fcd770"><path d="m15 43h4v6h-4z"/><path d="m27 47c0 1.1-.9 2-2 2h-.5-1.5v-6h3.96.04v1z"/><path d="m45 43h4v6h-4z"/><path d="m37.04 43h3.96v6h-1.5-.5c-1.1 0-2-.9-2-2v-3-1z"/><path d="m48 14c1.1 0 2 .9 2 2 0 .55-.22 1.05-.59 1.41-.36.37-.86.59-1.41.59h-32c-1.1 0-2-.9-2-2 0-.55.22-1.05.59-1.41.36-.37.86-.59 1.41-.59h2 28z"/></g><path d="m16 18h32c-1.21 1.21-2.56 2.25-4 3.11-3.15 1.88-6.77 2.89-10.49 2.89h-3.02c-3.72 0-7.34-1.01-10.49-2.89-1.44-.86-2.79-1.9-4-3.11z" fill="#aab2bd"/><path d="m16.95 6.35 11.15-3.72c1.26-.42 2.58-.63 3.9-.63s2.64.21 3.9.63l11.15 3.72c1.17.39 1.95 1.48 1.95 2.7 0 .62-.2 1.22-.57 1.71l-2.43 3.24h-28l-2.43-3.24c-.37-.49-.57-1.09-.57-1.71 0-1.22.78-2.31 1.95-2.7z" fill="#aab2bd"/><path d="m35 9c0-.77-.29-1.47-.77-2h6.77l-.89 1.79c-.68 1.35-2.07 2.21-3.58 2.21h-2.3c.48-.53.77-1.23.77-2z" fill="#ff826e"/><path d="m23 7h6.77c-.48.53-.77 1.23-.77 2s.29 1.47.77 2h-2.3c-1.51 0-2.9-.86-3.58-2.21z" fill="#ff826e"/><path d="m34.23 7c.48.53.77 1.23.77 2s-.29 1.47-.77 2h-.01c-.53.62-1.33 1-2.22 1s-1.69-.38-2.22-1h-.01c-.48-.53-.77-1.23-.77-2s.29-1.47.77-2h.01c.53-.62 1.33-1 2.22-1s1.69.38 2.22 1z" fill="#fc6e51"/><path d="m16 18c1.21 1.21 2.56 2.25 4 3.11v.89c-2.21 0-4 1.79-4 4z" fill="#b27946"/><path d="m48 18v8c0-1.1-.45-2.1-1.17-2.83-.73-.72-1.73-1.17-2.83-1.17v-.89c1.44-.86 2.79-1.9 4-3.11z" fill="#b27946"/><path d="m37 43v1l-5 5-5-5v-1h-.04c.66-.72 1.04-1.67 1.04-2.69v-1.24c1.23.8 2.57 1.45 4 1.93 1.43-.48 2.77-1.13 4-1.93v1.24c0 1.02.38 1.97 1.04 2.69z" fill="#f0d0b4"/><path d="m46.83 23.17c.72.73 1.17 1.73 1.17 2.83 0 2.21-1.79 4-4 4h-.94c.61-1.79.94-3.69.94-5.65v-2.35c1.1 0 2.1.45 2.83 1.17z" fill="#f0d0b4"/><path d="m20 21.11c3.15 1.88 6.77 2.89 10.49 2.89h3.02c3.72 0 7.34-1.01 10.49-2.89v.89 2.35c0 1.96-.33 3.86-.94 5.65-1.26 3.72-3.74 6.92-7.06 9.07-1.23.8-2.57 1.45-4 1.93-1.43-.48-2.77-1.13-4-1.93-1.84-1.19-3.42-2.71-4.69-4.46-1.01-1.4-1.81-2.96-2.37-4.61-.61-1.79-.94-3.69-.94-5.65v-2.35z" fill="#f0d0b4"/><path d="m20.94 30h-.94c-1.1 0-2.1-.45-2.83-1.17-.72-.73-1.17-1.73-1.17-2.83 0-2.21 1.79-4 4-4v2.35c0 1.96.33 3.86.94 5.65z" fill="#f0d0b4"/><circle cx="38" cy="26" r="1"/><circle cx="26" cy="26" r="1"/><path d="m36 32h-2c0 1.103-.897 2-2 2s-2-.897-2-2h-2c0 2.206 1.794 4 4 4s4-1.794 4-4z"/><path d="m52.785 49.397c.733-.547 1.215-1.414 1.215-2.397v-2c0-1.654-1.346-3-3-3h-13.47c-.339-.496-.53-1.078-.53-1.686v-.718c3.077-2.126 5.427-5.126 6.759-8.596h.241c2.757 0 5-2.243 5-5v-7.184c1.161-.414 2-1.514 2-2.816 0-1.654-1.346-3-3-3l1.231-1.642c.496-.662.769-1.481.769-2.307 0-1.658-1.057-3.124-2.63-3.649l-11.156-3.718c-2.723-.907-5.705-.907-8.428 0l-11.156 3.718c-1.573.525-2.63 1.992-2.63 3.649 0 .826.273 1.645.77 2.308l1.23 1.641c-1.654 0-3 1.346-3 3 0 1.302.839 2.402 2 2.816v7.184c0 2.757 2.243 5 5 5h.241c1.332 3.471 3.682 6.47 6.759 8.596v.718c0 .608-.191 1.19-.53 1.686h-13.47c-1.654 0-3 1.346-3 3v2c0 .983.482 1.849 1.215 2.397-3.879 2.981-6.215 7.627-6.215 12.603v1h54v-1c0-4.976-2.336-9.623-6.215-12.603zm-36.785-1.397v-4h2v4zm4-4h2v4h-2zm7.119 5.12c.567-.568.878-1.323.877-2.123l.001-.586 2.522 2.522-3.996 3.33-.716-2.387c.49-.138.943-.386 1.312-.756zm3.764 5.88h2.235l.75 6h-3.735zm2.499-2h-2.764l-.546-1.091 1.928-1.607 1.928 1.607zm.099-4.067 2.519-2.519v.586c0 1.373.932 2.521 2.193 2.876l-.716 2.387zm8.519-.933v-4h2v4zm4-4h2v4h-2zm6 1v2c0 .552-.448 1-1 1h-1v-4h1c.552 0 1 .448 1 1zm-14-1h2v4h-1c-.552 0-1-.448-1-1zm-19.312-25h26.624c-3.377 2.583-7.474 4-11.797 4h-3.029c-4.324 0-8.421-1.417-11.798-4zm-.277 2.283c-.513.174-.987.422-1.411.743v-1.79c.457.369.929.718 1.411 1.047zm28.589-1.048v1.79c-.424-.321-.898-.569-1.411-.742.482-.329.954-.678 1.411-1.048zm-2.586 8.723c.379-1.482.586-3.025.586-4.607v-1.167c1.161.414 2 1.514 2 2.816 0 1.512-1.129 2.754-2.586 2.958zm-28.045-18.799c-.238-.318-.369-.711-.369-1.108 0-.796.508-1.5 1.263-1.751l11.156-3.719c2.312-.771 4.85-.771 7.162 0l11.156 3.719c.755.252 1.263.955 1.263 1.751 0 .396-.131.79-.369 1.107l-2.131 2.842h-13.5-13.5zm-.369 4.841h32c.552 0 1 .449 1 1s-.448 1-1 1h-32c-.552 0-1-.449-1-1s.448-1 1-1zm1 11c0-1.302.839-2.402 2-2.816v1.167c0 1.582.207 3.125.586 4.607-1.457-.204-2.586-1.446-2.586-2.958zm4-1.649v-1.571c2.916 1.439 6.138 2.22 9.485 2.22h3.029c3.348 0 6.569-.781 9.485-2.22v1.571c0 7.023-4.406 13.247-11 15.591-6.593-2.344-10.999-8.568-10.999-15.591zm10.684 17.597.316.106.316-.105c.95-.317 1.861-.705 2.728-1.157.087.904.415 1.758.956 2.488v.307l-4 4-4.001-4.001v-.306c.542-.73.869-1.583.956-2.488.868.452 1.779.84 2.729 1.156zm-5.688 5.05c0 .268-.104.52-.292.709-.189.189-.44.293-.708.293h-.996v-4h1.999zm-13.996-1.998c0-.552.448-1 1-1h1v4h-1c-.552 0-1-.448-1-1zm1.914 5h9.842l1.722 5.737 3.016-2.513.477.953-.854 6.823h-11.117v-6h-2v6h-7.964c.329-4.56 2.901-8.687 6.878-11zm35.086 11v-6h-2v6h-11.117l-.853-6.823.477-.953 3.016 2.513 1.721-5.737h9.842c3.977 2.312 6.549 6.44 6.878 11z"/><path d="m36.528 12c1.905 0 3.619-1.059 4.472-2.764l1.618-3.236h-8c-.704-.615-1.613-1-2.618-1s-1.914.385-2.618 1h-8l1.618 3.236c.853 1.705 2.566 2.764 4.472 2.764h1.911c.703.615 1.612 1 2.618 1s1.914-.385 2.618-1zm2.683-3.658c-.512 1.023-1.539 1.658-2.683 1.658h-.67c.084-.322.142-.653.142-1s-.058-.678-.142-1h3.524zm-14.422 0-.171-.342h3.524c-.084.322-.142.653-.142 1s.058.678.142 1h-.67c-1.144 0-2.171-.635-2.683-1.658zm7.211 2.658c-1.103 0-2-.897-2-2s.897-2 2-2 2 .897 2 2-.897 2-2 2z"/><path d="m19 57h4v2h-4z"/><path d="m39 57h4v2h-4z"/></svg>