<svg id="Layer_35" enable-background="new 0 0 64 64" height="512" viewBox="0 0 64 64" width="512" xmlns="http://www.w3.org/2000/svg"><path d="m16 47.91v14.09h-10c0-6.05 3.66-11.5 9.26-13.79z" fill="#e6e9ed"/><path d="m42 45.45v16.55h-20v-16.55l1.53-.62 4.21 7.43 3.26 5.74h2l3.26-5.74 4.21-7.43z" fill="#e6e9ed"/><path d="m58 62h-10v-14.09l.74.3c2.8 1.15 5.12 3.08 6.73 5.49 1.61 2.4 2.53 5.28 2.53 8.3z" fill="#e6e9ed"/><path d="m48 47.91v14.09h-6v-16.55z" fill="#b27946"/><path d="m22 45.45v16.55h-6v-14.09z" fill="#b27946"/><path d="m36.26 52.26-3.26 5.74h-2l-3.26-5.74 4.26-4.26z" fill="#37bc9b"/><path d="m40.47 44.83-4.21 7.43-4.26-4.26 5.02-5.02c.4.45.9.8 1.47 1.04z" fill="#48cfad"/><path d="m32 48-4.26 4.26-4.21-7.43 1.98-.81c.57-.24 1.07-.59 1.47-1.04z" fill="#48cfad"/><path d="m46.84 28.82c.1.38.16.77.16 1.18 0 1.63-.79 3.07-2 3.98v.02c0 2.76-2.24 5-5 5-1.02 0-1.95-.31-2.74-.83 2.69-2.09 4.71-4.94 5.8-8.17h.94c1.11 0 2.11-.45 2.84-1.18z" fill="#656d78"/><path d="m20 30h.94c.56 1.65 1.36 3.21 2.37 4.61.97 1.34 2.12 2.54 3.43 3.56-.79.52-1.72.83-2.74.83-2.76 0-5-2.24-5-5 0-.01 0-.01 0-.02-1.21-.91-2-2.35-2-3.98 0-.41.06-.8.16-1.18l.01.01c.73.72 1.73 1.17 2.83 1.17z" fill="#656d78"/><path d="m51 17c0 2.81-1.65 5.21-4.03 6.33-.04-.05-.09-.11-.14-.16-.73-.72-1.73-1.17-2.83-1.17v-4h-.76c-1.36 0-2.68-.27-3.92-.78-1.23-.51-2.36-1.26-3.32-2.22-3.2 3.2-7.54 5-12.07 5h-3.93v2c-1.18 0-2.25.51-2.97 1.33-2.38-1.12-4.03-3.52-4.03-6.33 0-3.18 2.13-5.87 5.04-6.72.35-3.53 3.34-6.28 6.96-6.28.65 0 1.27.09 1.86.26 1.28-1.39 3.11-2.26 5.14-2.26s3.86.87 5.14 2.26c.59-.17 1.21-.26 1.86-.26 3.62 0 6.61 2.75 6.96 6.28 2.91.85 5.04 3.54 5.04 6.72z" fill="#656d78"/><g fill="#f0d0b4"><path d="m36 40.31c0 1.01.38 1.95 1.02 2.67l-5.02 5.02-5.02-5.02c.64-.72 1.02-1.66 1.02-2.67v-1.24c1.23.8 2.57 1.45 4 1.93 1.43-.48 2.77-1.13 4-1.93z"/><path d="m44 24.35v-2.35c1.1 0 2.1.45 2.83 1.17.05.05.1.11.14.16.64.71 1.03 1.65 1.03 2.67 0 1.09-.44 2.08-1.16 2.81v.01c-.73.73-1.73 1.18-2.84 1.18h-.94c.61-1.79.94-3.69.94-5.65z"/><path d="m23.93 20c4.53 0 8.87-1.8 12.07-5 .96.96 2.09 1.71 3.32 2.22 1.24.51 2.56.78 3.92.78h.76v4 2.35c0 1.96-.33 3.86-.94 5.65-1.09 3.23-3.11 6.08-5.8 8.17h-.01c-.4.33-.82.62-1.25.9-1.23.8-2.57 1.45-4 1.93-1.43-.48-2.77-1.13-4-1.93-.43-.28-.85-.57-1.25-.9h-.01c-1.31-1.02-2.46-2.22-3.43-3.56-1.01-1.4-1.81-2.96-2.37-4.61-.61-1.79-.94-3.69-.94-5.65v-2.35-2z"/><path d="m20 22v2.35c0 1.96.33 3.86.94 5.65h-.94c-1.1 0-2.1-.45-2.83-1.17l-.01-.01v-.01c-.72-.73-1.16-1.72-1.16-2.81 0-1.02.39-1.96 1.03-2.67.72-.82 1.79-1.33 2.97-1.33z"/></g><circle cx="38" cy="23" r="1"/><circle cx="26" cy="23" r="1"/><path d="m36 32h-2c0 1.103-.897 2-2 2s-2-.897-2-2h-2c0 2.206 1.794 4 4 4s4-1.794 4-4z"/><path d="m49.123 47.288-10.259-4.197c-1.133-.463-1.864-1.553-1.864-2.777v-.718c.113-.078.229-.151.34-.232.827.412 1.732.636 2.66.636 3.152 0 5.744-2.442 5.982-5.535 1.289-1.142 2.018-2.744 2.018-4.465 0-.295-.036-.604-.09-.922.672-.851 1.09-1.912 1.09-3.078 0-.845-.23-1.629-.602-2.327 2.219-1.467 3.602-3.977 3.602-6.673 0-3.309-2.081-6.291-5.134-7.465-.691-3.769-3.966-6.535-7.866-6.535-.512 0-1.03.052-1.548.156-1.476-1.377-3.432-2.156-5.452-2.156s-3.976.779-5.452 2.156c-.518-.104-1.036-.156-1.548-.156-3.9 0-7.175 2.766-7.866 6.535-3.053 1.174-5.134 4.156-5.134 7.465 0 2.696 1.383 5.206 3.602 6.673-.372.698-.602 1.482-.602 2.327 0 1.166.418 2.227 1.09 3.078-.054.318-.09.627-.09.922 0 1.721.729 3.323 2.018 4.465.238 3.093 2.83 5.535 5.982 5.535.928 0 1.833-.224 2.66-.635.111.08.227.154.34.232v.718c0 1.224-.731 2.313-1.864 2.776l-10.259 4.197c-6 2.454-9.877 8.23-9.877 14.712v1h54v-1c0-6.482-3.877-12.258-9.877-14.712zm-32.123 1.293 4-1.637v14.056h-4zm6-2.455.097-.04 7.32 12.914h3.166l7.32-12.914.097.04v14.874h-18zm5.989 6.299 3.011-3.011 3.011 3.011-2.594 4.575h-.834zm14.011-5.48 4 1.637v12.418h-4zm-4.894-2.003.93.38-3.003 5.297-2.619-2.619 3.651-3.651c.321.232.663.439 1.041.593zm-17.106-20.591v-3.351h2.929c4.507 0 8.761-1.638 12.083-4.633 1.961 1.653 4.402 2.576 6.988 2.63v5.354c0 7.023-4.406 13.247-11 15.591-6.594-2.344-11-8.568-11-15.591zm23.396 8.831-.397.3.001.583c-.035 2.175-1.815 3.935-4 3.935-.299 0-.594-.044-.882-.11 2.046-1.913 3.634-4.266 4.641-6.89h.241c.683 0 1.335-.139 1.928-.389-.159 1.011-.683 1.929-1.532 2.571zm.604-8.831v-1.167c1.161.414 2 1.514 2 2.816 0 1.512-1.129 2.754-2.586 2.958.379-1.482.586-3.025.586-4.607zm-31-7.351c0-2.647 1.775-5.014 4.316-5.756l.646-.189.068-.67c.364-3.589 3.852-6.183 7.565-5.163l.586.161.413-.447c1.155-1.248 2.719-1.936 4.406-1.936s3.251.688 4.404 1.937l.413.447.586-.161c3.716-1.019 7.201 1.574 7.565 5.163l.068.67.646.189c2.543.741 4.318 3.108 4.318 5.755 0 2.095-1.122 4.032-2.895 5.112-.607-.486-1.315-.85-2.105-1.011v-4.101h-1.758c-2.469 0-4.789-.961-6.535-2.707l-.707-.707-.707.707c-3.035 3.035-7.071 4.707-11.364 4.707h-4.929v2.101c-.79.161-1.498.525-2.105 1.011-1.773-1.08-2.895-3.017-2.895-5.112zm3 9c0-1.302.839-2.402 2-2.816v1.167c0 1.582.207 3.125.586 4.607-1.457-.204-2.586-1.446-2.586-2.958zm7 12c-2.186 0-3.967-1.761-4-3.938l.002-.58-.397-.3c-.85-.642-1.374-1.56-1.533-2.57.594.249 1.245.388 1.928.388h.241c1.007 2.624 2.596 4.977 4.641 6.89-.288.066-.583.11-.882.11zm7.684 3.948.316.106.316-.105c.947-.316 1.855-.702 2.719-1.152.072.748.306 1.452.678 2.076l-3.713 3.713-3.714-3.714c.372-.624.606-1.328.678-2.076.864.45 1.773.837 2.72 1.152zm-5.79 2.994c.378-.155.721-.362 1.041-.594l3.651 3.652-2.62 2.62-3.003-5.297zm-10.894 4.484v11.574h-7.965c.357-5.025 3.386-9.432 7.965-11.574zm34 11.574v-11.574c4.579 2.142 7.608 6.55 7.965 11.574z"/></svg>