<svg id="Layer_35" enable-background="new 0 0 64 64" height="512" viewBox="0 0 64 64" width="512" xmlns="http://www.w3.org/2000/svg"><path d="m32 2v13l-8.31 3.46c-2.23.93-3.69 3.12-3.69 5.54v.35c0 3.77 1.21 7.34 3.31 10.26 1.27 1.75 2.85 3.27 4.69 4.46v1.24c0 1.33-.65 2.54-1.71 3.27-.24.18-.5.32-.78.44l-1.47.6c-1.15-.37-2.22-.78-3.19-1.18-2.95-1.25-4.85-4.16-4.85-7.36v-18.08c0-8.84 7.16-16 16-16z" fill="#b27946"/><path d="m48 18v18.08c0 3.2-1.9 6.11-4.85 7.36-.97.4-2.04.81-3.19 1.18l-1.47-.6c-.28-.12-.54-.26-.78-.44-1.06-.73-1.71-1.94-1.71-3.27v-1.24c4.91-3.18 8-8.68 8-14.72v-.35c0-2.42-1.46-4.61-3.69-5.54l-8.31-3.46v-13c4.42 0 8.42 1.79 11.32 4.68 2.89 2.9 4.68 6.9 4.68 11.32z" fill="#b27946"/><path d="m37.71 43.58-.01.01-5.7 6.41-5.7-6.41-.01-.01c1.06-.73 1.71-1.94 1.71-3.27v-1.24c1.23.8 2.57 1.45 4 1.93 1.43-.48 2.77-1.13 4-1.93v1.24c0 1.33.65 2.54 1.71 3.27z" fill="#f0d0b4"/><path d="m44 24v.35c0 6.04-3.09 11.54-8 14.72-1.23.8-2.57 1.45-4 1.93-1.43-.48-2.77-1.13-4-1.93-1.84-1.19-3.42-2.71-4.69-4.46-2.1-2.92-3.31-6.49-3.31-10.26v-.35c0-2.42 1.46-4.61 3.69-5.54l8.31-3.46 8.31 3.46c2.23.93 3.69 3.12 3.69 5.54z" fill="#f0d0b4"/><path d="m58 62h-10v-4-4l1.94-5.23c2.27 1.17 4.16 2.87 5.53 4.93 1.61 2.4 2.53 5.28 2.53 8.3z" fill="#aab2bd"/><path d="m16 58v4h-10c0-5.61 3.14-10.7 8.06-13.23l1.94 5.23z" fill="#aab2bd"/><path d="m39.96 44.62 1.49.61-3.45 8.77v4 4h-12v-4-4l-3.45-8.77 1.49-.61 1.47-.6c.28-.12.54-.26.78-.44l.01.01 5.7 6.41 5.7-6.41.01-.01c.24.18.5.32.78.44z" fill="#aab2bd"/><path d="m16 54h10v4h-10z" fill="#ff826e"/><path d="m38 54h10v4h-10z" fill="#ff826e"/><g fill="#ffc729"><path d="m49.94 48.77-1.94 5.23h-10l3.45-8.77 7.29 2.98c.41.17.81.35 1.2.56z"/><path d="m22.55 45.23 3.45 8.77h-10l-1.94-5.23c.39-.21.79-.39 1.2-.56z"/><path d="m16 58h10v4h-10z"/><path d="m38 58h10v4h-10z"/></g><circle cx="26" cy="24" r="1"/><circle cx="38" cy="24" r="1"/><path d="m32 36c2.206 0 4-1.794 4-4h-2c0 1.103-.897 2-2 2s-2-.897-2-2h-2c0 2.206 1.794 4 4 4z"/><path d="m49.123 47.288-6.385-2.612c.267-.106.534-.205.801-.317 3.317-1.399 5.461-4.647 5.461-8.277v-18.082c0-9.374-7.626-17-17-17s-17 7.626-17 17v18.082c0 3.63 2.144 6.878 5.461 8.276.267.112.534.211.801.317l-6.385 2.612c-6 2.456-9.877 8.231-9.877 14.713v1h54v-1c0-6.482-3.877-12.257-9.877-14.712zm-.442 1.993-1.377 3.719h-7.835l2.544-6.46 6.354 2.6c.106.043.208.095.314.141zm-31.681 5.719h8v2h-8zm0 4h8v2h-8zm6.839-13.217 2.054-.84c.066-.027.125-.065.189-.094l5.918 6.656 5.918-6.657c.064.03.123.067.189.094l2.054.84-3.161 8.029v7.189h-10v-7.189zm8.161-29.7 7.923 3.301c1.869.78 3.077 2.591 3.077 4.616v.351c0 7.023-4.406 13.247-11 15.591-6.594-2.345-11-8.568-11-15.591v-.351c0-2.025 1.208-3.836 3.077-4.616zm-.316 25.865.316.106.316-.105c.947-.316 1.855-.702 2.719-1.152.104 1.086.543 2.09 1.253 2.874l-4.288 4.824-4.289-4.825c.71-.784 1.149-1.788 1.253-2.874.864.45 1.773.837 2.72 1.152zm15.316 15.052h-8v-2h8zm-8 2h8v2h-8zm8-41v18.082c0 2.823-1.663 5.349-4.237 6.433-.927.391-1.855.735-2.77 1.038l-1.129-.462c-1.132-.463-1.864-1.553-1.864-2.777v-.718c4.921-3.401 8-9.039 8-15.245v-.351c0-2.835-1.691-5.371-4.308-6.461l-7.692-3.206v-11.282c7.805.518 14 7.016 14 14.949zm-25.763 24.515c-2.574-1.084-4.237-3.61-4.237-6.433v-18.082c0-7.933 6.195-14.431 14-14.949v11.283l-7.692 3.205c-2.617 1.09-4.308 3.626-4.308 6.461v.351c0 6.206 3.079 11.845 8 15.245v.718c0 1.224-.732 2.313-1.864 2.776l-1.129.462c-.914-.303-1.843-.646-2.77-1.037zm.751 4.025 2.544 6.46h-7.835l-1.377-3.719c.106-.046.207-.098.315-.142zm-8.454 3.681 1.466 3.959v6.82h-7.965c.317-4.467 2.748-8.444 6.499-10.779zm35.466 10.779v-6.82l1.466-3.958c3.751 2.334 6.182 6.312 6.499 10.779h-7.965z"/><path d="m29.25 7.346-.5-1.936c-3.352.863-6.271 3.083-8.011 6.09l1.731 1.001c1.473-2.546 3.944-4.425 6.78-5.155z"/><path d="m21.626 14.333-1.886-.667c-.249.704-.438 1.433-.561 2.168l1.973.33c.104-.62.264-1.236.474-1.831z"/></svg>