<svg id="Layer_35" enable-background="new 0 0 64 64" height="512" viewBox="0 0 64 64" width="512" xmlns="http://www.w3.org/2000/svg"><path d="m25.69 49.71 1.31 3.29 5-5 5 5 3.3-8.24 8.44 3.45c5.6 2.29 9.26 7.74 9.26 13.79h-10-32v-6.14c3.06-.44 5.81-1.88 7.9-3.96.66-.67 1.26-1.4 1.78-2.19z" fill="#e6e9ed"/><path d="m16 55.86v6.14h-10c0-3.02.92-5.9 2.53-8.3 1.61-2.41 3.93-4.34 6.73-5.49l.73-.3c-.05 2.81-.73 5.57-1.99 8.09.68 0 1.35-.05 2-.14z" fill="#e6e9ed"/><path d="m38.18 43.88.01-.01c.1.06.2.11.3.15l1.81.74-3.3 8.24-5-5z" fill="#ff826e"/><path d="m32 48-5 5-1.31-3.29h-.01c.92-1.38 1.59-2.94 1.97-4.61z" fill="#ff826e"/><path d="m15.99 47.91c.01-.13.01-.25.01-.38v-15.53-14c0-8.84 7.16-16 16-16 4.42 0 8.42 1.79 11.32 4.68 2.89 2.9 4.68 6.9 4.68 11.32v2c0 2.07-.63 4-1.71 5.59l-.07.05c-.54-.73-1.32-1.26-2.22-1.5v-5.14c-2.56 0-5.07-.51-7.39-1.47s-4.45-2.37-6.27-4.19l-.34-.34-.76 1.53c-1.37 2.74-4.18 4.47-7.24 4.47v4.57c0 2.89.85 5.71 2.46 8.11l.77 1.16c1.22 1.83 2.06 3.89 2.47 6.04.2 1.02.3 2.07.3 3.12 0 1.07-.12 2.1-.35 3.1-.38 1.67-1.05 3.23-1.97 4.61-.52.79-1.12 1.52-1.78 2.19-2.09 2.08-4.84 3.52-7.9 3.96-.65.09-1.32.14-2 .14 1.26-2.52 1.94-5.28 1.99-8.09z" fill="#fcd770"/><g fill="#f0d0b4"><path d="m44 24.14c.9.24 1.68.77 2.22 1.5.49.66.78 1.47.78 2.36 0 2.21-1.79 4-4 4h-.76c1.14-2.34 1.76-4.94 1.76-7.65z"/><path d="m36 40.31c0 1.52.85 2.89 2.19 3.56l-.01.01-6.18 4.12-4.35-2.9c.23-1 .35-2.03.35-3.1 0-1.05-.1-2.1-.3-3.12 1.31.88 2.75 1.6 4.3 2.12 1.43-.48 2.77-1.13 4-1.93z"/><path d="m24.46 31.68c-1.61-2.4-2.46-5.22-2.46-8.11v-4.57c3.06 0 5.87-1.73 7.24-4.47l.76-1.53.34.34c1.82 1.82 3.95 3.23 6.27 4.19s4.83 1.47 7.39 1.47v5.14.21c0 2.71-.62 5.31-1.76 7.65-.44.91-.96 1.79-1.55 2.61-1.27 1.75-2.85 3.27-4.69 4.46-1.23.8-2.57 1.45-4 1.93-1.55-.52-2.99-1.24-4.3-2.12-.41-2.15-1.25-4.21-2.47-6.04z"/></g><circle cx="38" cy="24" r="1"/><circle cx="26" cy="24" r="1"/><path d="m32 34c-1.103 0-2-.897-2-2h-2c0 2.206 1.794 4 4 4s4-1.794 4-4h-2c0 1.103-.897 2-2 2z"/><path d="m49.123 47.288-10.259-4.197c-1.132-.463-1.864-1.553-1.864-2.777v-.718c2.469-1.706 4.474-3.972 5.857-6.596h.143c2.757 0 5-2.243 5-5 0-.833-.211-1.625-.583-2.325 1.034-1.71 1.583-3.658 1.583-5.675v-2c0-9.374-7.626-17-17-17s-17 7.626-17 17v29.238l-.123.05c-6 2.455-9.877 8.23-9.877 14.712v1h54v-1c0-6.482-3.877-12.257-9.877-14.712zm-10.123-1.98-2.365 5.913-3.065-3.065 4.712-3.141zm-2.545-1.479-4.455 2.969-3.246-2.164c.152-.857.246-1.734.246-2.634 0-.404-.014-.807-.041-1.208.874.457 1.785.844 2.725 1.156l.316.106.316-.105c.947-.316 1.855-.702 2.719-1.152.112 1.164.619 2.226 1.42 3.032zm-8.218 2.865 2.193 1.462-3.065 3.065-.572-1.429c.592-.968 1.082-2.003 1.444-3.098zm3.763-6.752c-1.195-.425-2.335-.984-3.398-1.668-.462-2.125-1.319-4.153-2.543-5.989l-.77-1.155c-1.497-2.246-2.289-4.859-2.289-7.559v-3.625c3.057-.332 5.731-2.173 7.13-4.971l.153-.306c3.509 3.219 7.964 5.077 12.717 5.306v4.375c0 7.024-4.406 13.248-11 15.592zm11.805-9.065c.611-1.627 1.007-3.351 1.14-5.137.65.554 1.055 1.367 1.055 2.26 0 1.374-.933 2.522-2.195 2.877zm-26.805-12.877c0-8.271 6.729-15 15-15s15 6.729 15 15v2c0 1.423-.343 2.801-.976 4.052-.315-.24-.653-.454-1.024-.616v-5.436h-1c-4.892 0-9.49-1.905-12.95-5.365l-1.324-1.322-1.384 2.769c-1.209 2.416-3.639 3.918-6.342 3.918h-1v5.571c0 3.095.908 6.093 2.625 8.668l.77 1.155c1.704 2.557 2.605 5.533 2.605 8.606 0 6.632-4.992 12.12-11.415 12.904.929-2.341 1.415-4.859 1.415-7.376zm-2.111 31.475c-.232 2.109-.836 4.181-1.784 6.078l-.723 1.447h1.618c.338 0 .668-.029 1-.051v4.051h-7.965c.354-4.985 3.337-9.364 7.854-11.525zm34.111 11.525v-6h-2v6h-30v-4.302c3.341-.681 6.275-2.481 8.409-4.984l1.226 3.065 5.365-5.365 5.365 5.365 3.486-8.714 7.515 3.075c4.934 2.019 8.226 6.605 8.599 11.86z"/><path d="m31 57h2v2h-2z"/><path d="m31 53h2v2h-2z"/><path d="m39 55h6v2h-6z"/><path d="m21.626 14.333-1.886-.666c-.249.704-.438 1.434-.561 2.168l1.973.33c.104-.62.264-1.236.474-1.832z"/><path d="m32 7v-2c-4.626 0-8.941 2.49-11.26 6.499l1.731 1.002c1.963-3.394 5.614-5.501 9.529-5.501z"/></svg>